<mxfile host="app.diagrams.net" agent="Mozilla/5.0 (Windows NT 10.0; Win64; x64) AppleWebKit/537.36 (KHTML, like Gecko) Chrome/134.0.0.0 Safari/537.36" version="26.1.3">
  <diagram id="C5RBs43oDa-KdzZeNtuy" name="Page-1">
    <mxGraphModel dx="1434" dy="818" grid="1" gridSize="10" guides="1" tooltips="1" connect="1" arrows="1" fold="1" page="1" pageScale="1" pageWidth="827" pageHeight="1169" math="0" shadow="0">
      <root>
        <mxCell id="WIyWlLk6GJQsqaUBKTNV-0" />
        <mxCell id="WIyWlLk6GJQsqaUBKTNV-1" parent="WIyWlLk6GJQsqaUBKTNV-0" />
        <mxCell id="SyApvD5rYvNBRnNYpfSM-12" value="" style="edgeStyle=orthogonalEdgeStyle;rounded=0;orthogonalLoop=1;jettySize=auto;html=1;" edge="1" parent="WIyWlLk6GJQsqaUBKTNV-1" source="WIyWlLk6GJQsqaUBKTNV-3" target="SyApvD5rYvNBRnNYpfSM-11">
          <mxGeometry relative="1" as="geometry" />
        </mxCell>
        <mxCell id="WIyWlLk6GJQsqaUBKTNV-3" value="选择游戏，获取未注册过的邮箱" style="rounded=1;whiteSpace=wrap;html=1;fontSize=12;glass=0;strokeWidth=1;shadow=0;" parent="WIyWlLk6GJQsqaUBKTNV-1" vertex="1">
          <mxGeometry x="380" y="80" width="120" height="40" as="geometry" />
        </mxCell>
        <mxCell id="SyApvD5rYvNBRnNYpfSM-1" value="输出一个文本文件，在心蓝那边直接导入" style="rounded=1;whiteSpace=wrap;html=1;fontSize=12;glass=0;strokeWidth=1;shadow=0;" vertex="1" parent="WIyWlLk6GJQsqaUBKTNV-1">
          <mxGeometry x="160" y="240" width="120" height="40" as="geometry" />
        </mxCell>
        <mxCell id="SyApvD5rYvNBRnNYpfSM-5" value="" style="edgeStyle=orthogonalEdgeStyle;rounded=0;orthogonalLoop=1;jettySize=auto;html=1;" edge="1" parent="WIyWlLk6GJQsqaUBKTNV-1" source="SyApvD5rYvNBRnNYpfSM-3" target="SyApvD5rYvNBRnNYpfSM-1">
          <mxGeometry relative="1" as="geometry" />
        </mxCell>
        <mxCell id="SyApvD5rYvNBRnNYpfSM-3" value="输入工具，调取后端接口输入数据库" style="rounded=1;whiteSpace=wrap;html=1;fontSize=12;glass=0;strokeWidth=1;shadow=0;" vertex="1" parent="WIyWlLk6GJQsqaUBKTNV-1">
          <mxGeometry x="160" y="160" width="120" height="40" as="geometry" />
        </mxCell>
        <mxCell id="SyApvD5rYvNBRnNYpfSM-7" value="游戏登录注册流程" style="text;strokeColor=none;align=center;fillColor=none;html=1;verticalAlign=middle;whiteSpace=wrap;rounded=0;" vertex="1" parent="WIyWlLk6GJQsqaUBKTNV-1">
          <mxGeometry x="380" y="30" width="110" height="30" as="geometry" />
        </mxCell>
        <mxCell id="SyApvD5rYvNBRnNYpfSM-8" value="邮箱购买注册流程" style="text;strokeColor=none;align=center;fillColor=none;html=1;verticalAlign=middle;whiteSpace=wrap;rounded=0;" vertex="1" parent="WIyWlLk6GJQsqaUBKTNV-1">
          <mxGeometry x="165" y="30" width="110" height="30" as="geometry" />
        </mxCell>
        <mxCell id="SyApvD5rYvNBRnNYpfSM-10" value="" style="edgeStyle=orthogonalEdgeStyle;rounded=0;orthogonalLoop=1;jettySize=auto;html=1;" edge="1" parent="WIyWlLk6GJQsqaUBKTNV-1" source="SyApvD5rYvNBRnNYpfSM-9" target="SyApvD5rYvNBRnNYpfSM-3">
          <mxGeometry relative="1" as="geometry" />
        </mxCell>
        <mxCell id="SyApvD5rYvNBRnNYpfSM-9" value="购买邮箱" style="rounded=1;whiteSpace=wrap;html=1;fontSize=12;glass=0;strokeWidth=1;shadow=0;" vertex="1" parent="WIyWlLk6GJQsqaUBKTNV-1">
          <mxGeometry x="160" y="80" width="120" height="40" as="geometry" />
        </mxCell>
        <mxCell id="SyApvD5rYvNBRnNYpfSM-14" value="" style="edgeStyle=orthogonalEdgeStyle;rounded=0;orthogonalLoop=1;jettySize=auto;html=1;" edge="1" parent="WIyWlLk6GJQsqaUBKTNV-1" source="SyApvD5rYvNBRnNYpfSM-11" target="SyApvD5rYvNBRnNYpfSM-13">
          <mxGeometry relative="1" as="geometry" />
        </mxCell>
        <mxCell id="SyApvD5rYvNBRnNYpfSM-11" value="选择游戏，获取未注册过的邮箱，工具右侧有个按钮，一键注册" style="rounded=1;whiteSpace=wrap;html=1;fontSize=12;glass=0;strokeWidth=1;shadow=0;" vertex="1" parent="WIyWlLk6GJQsqaUBKTNV-1">
          <mxGeometry x="370" y="160" width="140" height="60" as="geometry" />
        </mxCell>
        <mxCell id="SyApvD5rYvNBRnNYpfSM-17" value="" style="edgeStyle=orthogonalEdgeStyle;rounded=0;orthogonalLoop=1;jettySize=auto;html=1;" edge="1" parent="WIyWlLk6GJQsqaUBKTNV-1" source="SyApvD5rYvNBRnNYpfSM-13" target="SyApvD5rYvNBRnNYpfSM-15">
          <mxGeometry relative="1" as="geometry" />
        </mxCell>
        <mxCell id="SyApvD5rYvNBRnNYpfSM-13" value="自动化工具脚本触发，调取mumu模拟器，触发注册流程" style="rounded=1;whiteSpace=wrap;html=1;fontSize=12;glass=0;strokeWidth=1;shadow=0;" vertex="1" parent="WIyWlLk6GJQsqaUBKTNV-1">
          <mxGeometry x="370" y="240" width="140" height="50" as="geometry" />
        </mxCell>
        <mxCell id="SyApvD5rYvNBRnNYpfSM-21" value="" style="edgeStyle=orthogonalEdgeStyle;rounded=0;orthogonalLoop=1;jettySize=auto;html=1;" edge="1" parent="WIyWlLk6GJQsqaUBKTNV-1" source="SyApvD5rYvNBRnNYpfSM-15" target="SyApvD5rYvNBRnNYpfSM-20">
          <mxGeometry relative="1" as="geometry" />
        </mxCell>
        <mxCell id="SyApvD5rYvNBRnNYpfSM-15" value="注册需要解验证码，这里需要调一个脚本" style="rounded=1;whiteSpace=wrap;html=1;fontSize=12;glass=0;strokeWidth=1;shadow=0;" vertex="1" parent="WIyWlLk6GJQsqaUBKTNV-1">
          <mxGeometry x="370" y="320" width="140" height="50" as="geometry" />
        </mxCell>
        <mxCell id="SyApvD5rYvNBRnNYpfSM-24" value="" style="edgeStyle=orthogonalEdgeStyle;rounded=0;orthogonalLoop=1;jettySize=auto;html=1;" edge="1" parent="WIyWlLk6GJQsqaUBKTNV-1" source="SyApvD5rYvNBRnNYpfSM-18" target="SyApvD5rYvNBRnNYpfSM-23">
          <mxGeometry relative="1" as="geometry" />
        </mxCell>
        <mxCell id="SyApvD5rYvNBRnNYpfSM-18" value="调取心蓝接口，获取垃圾箱邮件，获取链接，直接调取" style="rounded=1;whiteSpace=wrap;html=1;fontSize=12;glass=0;strokeWidth=1;shadow=0;" vertex="1" parent="WIyWlLk6GJQsqaUBKTNV-1">
          <mxGeometry x="370" y="490" width="140" height="50" as="geometry" />
        </mxCell>
        <mxCell id="SyApvD5rYvNBRnNYpfSM-22" value="" style="edgeStyle=orthogonalEdgeStyle;rounded=0;orthogonalLoop=1;jettySize=auto;html=1;" edge="1" parent="WIyWlLk6GJQsqaUBKTNV-1" source="SyApvD5rYvNBRnNYpfSM-20" target="SyApvD5rYvNBRnNYpfSM-18">
          <mxGeometry relative="1" as="geometry" />
        </mxCell>
        <mxCell id="SyApvD5rYvNBRnNYpfSM-20" value="输入验证码，发送邮件" style="rounded=1;whiteSpace=wrap;html=1;fontSize=12;glass=0;strokeWidth=1;shadow=0;" vertex="1" parent="WIyWlLk6GJQsqaUBKTNV-1">
          <mxGeometry x="375" y="410" width="130" height="40" as="geometry" />
        </mxCell>
        <mxCell id="SyApvD5rYvNBRnNYpfSM-23" value="返回mumu模拟器，输入角色用户名，密码，调取后端接口，记录到数据库" style="rounded=1;whiteSpace=wrap;html=1;fontSize=12;glass=0;strokeWidth=1;shadow=0;" vertex="1" parent="WIyWlLk6GJQsqaUBKTNV-1">
          <mxGeometry x="370" y="585" width="140" height="50" as="geometry" />
        </mxCell>
        <mxCell id="SyApvD5rYvNBRnNYpfSM-25" value="" style="shape=image;verticalLabelPosition=bottom;labelBackgroundColor=default;verticalAlign=top;aspect=fixed;imageAspect=0;image=data:image/png,iVBORw0KGgoAAAANSUhEUgAAAcIAAAHTCAIAAAA78I8sAAAgAElEQVR4AeydC3xT5f3/o9P9HLTcUYeoeAV0KlpKSynQll4ABedv03nh0hYo4Lzwnwq66ayi25jzMtCxn/7cTzbBqVPByaYoxkBQy07SpGnTJE3bNL2kTdM0bW7N9fw952mePj0nSdM2SZP2e17Pq33Oc57zXD7POe98n8s5RzBtyrxpqZczbsq84TneKdNT5w1yUwbvoqNT5k0ftZsRLIUZU+bFx82MLKOZU+YNuKnzZk69IpSbNfWKIG7KFbMCDqcza8o8JpCIP3valbOmXTlr+lWMm3H1rBlXz55xzeyZ18yaeS12s2ddO3vW/Nmz5l944YKLLrru4ouvn3PJjZfMXXTJZTdffuWSa69bfv3itbcs/2lm/obM/E0ZBZszCoozC4szi4qzVjNuGeuy1xQvX1uyYm3xYFeyggksWc667DWljFtdkrV6S1ZR6dKi0qWFWzIKSpfkl6Tnly5eVZKWV3JLbvGiHNatLF60ouSmFSU3Mq6Y/Yv8JTeswK74hhXI4ZB+DxN/+aCzyBSG9BNZlASywHkV/2h58Y9WROQGpzNQyB8tLw51iB/+I6a+OPeBRG5YURpwZGBc/UMqGZ0IK0tuyim9cWUM3U05pTfllNy4cpBDITfllIR3i1aWIMdEW1m6aMD1hwtGhdHBJB3EUA5S8W4wAg4XrEExOp1Pt9R5M1LjxFY+wTH7BnlCwJQkY78/wFAEU5xIP1sxSYNg9GoGozMIN/NaRNILZy+4kMHodT+c86M5c2+cc+miufPSrrw289pFBTcu/fHinHuXrNq0JH/TkvzNSwo2ZRYWLy0sziranLV687LVxQxGA44g6SCMLl9bkr2mJHtN6bI1pVlrSrNWl2QVlTBELixeUlCSnl+8OL84La/4lrzimwmS9t+Hy4sxFgnQFN8QipWhwvu53E/kUDc5kQWJsH6WjR6jZPo/WlGCHYFLzE2G14PDSwL0RBgdBpHJfEfvD6Ve9MMZusWaoVyMhkcneTQ0RkvRIQKjg5k4tGWKbFjirKhhdKTM5bIMYRT/5XM2liEYfCE9wZA6wNMQGJ3JGKSETTrtCsYancZao4xNevVsxiC9msTobBajF86az2D0woWMQfrDH8255MY5rEF62VXpV16fc93i225efld63sb0vE3pDEw3Z+RvzmTM0s1LCbM0m+UpidTla0oYt7Yku5+hDElZjJZkrSnJWs3AdGlRSWZRaUZhCQvTEoakuYxjYMr8zpfyb8sAAiYsRkmTM94Y5TdHzENiiVHWDmUYihwySPFuJJ6JhVGuQYoBOhZmaUh64s7+cDA6a8oVZIIDXXuM0QBJEUZnz7iW6d2z7sKZ114461oGo0y/fuFFFzL9+h/OuWHOJTchg/Sy+dnXLiq6YelP0vM2Ls7btDhv05L8YtZtzijczJilRcgsLc5avRmTNABTFqNrEEaLGWt0dcmyNSVZa4qz1hQvYzBaupQhaWlmYckS1ixdnB8gaU7JIsYxvaRA757Tr2fMtOD3cDStUcSsAZMwEmv0BsbGjAhw2BQd3HknsgtijZIYjZP/xhUlN6wcwooP3haR9QDCnRtzjA50229kBhCG5yLAaCoxJEqYlkNbo3gsFZ+VOm8ax+E4AU9EFiu2RpFnOOMAgwzSMcXooJKwZu9MBoXBHMPTK0O5WVOuRI44lxl1xSTtHx7lYhQx9FqGpzMZ10/S2QsuChikP7zkxh/OvWnO5TdfetXSq6/L+1HabYuW3bk4Z8PinE1L8janrypmHMvTjILSzMLSpYUlbDe/OKuoZNlqBpf9bg3T5cdu2ZriZWvYQVXGU8Jao8WZgw3SxauY3n1aXsnNuSxGc0pvCnoDEz197k0YU4xGMDAabYwOzUo0XMva6aUBa33os8LH5Ko6eiCOLIXoYHTQuCcaJeCYosMFKIo/GKP946E4cNHKEgEDvgDjRuvhMDRYyiPBKEnVYSGVg9GxGyflI3UGY5PykBoMpqEw2k9SNOOERkinXTV7+lWzp1/NuH5TlMUoS9IBjM5m+vUXXXz9xXNu+OHcm3542aK5V2TMu3bFghsLb1hy+y3Zd9+y4r7FuZsW521enFeMXPoqxjjNKChBs09L+4dNi5cVFTPGKeHQrBTn79IihNGSzMIS1LVfnF+8OI+ZcUrLK705t5SxSUNhdEys0QgwOgC15czIQxhaDWWNclGI0BYsQWTAopFT7lnB4g8dJ1EwuoIYGyX9EQ2YYnoW37iyGBmbbM+dGWwdzxi9ZdGKvc/u+/zEycZGnc1m8/v9NGygACgACsRLAb/fb7fbdU16oejrl187tPbuR8IYqtjwZOIEZu1xYGhrlLcEauqUeUM6bo8+mDW6bcuD335TES+tIB9QABQABSJS4CxV+ehTLwWFKSZmWIzyOuNTU+dhh3r6QRiK4wQIGx6jq3LXfwMAjahBIRIoAAqMjQJnqcp7tj7JgWkUMNrP0wArB3iKMZrab6iGwejevfug5z421wXkCgqAAsNRwO/3v/zaIZKkJEbZhSWBWaacUrQrYLBIAjGEPwgiU+ZNw45nz5Lx33rr7eHUAuKCAqAAKDDGCvz9/U+4XXgGmsVoOpQBK2Io+zcyjDIPjI7QAUPH+HKA7EEBUGBECrzz/ieDJpQYYgZWOhMMXZRTKojEFJ06UobufXbfiMoPJ4ECoAAoMPYKvPzqIdyjJ81Pjj+GGF2VezuMh479hQAlAAVAgZEq4Pf779n6ZD9JB1ugJEkZjE4JuDCW6Qg69TAvP9K2g/NAAVAgURQ4S1UOD6OIp0FhOlyMbtvyYKLIAOUABUABUGAUCjz21Muk7cn3C6amXoGtUewJStJhBYIpOopWg1NBAVAggRRgDNLQPXpmigmjk+MZFjQ5kRctWplAGkBRQAFQABQYnQK33v1IGJKGxOiUwQtIhwVZmKAfXZPB2aAAKJBYCrz82qERYhShE1maw8Lo5ydOJpYGUBpQABQABUahgFD09agwygFomF3ctW9s1I2iwHAqKAAKgAKJpYCuSR9vjNpstsTSAEoDCoACoMAoFLDb7XHCKDZUYdX9KNoLTgUFQIGEU8Dv9weeBEXPgw76G26KCWNxuJ6E0wAKBAqAAqDA6BQAjI5OPzgbFAAFJrwCITDKvCsPrNEJf3WAAKAAKBCBAoMxyr5pNLAmHzAagX4QBRQABSa8AkNgNDVl4O0kwx0GDRp/wgsOAoACoMB4U2BojKamzAsP08DRK6Ywz+AjFxK+400/qA8oAApMeAUixWiAlSH5yNqegNEJf0GBAKDAxFOAXTeK1zmVkstImbFRZIriv0H76YMDwRqdeBcR1BgUmNgKkNzk+INglLVJscmJPaSJChid2BcU1B4UmHgKcNBJ7gbHaDCSkhhl/Nh6xR5ssU48haHGoAAoMM4VILmJ/Tfnlt6cy64bxRwc5GG+LIJN0SCvdh4UefBc/ziXE6oHCoACE08BjM5FOQw6SSfg0HA0u2CNTrxLC2oMCkwUBRBGSXpiP2B0olwEUE9QABQYjQKA0dGoB+eCAqAAKECHxWjqvJSUy5FLTZ03GgederjWQAFQYLwqEDlGLweMjteLAOoFCoACo1GAP7NEjI0S1mhKyuWpqSMnKVijo2kkOBcUAAUSWYE4YRRbsomsBZQNFAAFQIERKIBtT75HkDrYGmUN0lGNkKamzhtBEeEUUAAUAAUSWQE+PXHI+MGo3++3O5zyGvU3lLyusSmR2wPKBgqAAkmnAIYm3yPA0/RBPbifPixP/AXyen1Wm71Grf3kxFefCc9oGnQ+vz/+xYAcQQFQYLwqwKcnDkl6jPr9fo/Ha7b01GrqPzkh+uCTz8UV0rZ2I3yddLxezVAvUGBMFMDQ5HuSHqNer7fb0lOj1v7r5KkjHx7/6szZxqYWZ59rTISGTEEBUGC8KsCnJw4RpKReHi2HO/7x0dHPbr02m7Ku/l8nT/31vWMnvjqj07c6nX3xKQDkAgqAAhNHAQxNvie6GEXLTi+Pj7J+v99mdyjV2n99ITry4fETQnFTc5vD2QeDoqT+AoEgKyvrm2++IQOxXyKRCASCKVOmvP766zhwnHlOnTp1yy23CEJsq1evbmxsHGdVhurEQgE+PXFINDGKJ6liUQdOml6vl7FD1drjnzPjoUIx05dnGQozS4OkwvSYPXv2gQMH8DGLxfLyyy9PmzYNRxAIBPPmzXvvvfdwnKT2eDye6urqe+65h6wg3w8YTepWjmfhMTT5HsHk6HXq44ZRZjy0p4fpy3/BMPSrr//T0NTMMDSeoiZJXhgcJEa1Wu22bdsmT56MjwoEgmnTpv3qV78aH1Nzbrf7888/T0tLIysY1F9UVNTQ0JAkjQnFHEsF+PTEIcmHUa/XZ+m11tY1oDklofgsYuhYCpzAeWN2YIyePXt29erV3//+9/Ghc845Z8qUKb/73e/Ievh8PpPJ1NraarVayfAwfnRKb28vP05HR0drays/nAzp7e1tbW01m81Dotzn81kslra2tp6eHp/PRyaC/I2NjStXrsQVRJ6LLrro6quvvmbwVlJSotfr+Sn09PS0trZ2dHT09Q0aag+aHU3TdrvdZDK53W5OUm6322AwWCwWTji563a729vbOzo6nE4nGQ7+hFIAQ5PvSTKM+v1+q82uqmv495en0ZwS6ssnlNwJVRiMklmzZr3yyivffvttZmYmDkSeK664Yv/+/bjYKpXqtddee+qpp7Zv375x48Zdu3aVl5cfOHCAvMk//fTT8vLyDz/80Gaz0TRdW1tbXl7+1FNPlZWVPfTQQ88884xIJKJpWqPR7N+/v7y8vLS0dOPGjeXl5X/+859xRshjs9kOHjxYXl7+4IMPbtiwYceOHb/+9a//+Mc/KpVKTkyapnt6en77298+9dRTP//5zzdt2vTAAw889dRTBw8e7OjowJH7+voefPBBso7Z2dm7d+/+y1/+cvTo0WODt6+//tput6Nzz5w5s2/fvnJ2e+CBBzZu3FhaWrpnz57y8vJPPvkEVd/r9b788svPPvusRCKhabq3t/ef//xneXn5//t//6+srOyJJ57Yt2+f0WikafrLL78sLy9//PHHN2/e/MADD2BNcDlpmv7iiy/Ky8ufeOKJEnZ77LHHysvLv/rqK1JqMj74x1ABPj1xSFTHRgPjA7Grqt3hrFFr/3niK2ZO6avAnFLs8kv+lDFNZs6ceffdd/NttKysrA8++ABXVCQSrV+/fubMmfhE5JkxY8aePXsoikIxv2OrQCBYuHBhWVnZrl271q1bR8Y/55xzli5d+swzz9xzzz3Tp08nD82ePfvNN9/E2Uml0t27d8+ePfucc84ho02dOvW222779NNPcUyapqVS6ZYtW0g7Gp0ye/bsDRs2YGvXYrGcd955OLXCwsJTp05FAqbi4uIf/OAH+ETSc+ONNx48eBDxcd68ed/73vfy8/N37dq1devWG264gYz5gx/8YOPGjY8//nhGRgYZjjQ5e/YsrtETTzyRnp5OxkH+zMzM559/3mQy4ZjgSQQFMDT5niTDqLxG/c/PhH99/+Njnwkb9S0Op3PIDmAiNMAYlgHfpd///venTp2Kd5Fnw4YNMpkMF6+iooIDBTL+BRdc8JOf/KSpiXnQFmGUPMr3T5o0iY88gUAwf/58BG6tVrtp06ZQ5BIIBAsWLPjyyy9R8axWK/83gMw0NzcXYe7o0aM4/MILLzx48CCuYHhPTk4OPpHvmTNnzsmTJ2manjdvHv8oJ+T888/nhKDdsrIyNIbwyCOPBBUHRZs2bdqBAwc8Hk/4AsPReCrApycOSTKMfv0f2Tsf/evNIx/+6+SptnajN9i4WDyVTfy8gt7MKPC3v/1tc3MzrkJDQ8NPfvITTvyLL7743HPPxYE/+MEPdu/eHRSjP/3pT/Py8nBM7Lnllluys7NJ8/C8887bsWMHTdPPPPNMSkoKjikQCObMmUPuCgSC++67r76+nqbpoqKi733ve+joueeee80119x3330LFiwg4+/bt++7kYR7770XBxYXF3d1daE6Pvfccz/72c/u4m27du1CVjbG6OLFi++4447S0tLs7GyclEAg+MlPftLW1sbB6KWXXvrjH//4sssuI2Mi/9q1a+fPn0+GT5069d///ndvb++VV16JDfBp06bdeuut69atIxdOXHjhhT09Pbh1wDPmCmBoDnjySm9mXVTHRmPfqa9raPr3l6ff/sc///HJCalC2d3T6/F6x1zfRC4AeQ+T/nvvvbetrY0suUgkImG3b9++1tbWnp4ei8VC2lZ5eXlVVVWkNXrxxRdbLBaHw2EymZ555hmcy/e///2///3vVqvVZrN1dHTgcIFAUFxcLJPJMLYEAkFqaqrFYkETOy+88AKOfP7553/88cekDThp0qSf//znvb29TqfTarXu3LkTR77gggtomibZumvXLlzHtWvXnn/++d/jbddff/0nn3xC03RHR0dXV5fFYrHZbA6Hw+l02my2P/3pTzj9yZMnKxQKjNELLrhg586dvb29Dofj+PHjixcvxjHnzZtnsVjsdrvRaHzllVdwuEAgOHr06LZt27ANftlll/X09NjZ7fTp07m5uTjy3//+d1x48Iy5Agw989gPggboiRjKfGB5curljEsZ5Eb5XFPsKuz3+xv1LZ8KxYfePfresX8zJLUEn6uNXRmSK2V8T/I9hw4dwtPQPp/v2LFjOM6VV1556tQpsqb40NSpU3/zm9+QGL3qqqtwzK+++grHnDRp0vHjx/EhHI4w+qc//em//uu/cKBOp8Mxv/3224suuggf+uCDD44fPz5r1iwUMmnSpFsD2/r165csWZKamooj0zRNzqGRGM3Pz8cGII6PRnj/+c9/4txpmv7zn/98zTXXkHGQ/7zzzpPL5Rij2Danadrn8z300EP4lOzsbJwgqQnC6KJFi3DMlJSUDYFt8+bN119/PT6UmZmJEwHPmCsQEqN5LEYnDWYoB6lod1hgjWmFXW5PY3PrCdHXbx758P2PP5NVq8wW6PuElBzfkwKB4PzzzyfJJRAI8Mijw+H4bpIaR96wYQPZ36dpGh8SCAS72A2HjAyjHBuNxGhTU9N30/o4/f379+/bt2/KlCk4JIyHpuknnngCRygqKsKDv3ffffe8wDZ37lwc59prrz127BhN0+3t7bfddhseOsARsCcMRjkDHZFjFCfO98yePTtku8KBuCvQb3tyTFHUqZ+UMi8yd/mklEEuDF5jWkG/3+9w9umaWz8/9c2h944d/fSkVKHs6g63Li+m5UnwxPHNed5552VnZ2/fvp0kiEAg+Oqrr2iadjqdZFf6Zz/7Gck1EqPnnnvuI488MnprNAxGdTodOb752muv/f73v48co01NTbjWAoFg27ZtnZ2dnGbS6XQ4DsKoSqUijUSBQHDuuedecMEF5A9P5Bhdvnw5zjG8NYqLwfdMmTIFJwKeMVcgGhhNvXzSYMdgFA0I8P7GusIDJBV9/fej//r4M6FUoTSZLaGWRse6PImcPr45Z8yY8cILL9A0feTIkauvvhqHCwSCI0eO+Hy+Dz/8EAfOnz//zJkzuF6nTp3Chy666KL9+/ePHqNvvfUWuRaK7FZTFHXVVVfhHN99993Tp0/jbv7kyZPvvPPO4hAbTdNWq/Wmm27Cp6empj744IMSiQSPYNA0zcdocXExPuX8888vLi7esmXLI488Qq7lihyjK1euxOrxMbpkyRI8vJCSkhKiKkwwTgQ8Y65AFDAaiphBw+NQYb+fdrk9OrZ3/+7Rfx/990mJvKbb0gMzThzxMRpmzpz58ssvo6PvvfceOfY3adKkv/3tb6dPn540aRKO/90iU6FQ2Nra+te//vXGG2/E4atXr9ZqtSRGr7jiCpwpiYzwY6P19fXr16/Hyaanp7/99tvt7e2nTp0iiTZ9+vRPP/3U7XZffvnlKPKUKVN+/etfq1Qq9OzQd/QvLy9/8cUXz549ix4i8nq9R44cwSkjD1qBj5bWl5eXk+W/9tprDx8+fPfdd+NT0DCFx+OpqanZsmULDo8co+E79c8//zw2rqdPn/7mm2+iR8Xq6ur+/Oc/l5eXHz582GAwYFXBkwgKRAGjuEfP4SYzrhp3axRr6vF4dS1tn5/6+q/vHXvv488kVTVmmHHC6rAejAASo263+8CBA3iN/bnnnnvttde+8847DzzwAI4vEAgyMzPvuececinPd5M55eXlnHHAefMGvr4VOUZpmt67dy85OzRv3rwNGzZkZWWRZdi5c2dLSwvKES+0TElJWbdu3a5du7Zv375w4UKBQJCSkpKbm7t3715U+87OTk5dyDQ5/muuuebQoUN33XUXDp8zZ86uXbseeOCBW2+9lTSZo4XR9vb2Sy+9FGV3zjnnzJkzZ9u2bbt27frxj388e/ZsgUBwxRVX3HvvvWazeXBjwt5YKhANjBI9esRNBFY+QyenxulFeUjRvj5XU3PbydPfvnnkw/c+/kxaBeOkgy41jAYSozRNd3d3P/zww/jtJOeff/6aNWuOHTtG9mHxucjzve99b/ny5WjMlLTmRozR+vr6W2+9FXdvOdkJBIJbb70VWZ00Tbe1tV133XX8OGTIO++8gytvMpnIuSYyGsd/9dVXf/DBB5s2beKE83fPPfdcmUwWdKae89MS3hqlafrEiRNYfH5GAoGgtLQ08rcZ4FqDJ3YKRAGjfFxy7NCUKfNwnNjVhJ8yGifVtxiEZ/5z6N2jHx7/XFJVYzLDjFO/VPgWnTlz5osvvkgK2NnZuWrVKhzhggsuuOeeeyiKIvvU+OjkyZMfeOAB/DKkUBi12WwymezQoUNpaWnnnnsumgFHmeKk0IInFKjX6++//37cwyXj3H333U1NTeR4t0aj2bBhAxkH+y+++OKPPvqI82aQnp6ed999l7OEHp+CPVdfffVHH32k1+vJhZ/o6HnnnXfBBRfgmAKBIAxGW1tb//Of/zz++OMzZsxYuHAhlpq00NGCJ3RIoVCQC3XJXHbt2gVvQcUCJognChiNZDZ/cuo85OJcbb/f73T2Nbd1nPjq6yMfHv/0y9P1umav1wvPidI0PWPGjIvZbeHChf/zP//DaRqbzXbNNdegCBdffPGFF164Z88eq9VaW1v7i1/84pprrpk9e/b111//+9//3mKxkFM0jz/++MyZM2ez280338xJ1uv1Wq1Wi8VCPs44Y8YMFH/mzJk7d+7Ep/T19fX09LzyyisLFy6cOXPmVVddtWvXrurqaofDgeNgj9PpbG1t/e1vf7to0aLZs2dffvnld9111+nTp0O96snn89lstoaGhgMHDhQVFV1zzTVX8raVK1eih/dtNtvp06fz8/NnzJgxd+7cRx55pK6u7n//93+nT5+OSj579uzq6uobb7wR7V566aXPPPMMLhvyuFyunp4e8jVXp0+fxinMmDGDXEvb3d1dXV199913X3LJJbNmzbrpppueeeaZuro6UmpO+rA7VgrECaMYtfGvZ2DGiendC8+c1TbqyRs4/uWBHEEBUGCcKTD+MUrTtN/v9/l8RpNZ39LWaRr6nZXjrI2hOqAAKBBTBSYERmOqICQOCoACE1wBwOgEvwCg+qAAKDBaBQCjo1UQzgcFQIEJrkB4jA56Uh4vsx+NZ4LLDdUHBUCB8acAidFb8kpvYV9KgjyC0eAy1LnjT0GoESgACkxwBfgYRQy9Ja8UMDrBrw2oPigACkSkAGA0IpkgEigACoACoRQAjIZSBsJBAVAAFIhIAcBoRDJBJFAAFAAFQikAGA2lDISDAqAAKBCRAoDRiGSCSKAAKAAKhFIAMBpKGQgHBUABUCAiBQCjEckEkUABUAAUCKUAYDSUMhAOCoACoEBECgBGI5IJIoECoAAoEEoBwGgoZSAcFAAFQIGIFCAxivy3rCpFDh4GjUhBiAQKgAITXAH8BD3fAxid4NcGVB8UAAUiUoBPTxwCGI1IQYgECoACE1wBDE2+BzA6wa8NqD4oAApEpACfnjgEMBqRghAJFAAFJrgCGJp8TzQxOjn1cuQmuNxQfVAAFBh/CvDpiUMAo+OvuZOvRjU1NS6XK2i5W1tbjxw58u677wY9CoGgQNwUwNDkewCjcWsFyCi4AiqVKiMjY926dceOHXO73ZxIDz30UFpaWmZmZltbG+cQuSsSiT7jbR6Pp6urixfMBPT19ZGngx8UGFIBPj3TVm1BDjA6pHoQIbYKPP/882mB7Z577lGpVGR+crkcHXzllVfIcI5//fr1gTQG/tvtdnz6QCjr6+rq4qQAu6BAeAVYYpamrWI+Zodc2ipmN21VVL/FBGOj4ZsBjgZVwO/3i0SiO+64A1mddXV1nGgbNmxIS0u74447PB4P5xDeBYxiKcATIwUwNBmSsg6HgDUaI80h2eEp4HA4Dhw48M4777S2tr4/eHvwwQe3bt16+PBhMlgsFpMZIIzu37+fpulPPvkE2Z6kNVpTU0PT9Pvvv48OgTVKqgf+SBTA0OR7oonRlNTLkYukTBAHFAiqwLfffsvpgAfdffLJJ8nTAaOkGuCPhQJ8euIQwGgsBIc0h6GA1WolYwNGSTXAnzgKYGjyPYDRxGmmiVgSqVSalZW1f//+jo6OUPVH1ijH/OREBmuUIwjsRl0BPj1xCGA06mpDgpEq4Ha7//u//xtRcunSpW+++abT6eSfDBjlawIh8VcAQ5PvAYzGvzkgxwEFWlpann76aQTKgoICs9k8cCzgC4NRi8VymN1yc3PT0tLKysoOHz78xBNPoFP+7//+b9++fcj/4osvHj58+NFHH0W7r7/++uHDhy0WSyAT+A8KDKEAn544BDA6hHZwOA4KyGSyO++884svvgiaVxiMNjU1oaMj+9vU1BQ0RwgEBfgKYGjyPQxGJ4/I4Xl5vodfAggBBcIr4HQ6/X4/inPs2LHwWFy7doiDG+QAACAASURBVC2KCRgNryocjaICfHriEMBoFHWGpEalwFdffeVwOGiajhyjKL++vj6E3aNHj3LWjZ48eRIdQlNYsG50VC00sU/G0ExbVbp41ZbFzJOgxFNMYI1O7MsjIWrf1dWVnZ29ffv2np4ejUbzd2JDHLz33ntxGMIlLrdOp0NxTp06xcHokSNH0CE0eQUYxaKBZ7gKIHRigJK7YI0OV0yIHxMFDhw4gHgnk8k4GaDwMAuevv76axRHqVRyMPrSSy+lpaXl5eWhNAGjHG1hN3IFSG5y/IDRyGWEmLFSoL29PTMzMy0tbefOnfw8hsQogmN6ejoaEyAfBv3FL36Rlpb20EMPoWQBo3x5ISRCBTjoJHcBoxFqCNFiqABelnT27Fl+NkNi9Mknn0xLS9u4cSM6F2MU0/m1115DhwCjfHkhJEIFSG5y/IKRDYyGOOuyySmMi7BYEA0UoGlarVYjUJaWluLJelKZ8Bjt7e1FluzBgwfRWRijH3zwAToXjZnCq0lIVcE/XAU46CR3AaPDFRPiR1MBn8+3fft2BDuKomia/sc//kG+yQnbjxs2bOCEt7e30zR96NAhdLparUYlw/TcsmVLWlra0qVL7Xa7z+ejafpvf/sbitzd3R3NakBaE0ABkpuMP3/AAUYnQPsncBXxgqTdu3ejYiLTEsEu/F+JRNLT05OVlZWWlnbvvff6/f7du3fj09PT09HpTz/9NE3TjzzyCE4tOzsbUTWBhYGiJZwC6au2cF1+aTrrAKMJ11oTqkBut/sPf/hDenq6TqdDFcccxNQL5ZFIJDRNf/TRR2lpaWhQ9YsvvkCRly5d+tlnnx0/fjw9Pb2+vp6m6c8++wync/jw4QklMlQ2KgogYgb9CxiNisKQyKgUUCgUozn/5MmT6HSn0ymVSmtqatCUPU3TUqkUHbJYLCdOnDh9+rTRaBxNXnDuhFUgKEDBGp2w1wNUHBQABYatQGiMbhGgufXo/h12AeEEUAAUAAUSW4EQGN2Sng8YTeyWg9KBAqBAgigwGKMMPbEDazRB2giKAQqAAgmtAIYm3wMYTeiWg8KBAqBAgigw2BpFS536DVLAaIK0ERQDFAAFEloBwGhCNw8UDhQABRJfgVAYXRL5FFNKymWRu8RXBEoICoACoMCwFOBgdEl+Keu2AEaHJSNEBgVAgYmrQAiMlgJGJ+41ATUHBUCBYSnAwSi5G+kUU+Q9+hR4Ud6wGgcigwKgQDIoEOjFo778oL+A0WRoQCgjKAAKjLUCgNGxbgHIHxQABZJcgZAYLYj4YVDo1Cf5NQDFBwVAgVEpEASjBVuWsA469aNSFk4GBUCBCaLAIIwGAAoYnSCtD9UEBUCBKCiQUbAFO0RP/Bes0SjoC0mAAqDAuFcAQ5PvAYyO+9aHCoICoEAUFODTE4cARqOgLyQBCoAC414BDE3sySjcilw4jA6enb80JSVSN+4FhQqCAqDARFOgn575pRmFW5cUbMko3AIYnWjXANQXFAAFRqUAhmZGQb8RynhYB9boqJSFk0EBUGCCKNCPUYTOwn6AAkYnSOtDNUEBUCAKCmDbk+8BazQK+kISoAAoMO4V4NMThwBGx33rQwVBAVAgCgpgaHI8mQVbAaNR0BeSAAVAgXGvAIeeeBcwOu6bHioICoAC0VEAPwk62LMVMBodfSEVUAAUGPcKZBZuwQ6TNLMQMDruWx4qCAqAAlFSADN0sGdrZiGMjUZJYkgGFAAFxrcCg+mJLVPA6PhudqgdKAAKRE8BFqNbg8IUzdRfOjmFcZE/NR8qZmrKpakJ/0k7h8NhMBi0Wq1cLq+oqBCLxUKh8CRsoAAoEC8FhEKhWCyuqKiQy+VardZgMDgcjugRLyYpBQAahKQTCKMmk6m2tvYMuykUCp1OZzQarVary+Xy+XwxER4SBQVAgWAK+Hw+l8tltVqNRqNOp1MoFOjGrK2tNZlMwc4Y+7CANcr04gnH9O7HP0YdDodWqxWLxRKJRK/X2+32sW8QKAEoAArwFLDb7Xq9XiKRiMVirVabaPYpgU4ORvunmMZnp95qtSqVSpFIpNVqgZ68ixYCQIEEVcBut2u1WpFIpFQqrVZrgpQyBEYHppjGG0a9Xq9arRaJRDqdDjrsCXIVQjFAgWEp4PP5dDqdSCRSq9Ver3dY58Yi8sTCqMFgEIvFGo3G4/HEQk1IExQABeKmgMfj0Wg0YrHYYDDELdOgGYXHaBQm6PHE/ZjP1NfW1lZUVJjN5qBCQCAoAAokowJms7mioqK2tnYMC8/B6NLCrUsDc02CqKxzSgSMOhwOiqJUKtUYCg1ZgwKgQOwUUKlUFEWN1dTT0sItCJ2sh/FnsSRdyj7FNB6sUYvFIhaL9Xp97JoQUgYFQIExV0Cv14vFYovFEv+SZBVuQQ5hFO9msQuekh6jXV1dQqFwzIdO4t+ukCMoMAEVMBgMQqGwq6srznXH3Fwa4CkOSfpOvcViEQqFRqMxzppCdqAAKDBWChiNRqFQGGebFEOT70lujDocjkSYwhuriwnyBQUmrAJoQU48x0n59MQhUcYoM9eUelncmpaiKBgPjZvakBEokFAK6PV6iqLiViQMTa6niHmKKZpjo/HEaG1tLczLx+0agoxAgQRUQKVSxW0V1CB6Fm3NKmJm6pm/yYtRg8FQUVGRgO0KRQIFQIF4KlBRURGf6WVEzKB/Y2CNplwaaxG9Xq9YLIY19rHWGdIHBRJfAbPZLBaL4/C0aFCAxswajT1G1Wq1RqNJ/AaGEoICoEAcFNBoNGq1OtYZjSuMWq1WkUgEz8vH+qKB9EGBZFHA4/GIRKJYvwtqXGFUqVTqdLpkaWAoJygACsRBAZ1Op1QqY5rRsqKt2HGQmmRjow6HQyQSwbvvYnq5QOKhFIDh+FDKjHm4z+cTiUQxXUaKGbqMmZ3fQrokw6iW3ca8zaAAE1MBwGgit3us4bCsaAt2JEOXFTEfEYn2utFYTjGJxWJ4j30iX8rju2yA0URuX7vdLhaLY1dCzNDs1VuxH3mSCaMmk0kikcROJkgZFAivAGA0vD5jflQikcTui3jZq7eyAEV/ByzTJLNGa2tro/Lop9/vD9rePT099fX1oY7SNN3S0tLT0xP03Kampt7e3qCHRh/Y2to63PfZNLMbJ2ubzabRaMKPH5lMplCw0Gq1oQ7RNN3T0xPqBTEmk6m1tZVTmGTcDVP9ZKzO+CuzXq+P3UNNCKMBmA7GKH7j8kg9c1NSsGPGB2L3nfozZ86Mvkff0NBQV1cXlJUdHR0URYWZv6qsrGxvb+dffM3NzRRFNTc38w9xQpqamtxuNydwyN2qqirO4gSv19tJbEajsa+vD6fjdrulUin/J6ehoaGysjJMBWmaVqlU9fX1OCnSI5FIwjwu0tTUVF1dTcbH/sbGxqqqKrybvB7AaIK3nd1uP3PmTIwK2Y/Roq3ZRVv6HWufZq/eKhgpPfGIKmboXJxULKrhcDiiIlBPT09lZaVarUY0qa2tpUJvDQ0NNE37/f6urq7Ozk6KolpaWrrYDdextbVVIpE0NjZKJJLwJLXb7VKptKqqKrw9iFPGHj5G7XY7p9Q1NTU4fktLC+coRVGdnZ1SqZQfLpPJ8Il8jKpUqra2NhQBMAoYJS+VxPSfOXNmuPdXhBUhrVGOP2kwajAYFApFhBUOH81ms8lkMoRIt9vdF9ja2trQJwoCAX1okb/H4+HQBw3R+ny+hoYGqVSK7q7Ozk6JRKLVaknDkFOS3t5emUxWVVU15OMDLpfLEtjkcnldXV1gz+L3+xFGUUYej0cikbS0tKC8+vr6Kisr6+vrm5qaKIoym8097KbRaKRSaXd3d319PfKgcM5YBMcaraqqwr8NJEYtFgvHqgVrFOmfCH8bGxtjN0SYCBUMUwaFQhGmzxTmxCEPcdBJ7iYNRrVaLadjO2S1w0Sw2+2oc93V1cVBJLlL9v2bm5vJ9b1ms1mhUMhkMhJDvb29CoVCKpU2NTWFAmVvb69UKh3y2TWj0UiWhPR7vV4So+3t7RKJxOVyofqqVKrKyko3u0kkEjQKYTKZKIpqamqiadrtdldWVoYarBwSo11dXeiTOJzxDQ5GyTHWidap9/v9Wq329OnTQqGwqqpqBMM4YS7dUIfefvvt//znP+jok08+efz48VAxx3e4TqfTarWxqCPLzS0kPbE/aTAql8tDzWCMRjK/3+8LbO3t7RRFeTyeQICPTFmj0TQ1NTmdTo/H43Q6EQolEgkJOOTX6XRVVVVhbFI0lhq+OkajEXe3a2pqkLHZ3d1NURQHoyqVCr9hwO1219TUoJTtdrtSqUS/zC0tLQqFAr++Qa/Xkz8JNE3bbDZORZDtj61Rt9stkUjQsIBSqaQoCmG0r6+PcyJFUV1dXUqlsq6uDgk4oTCq1WrLy8tfeOGF999//+OPP37jjTd++ctfnjp1iryWYuH/6KOP5HI5SnkiY9RoNGIdoqvz8tVbQ7noYrR/nDS6pUepVVRUjPKZWY/HYyQ2BFAXsaFOvdPpJMJc2CCVyWRdXV3V1dXIjkOUtNlsVt7mZ7cwItTV1VEUVVVVxekXk6dEiFGn00lRVHd3Nz4XF1iv15MTO729vebAZjKZurq60B6ylTweTwe7KRQKpVLZ0dGBeoVVVVX19fVo7AJ9eBW1gkQi6ejooGna5/OhE9VqtVwuR/6+vr6JidGampo9e/bgXzXUKFar9ZVXXhEKhbiNUJ8gVOv39fXhRqRpGvczyNO9Xm+o7g5N0+Ex6vf7gxrIfr8/zG9/JKUiS0jTdJ/LhX+5OYfQbm+vNWj4aAKtVmuMXqEZlKErVm9bvjoKr20mp5jmpqbMTY3N8nuxWBz0eopccY7B5fV6UVeXb0yRIWhtgM1mk0gkXq8XY9Tv9zuIDV1kKHJ9fX2Y0RmfzyeVShUKhUQiCdWzpmk6Qozq9fpQQ8YcjDY2NpL1wn7OtAnZqbdYLJWVlRRFVVZWNjU1kWOjGKNYf06nnoNRnB1KDZ+VXB6OVpzC2+32PXv24KGnnp6e5uZmBCyn0/nUU0+h8Z/e3t4//vGPZWVlP//5z//xj3/s3bv37Nmz33UIHn300WPHjj399NNlZWW7du36+uuvq6qqHnvssbKysieeeAKv4zGbza+++uqOHTu2b9/+u9/9Dk8A/u53v/v8889RkUJh1Ol0vvXWW/fff//27dv37duHx9Pdbve777774IMPlpWVPfXUU+SKiwhLxZEC7VKVVVSlwu5wBD1a39hUQcmiTlKXyxWjRfgrVm9h3dYVrFm6YjXjQW70y+8HYTSFwejcoKqNMlAoFIb69R5uymjOPfzvJCdNvV6P3rSPMYrMQEwHhUKBQmiaVqvV+ALlpEPTtNlspiiqo6Ojvr4eDWLy40SO0bq6upqaGtJ4qa6uxqXCnqqqqsbGRvL2oGkaDbBy0IAxikxmiqLq6uqQViRGKYriDEqEx6hMJkOGakdHB+fEoNVPzECOVpxCnjhx4u2330aBQqHwscce+8Mf/rB79270Y3n06FG01OT111//1a9+VVdXZzKZDh8+XFZWhsJ37NhRXl6u0+lMJtNbb721c+fOvXv36nS6zs7OgwcP7tmzB6W8d+/e/fv3o5nDAwcOPPfccyicRCfpJwt58ODBp59+urGxsbu7+9ChQ3v27EHm56FDh5544gmNRmM2m48ePbpz507U1aBpOsJSkblgPwJlUJKiQ4oa1bBuQ5xyGI/P5+MY/mEiD+vQijVbB1wAoLHCaEpsMHry5Mlh1TlMZA5Ggy4DQvjAichkMowkZE8haKKLwGg0Ro5RrVYrlUq9Xq/T6UQrpXAupCfCKSaPx8NZDtXd3d3Z2Wk0GqVSqUwmQ6tLzWbzcDGKqCeXy4PO1KMVVGSBw2OUHF4gz0ouf3iM7t27F3XnGxoaHn30UfTdyqeeegrNeMjl8kOHDvX09Gzfvl0qlaKK+/3++++/H2MUL+nr6OgoKyvDg+MajaasrKy3t9fv96tUKvwMSGVl5fbt25HBS6KT9GOFu7q6ysrK8Ji42+3et2+fTqdDRSKfD9y3b99f//pXdOKOHTuGLBXOgu8JStLYMRQVIIqsIGu0ksToYH/0rdFkxGhra6tz8FZbW4tnSJBt2NnZaTKZ0FhhV1cXwqjD4XC5XGgxViTWKBpYwDOJaLVp0GcKjEZjZWVlN7spFIqGhobu7u7W1lb+FFNXV5dEIuGslUPTZRKJBD/+NIJOPU3TeIqJpmlsjXq9XoqiOEtqJjhGfT7fjh07kHH35ptvfvzxx+gO3LVrF7K+6+vrDx48qNVqy8rKSOlIjH7zzTforO7u7rKyMjzG2tjYiM9yOp0nTpx49dVXn3/++V/96ldlZWWo6Ul0kn4Mgurq6rKyMpvNhkOQR6lUfjeMQH6s+OjRo7/5zW/Q0R07dkRSKk6a5C6HpLFmKE3TscLo2i0r124ZMEgJkiYNRmPXqZdKpZy1O6hjTmIUXxaj7NRrNBoSeS6XSyqVBv0wX4Rjo6hgJOzQ8wJVVVWSwIZI2tjYiExm/HthsVjQwlJcO7z83m63IyOUTBlj1Gq1UhSFbSJ0OsJoT08P6q5yxkbHvTVqNpsffvhhJMUvf/lLNGDt8XjKysoQWzUaDcYoOSU4XIy+wG7fMbGtre3UqVORY7S2trasrIz/m61Wqzl4PXr0aHl5OarL6DFK0zQmqUbbWEHJYtGXx9dw7Dr1OWu35qzdunLtVtIsXbmG2U0ajI5+igkLPYJOPTrXZrNVVVWp1Wq08gkZhshWjaRTj0ZF8RQESrOJXSSPbUZcyGFhVMNu+NyOjg6JRFJfX19VVaXX6yUSSYSder/fr1Qq0bRSVVWV3+/nYxSNvSoUCnJAFq2UROMecrncYrFMNIz29vY+8MADqAkefvjhxsZGmqa/G125//77UeCpU6eOHj3a09NTVlaGB6k5nfoh7T6TyVRWVoYvIblcHjlGUace94T8fv+//vWvjo4Oi8Wyfft2XCSapl9++eU33ngDFTsqGMUkjTVD0cKGGE0x5a7dhkjK/t2Ws3YbYmg/RienXBr6dXncGSTiCfogh2I3Uz/6BU+YMhijFosFPX4e3hr1er21tbV4CLW2ttZoNKIuPB4wHRKjNputsrJSJpNx1ql4PB65XC6TyZxOJy5h5FNM6BQSo263WyaT6XQ6PFOvVqvr6+vDd+o9Hk9LS4tcLkcrsdrb2xEl+Rh1Op0OhwNP93k8Hr1ej8aOFQpFR0cHOnGiYfS75XT3338/svXKy8s///xzn8/31ltvoZ6+y+Xau3cvmlX/05/+9MwzzxgMhr6+vqNHj5JTTENi1OFw7Ny58/3337fb7Y2Njc8++ywaM+UsciI79VKpFDGdpumDBw/u27fPbDZ7PJ7jx48//PDDqI//1ltvPf300+3t7R6P56uvvtq+fTumbbQwStO0Tt+i1jZEfU6JvGtomo7dgqfctVtz125j3dZc1jLNYcC6LQdZo0mB0Sguv0ezN3V1dRKJpLu7G/MRMxF5yE79d0NabW1tDoeD06mPcGzU5XLJ5XKpVEo+8oSbv6enRyKRKBQKcjUfGhu1sBsaG7VYLGhlK15+b7FYTCaTwWDAj/P7/X60fhPRDXWl3W631+sN36l3OBwcgKLikRh1OBz4N8DlclVXV6M1thKJpKamhhzvo2l6omEUGXFookYqle7cuXPXrl1ffPHFG2+88etf//rJJ5/EA3Zms/k3v/lNWVnZjh073nnnneF26r/99tuHH374u274o48++vHHH5eVlSHkkegk/c8999yRI0dQa/b29u7fv3/79u07duzAc180TTudztdff307uz322GNoARY6JYoYRQnG+m/slt+zGGUAihy2SXPWbmM69UmB0Sg+DKrX6ymKws/CS6VSg8HgG7ypVCoSo7jtORglZ+r9gdXLnAVPZrNZJpOhnjVOh+NBc0dyuRxzNpKZevQkq0QiUavVqCTo8So09IatUZTXkDP1JpOJ7Kejs9CwAKe06DefoihkQfNnLSYmRiUSybPPPosawu1240k/i8XCX/JssVg8Ho/NZisrK8NrQvk6Bw3x+Xycgemg0VAg7jfgOA6Hg5xQwuFOp7O7u5t/DeAISeGJ3cOgebduzbt1W96tDEbRX9YyLctdW5Y0GI3Wq0nQE+UymQw/ExV0iokzU48voKAYbW9vJ9fA19bWonWjfr+/oaGBoiiZTBZ+rQx6mSlFUfjpeHJsFOce9GFQfBR58N3Lx6hCoeglNvT0QfiCKZVKzGickd/v1+l0lZWV/FvO5/OhJ8XQ01DIr1KpZDIZ8qO/pN2Nk018T3itaJp+4403Xn31VfxbiJ5W4qj09ttvf/755319fTab7S9/+cvu3bvDPDuU+JokWglj92qSvNu2rrqNAWge+nvr1rxANz9pMBqtF+XRNN3Q0EAORJIY9Xq9uI+Pnw8hLxQ+RjUaDUVRqGOlVqsRCvGvfVtbm0ql4hsjZJrYbzab8bs+nU5nZ2cnPoQ8fr8fdavJV5Nw4uBdPkY5oxZoNzwa0MKpoCfi9aQ4R5qm+W/DCnouCRry9AT3h9cKPRp7/Pjx3bt3//GPfzx06NBrr722e/duznCHTqdDnfqysrLnnnsOvS8mwSueRMWL3YvyVt22jXUMRhme9sN0W14Sdeppmo7Ka5v5F4TJZCKparPZent7Q4GvpaUFdZlRx8rv97tcLny6y+Wy2+38bhQ/01GG9PX1aTSa8DZdZ2cneYu2tbVhRqPc+/r66urqsFUeqkh9fX3d3d3oLavor9ls5q+bCXX6eAofEqOosm63G70PTKfThbqQ7HY7GKFRvzZi+trm/HXbVrEADfxldtlufvKMjdI0Ha2PiES98SDBCaJAhBidIGokYDVj+hGRgvVl+eu2Fazblo/cbdvyGfuUsUyTplNP0zR80i4BL9wJVSTAaII3d0w/aVe4vqxg/TbWlfXDtJ+kSWWN0jQNH1hO8Ot4fBcPMJrI7RvrDywX3l5WuH4bC9OywvWMY+zT2xiXTNYoTdNadkvktoSyjWMFAKOJ3LixhkMAo9tYmDI8RSQtWJ9sGHU4HCKRKA5zOIl8uUDZxkoBwOhYKT9kvj6fTyQS4dV+Q8YfQQQeRvtJWph0GEXruvEzxSPQAk4BBUCB8aeATqfD7wCMUe0Kb8d2KOlhbFJB+Gfkh3WUfaB+7pTYvP0eS2O1WkUiEX4qEYeDBxQABSamAh6PRyQSDbl0b5TiFK7fyrptg83SssLbkxCj6C12+FWMo5QGTgcFQIFkV0Cj0Qz5qd3R13EAo+sZdJIu+azR715m4/V6xWIxDFSN/sqAFECBZFfAbDaLxeJYvziKpukARpFNOuhvUmKUpmmDwRCj7/8l+1UF5QcFJpQCFRUVYb4gGUUpxiFG0UNNQd8bH0XhIClQABRIZAVUKtVw34814uoEMIrml8aFNYq0oChKr9ePWBc4ERQABZJXAfTGy7iVP4DRrUXrt7Gz9gMkTdZOPdLO4XCIxeL4mPRxay3ICBQABYZUwGAwiMXimC4U5ZRh9e3bitYPOEzVwvVbkxujNE1bLBahUJi8nz7nNBXsggKgwJAKGI1GoVCIX0c5ZPyoRFh9+7bV6xlXxKx82jauMErTdFdXl1AoBJs0KtcKJAIKJLgCBoNBKBTyvwIZ62IzGGVd0Xq2Xz9A0m1Jb40i7SwWi1gshnHSWF9JkD4oMLYK6PV6sVgcZzsUVZm1RsuQNVp0OyIpMzxatH68YJSmafRRNpi7H9urHHIHBWKngEqloigqnuOhZF1Qj57F6MAIKRotHSfWKK5tbW1tRUUFrMzHgoAHFBgHCpjN5oqKiritbQqqGDm/xPFHAaPoUXryb9BCxC0QTeFpNBp47j5umkNGoECMFPB4PBqNJhEW5ATmlLjrRqPTqScBivwxEjTyZL1er1qtFolEOp0O3qoXuW4QExRIHAV8Pp9OpxOJRPxv045JIQvXsQtF120rZByarO+frx+H1iiW2Gq1KpVKkUik1Won5ifYsBTgAQWSSAG73a7VakUikVKpjPV7myKXpWDdVhag2wrXlTEeZqa+341njCKBHA6HVqsVi8USiUSv1wNPI79uICYoEE8F7Ha7Xq+XSCRisVir1Y7VVFKoKhfcxnzPrqDfGh1E0vGPUSyKyWSqra09w24KhUKn0xmNRqvV6nK5oOOPVQIPKBAHBXw+n8vlslqtRqNRp9MpFAp0Y9bW1ppMpjgUYARZ5N+6Nf825JhvgjJUvW0rchMIo1g4h8NhMBi0Wq1cLq+oqBCLxUKh8CRsoAAoEC8FhEKhWCyuqKiQy+VardZgMCSa7YlxgT0MRrFjvwmKqFpwWzTWjSbgFBOuOXhAAVAAFIiKAnlrt65iXf7abQM8ZcAKGI2KwJAIKAAKjHcFMEYRTANIZUzUidipH+/NDfUDBUCB6CuQt3YrdiRJV60FjEZfbUgRFAAFxqECmKHIQ5IUrNFx2N5QJVAAFIi6Anlr+q1REqDIDxiNutqQICgACoxDBRBG+QwNdOonz01BLmUu/8P0/In4IUPGoYRQJVAAFJjYCqxas4Xszuev3YaRylijHCySJOUcinB3YqsNtQcFQIFxqMCqtVswN1et3cosewqQlO3UB6zR1MkMUgGj4/ASgCqBAqDA6BRYtWYLh6SYqoDR0UkLZ4MCoMDEUCB/7Zb8NVvyGTuUWYfPtUbJrjppivL7+2TMMP6JoSrUEhQABSaQAvlrSlmMIpIyPXpM0sHW6OAePWB0Al0jUFVQABQIqwCL0VLGJg2YopikAmYwdPKlyKWmMJ7UFNJxJ6DCGKH4UNjCwEFQABQABZJPAQajDENDYBRzc8oggCKYAkaTr72hxKAAKBB1BQoGMNo/Qspao8xQqSCFnZ1PTZk7JeVSFqMj4Sa2Q5En6hWABEEBLJC6xwAAIABJREFUUAAUGFsFCtaUFvRbo1sK2IkmwOjYtgjkDgqAAkmmAINR5Ngp+wBJwRpNsnaE4oICoMCYKVCwpoR1pQVrGbO0YO1W1jhlMYq64ahHP0E69fD2+3i94xzyAQWCK5CMb78v7MdoCcJoIUPS/kFSZqY+Wm4KM8DKuDH7vQibMXyLKaw8cBAUiJ8CyfgtpsLVxYVrigsYV1IY6N0zZumaLeMfo/Bl0PjdHJATKDAKBRL8y6CFq4sLkGPM0oFx0oK14xqj8J36UVzScCooMGYKJOZ36jFGmd79aoakjE3Kdu3HpzXq9XrVarVIJNLpdPDx5DG7GyBjUGAUCvh8Pp1OJxKJ1Gq11+sdRUrROZXp1LOOsUlZa7SQIemWgjWl4xCjBoNBLBZrNBqPxxMd/SAVUAAUGCMFPB6PRqMRi8UGg2GMitCfLcYoa5ayBunqkoLVpQWrxx1Ga2trKyoqzGbz2CoOuYMCoEAUFTCbzRUVFbW1tVFMc7hJFa7e3E/SIjRIikg6vjDqcDgoilKpVMNVB+KDAqBAUiigUqkoinI4HGNS2sKiTQxJizYXrt7cP9cU6N2Pk069xWIRi8V6vX5M9IVMQQFQID4K6PV6sVhssVjikx2ZC4NRxm0uKNpcgEnKDpKOB4x2dXUJhcIxHzohFQc/KAAKxEgBg8EgFAq7urpilH6oZMczRi0Wi1AoNBqNoSoP4aAAKDDOFDAajUKhMM42KcYo06lnDFJmhLRwHEwxORyORJjCG2fXKFQHFEh8BdCCnHiOkwYwuqmgaFNB0eZ8xhUzC0hXlyR3p56iKBgPTfwrHkoICsRCAb1eT1FULFIOmuYARgv7McoapBFgFD8mH8lz9zhy0EJEPbC2thbm5aOuKiQICiSRAiqVKm6roAoLNxcWbkIunyVpQVH/gvwhrFFMxkTDqMFgqKioSKL2hqKCAqBALBSoqKiIz/QyC9CNBYUbCwo35TNuc37h5oKi4vzCzUmJUa/XKxaLYY19LC5KSBMUSC4FzGazWCyOw9OiBYWbWIZuzC/YmF+4kSXpJhajxUmJUbVardFokquxobSgACgQIwU0Go1arY5R4jhZBqMFG/PzN+Tn9zOUJWlyWqNWq1UkEsHz8rh1wQMKTHAFPB6PSCSyWq0x1YGhJ8NQBqOrCjbl97vN+QVJ2KlXKpU6nS6mekHioAAokFwK6HQ6pVIZ0zIHGMpgNI91q/I3rcrfnJe/WYAnkaLoiV1lHA6HSCSCd9/FTmFIGRRIRgV8Pp9IJIrpMlLWGt2I/rIA3cj+3ZSXvynJMKplt2RsZigzKAAKxFSBWMNh1aqNq1ZtYN3GvFXYbcpblWwYFYvFdrs9po0BiYMCoEAyKmC328VicexKnpe3IS/vPvbvBubvqo15eRvz8jbl5iUVRk0mk0QiiZ1MkDIoAAoktQISicRkMsWoCrl5G4K5jTm5G5OpU19bWxuVRz/9fn9QoXt6eurr60MdpWm6r68v6IlxCzQajXFY2BG36owyo87Ozt7eXpyIx+Opr68nQ/ChUJ6Ojo62trZQR8nw5uZmfsyenh6tVutyuciY4B9DBfR6feweasrN3Zibu2Gw25ibuyk3uTB65syZ0ffoGxoa6urqgrKyo6ODoqhQ81cGg6GyspLzUhm1Wk0N3jo7OzmXUW1t7eAoIfcqKys553J2zWYzRVHhF3aYeJvdbrfZbF28rbOzM3nXjbndbqlU2tTUhCXy+/0ymWxYqzgaGxslEonT6cSJBPW43W6JRNLc3Mw5WldXJ5fLOYGwO4YK2O32M2fOxKgAuTkbgrmNOTkbomiNXjIlpd/FohoOhyMqAvX09FRWVqrVaoTL8IxraGjAdfH5fCqVSiqVkvaOWq2uqakxBjaKooJiVKvV+tjNYDBIpVLk9/l8Uqm0o6MD7er1ehKjzc3NIXEb7AC20yUSCee4Xq9vaGjgBKLdmM5sYuli4WlubpZIJBxLUKvVVlVVBc3ObrcHWmngf2trK0VRGo1mICjgI5VpaWnhq+d0OvlSo9SCFgAC46PAmTNnyLaLYqY5ORt4bmNOzqacnGh26mOLUYPBoFAooiKKzWaTyWQIkW63uy+wtbW1oU8UBAL6OMaaz+errq6WyWT4yTOVSqXVanGpwmAUxWlvbydZKZVK8ZtSm5ubyUNol7Qgm5qaTCYTGYL9UqkUYxRlVF1dHd4uM5lMFEXhiuAqIE9vb69EIiGrhiP4fL6WlpaamprKykqJRCKTyfChyD0dHR0SiSTUAMWQWfh8PplMVl9fz8nRZDI1NTUF7WogYvJpGCoEP6btdrtlMplWqzUajRRFtbe397BbXV2dTCazWCw6nY6iKJPJhMI5HSatViuRSMifXk6ZYTe6CigUCtx20U05Z+UGxnFhujGZMKrVasNzYViS2e12t9tN03RXV1eoG4miKP4N6XA4SGApFAqyVKEwGiYL8hAHoyShXC5XVVWVQqHo7u5GNe3q6mpqakIcrKysJEvl8XjQjU1q0tjYSI7uIbuYjID9brdbLpcrFAo+ZPv6+hQKBfrmVXNzc2tra2NjIz4xQg82tINiNJIs0A8eAlZQkxCril+80NraKpVKIymh1+ulKArfioiDaFi8uroasRuN/yA9fT6fXC4PpYPX61UoFHK5HF1vkRQA4oxGAZ1OF/TnfzRponNzVm5k3YaViKf9f5nApOnUy+VybLiNXhGcgt/vx13s9vZ2iqI8Hg8OwdGCetBH9MiZwaAYxalhT0tLi1Qq9Xq9OAR7cEbt7e0qlQpxvK+vz2AweL1e1JNtb29HixbwrVtbW4tve/zbwDGlq6urSdTq9fpQ/d+mpiaKojCAcJFomq6trZVKpRjl5KEI/fX19QhSUqk0KEaHzMLlclVWVuJByfawG54VjASjSG0Soy6Xi7T0W1tb5XK53++vr69XKpX4V9ZgMJC/phwp0Ig2OYzLiQC7UVTAaDTiayOKydI0nbNiA3L9GGV3V7J/kwajFRUV4adWhpTM4/EEBr6Y/wigLmJDNo7T6STCXH6/3+v1MiewGx769Pv9SqWyqqqKnJJCkx69vb14Jqqurg5bRpF4yHkMv9+vUCg6OjosFgvugHd3dyOYotuyra2N04ukaVqn09XU1HAEkcvlpDVaX18fdE4TTd3wT6dpuru7m6KolpYWTsrD2m1qampvb6dpOminPpIsNBoNRVHkreJ0OjnXRm9vb3t7O9k0vb296JcG9cFDtYXBYPD5fG1tbTabDdXL4XCgdLq7u1UqFR53I3+lXC6XWq0O03NXKpVSqRQM0mFdKiOLbLVaY/QKzZUrNqxcvmHlivtWrLgvgNT7mMAVyTPFJBaLOfMJw1XZZrORN4/X60Xjg2Qg32+3251OJw5HHW2r1VpdXV1ZWcm5exsaGlAfE/fH3W63k7fV1NRotVpeMBNA3pxtbW1SqbSvrw9jtK+vD0EE0dbj8ahUKrlcju9tpIlCoVCr1d2BDQVKJBL8G0DTtEql4o8t0jSNTHLStsU6I0NylK2AU6Moim+NDpkFGuKUsxtOqq6ujpOUXq+XSCTYWsQxaZru7e0N/CYO/G9sbKQoqqamJgzpqqurq6qqgqaJrpAwH1kzGAxoXJUsCfhjoYDL5YrRInyGocs3rFiOMHpfDgNTBqM5w8HowAwSnpEP5YmFOkKhkDQuRpNFZ2cnNu6GlU5LSwviY19fX1NTU5hbLnyycrm8tbU1fJzu7m6JRIKiIYw2NzdLpdLq6mps9ajV6tbWVmQUY/4igw5zHz2w4HK5KIrq6enBmSoUCrKPj8OR+czhMjpaXV0tl8utVivqd0ulUpVKRaaJE4nEExSj4bNAC480Go1OpyOt0ebmZnKXpmmtVltdXR1JMWiaNhgMEolEo9Hwx4JxCmgwtL293Wq18laUmdBvj16vN5lMQUc80PhPXV0dThA8MVLA5/MJhcJYJI4wunJ5f9e+v4O/YuPKFcMYGx1jjJ48eTJa0nAwKpVKMXRID/+ixxilaZq/YhSfy7+B0SSvNPRGURTHllGr1Wik3G63I1tJKpW2trZiawjNILe3t7tcLplMhl7A6vf7a2pqKIpC5ip+7qunpwcXj+PhdO0VCgU500VqXllZKWO3+vr69vZ2tJaAnIbu6upSKBRSqVSpVJJDxkF/M4JidMgs9Hq9x+PhYBT1KshfNWTvk4UP6ne5XOgnAY0zBI1D0zSac0NTjshe5mhI7oYaca6srIzWUpNQ5YRwpEAUWUFKGujIMxhFRijrAYyyIiE8cbrYtbW14TFqsVhkMplarR7oGRqNHR0daHiUVJ+maaPRGOYx1qBdQpvNptfrq6urKYqSyWRVVVXkvYr8eP7XbDYjbiJTVCaTcTDqdrvRchzOX6VSyalmmLsdjVeQIwNWq5WkIVoj1dzcjIpdXV3d0tKCZro5gtA0TZ6Ijw6ZBYrJwSiy9UgzsLKyMpIxXCRX0Mk0XCS/369SqZDgOJDjCdqCnDgKhQIP9XAOwW50FYgDRjFSVyaXNRq7Tr1UKuUbI2q1msMXmqZJa5Sm6dbW1srKSnKsEHUP8ewwvjiQNVoVYpPL5Rxr1OPxyGQy1NPs6urysxuaSLEGNrvdzh/l8Pv9TU1NSqWSg1FcEo6npqYGT/ejQxKJJOj8EpoU4ptaaIwYnUtanSaTCc2rKBQKjqGNIofCaPgs0LkcjNI0LZVK8QRaX18ff6XBcOf60LJiv9+PBqPRX5R7b2+vUqkkjd9IMFpTUxPmpxSlDH9Hr0BMO/U5yzf0OzRNz8w4JZU1OvopJtxCUenU0zSNFgziRWqocx103mZk1ih5o6LC22w2jUbDxzSuGvJEjlG5XM6x2sJYo2gxKScvlUo1MjoExWiEWfAxqlAo8O8BWgtM/rzRNG2xWDp4G1rapdfreUc60Jiv3+9Xq9Xt7e3ohxDV3ePxyOVy8lc2EoyGGS3hSAq7o1EgplNMGKMrl9/XP1SaXBgd/YIn3DYYoxaLBa3vGa41arVa0ZSO2WyWSCRowK66ulqhUOCpHpwd6tRTFFUVeuNYo/jcpqYm0pRDnVC8FgctEeW/9JuD0d7eXv6AAJpkk0gkHR0dODuapquqqkKNjWo0Gv7zl1VVVZzpHTK1MP6gGI0wCz5G1Wo1/to2f8YpVDGQnuFnydBgNIlRvDIXj/9GgtEwv0+higfhI1AghguesCnKTtkjjOas2JgTmGIaxvRRqNl5MnwElR/ylCguv0e3RF1dnUQi6e7uHu4UU3t7O0kftASnqqpKJpOFesnFCKxRJIhMJiPn0/kYRXPEHPWUSqVWq0UDphKJxOPx4MdGSQ9aAcaBCOq9Bq0Imskh3zPAD+GUJMxuUIzyE+SHoIWxHHY3NDTgCRwNu4XJGh+KBKMoMgejNE1rNBqc45AYRRFIAxaXATzRVSCGy+/76cnYoYRZyqyCQsvvkwCjUXwYVK/XUxQllUrR3IJUKkWLrvGjROgtJPyLHr/gQ6fTISPF7/cjqqJVh6SdSF4c6CasCr2FskZHjFFsfobpcaOSc1b5oBWOQdeN0jSNRhjRQiu0SFYul3O6z2TFw/iDYjTCLPjWqMnErDpC2clkMnKUNkwZRoNRp9OJl4UNiVFYNxqmFaJ7KIYPgw4yQvtJimzSpMFotF5N4na70aoavHI+6BQTf6be6XTKZDL8MhG3293e3o4eMK+rq2tvb0eTQvX19fgRJpqmPeyGHzNFu5y/yCpEr63jjAmglUx4MQD6AWhpacEhiOycCxF36jnhaBc97erxeJTsxomDHn/kDxSgaH6/v6WlpaqqSiKRVFZWoocIOClEuBsKo5FkgTHa1dXFGdZEwGpqasLheIkYv2BoFJVjj/Oj4WGZoIdomrbb7fxJLTIymm0b2e8NmQ74h1Qghq8mIYxQZqae2E0ajEbrRXk0TTc0NJCdVhKjXq8X9/HxzC9qOafTWVVVhZa+d3V1oaU5SqUSr7Nxu90NDQ3o9KqqKgTEoAuVsKnI93DWxMhkMn4cfgjn2kLPj3IC8S5ahUpRlEQiIQdeORFwvXB44ngwRtEiWb4gZAjH3KZpGi2nRS1VWVnJ+ekKWk1+px498SVhN4qiKisrQ039IZsXz4AFTR8Co6VADF+UR3AzWTFK03RUXtvMby2TyURS1Waz9fb2BjUc8AIjn8/X3NzMf5gdmZ/t7MbPKBYhXV1dnPXzQ+bicrks7Ba0jjRNu1wuuVxeXV2N6ztkmnGO0N7ejhdIjCzr9vb2jo6Orq4u/nKIoAna7XbOzypqa2Tzms3mUGKilyuOeOgjaGEgMJQCMX1tM2l+cvyRWqNTUy4Z0uFZplCVHGV4tD4iMspiTITTe3p6JBJJ0MVbE6H6UaxjfX29RCKJZNwgiplO2KRi+hERBp3sclFkiuYGjNNcZopp8iWRuCEZSkaIUSviRxtjlD4kCwqAAkmtQGw/abd8Q27A5Sy/D2EUhSQTRmmahg8sJ/VVDoUHBWKnQKw/sJyTPTCthOiZE6BqkmFUy26xawlIGRQABZJUgVjDIXfcYNThcIhEooSd+kjS6w+KDQokuwI+n08kEuGVvLGozvjBKE3TSqUyzAcbYiEfpAkKgAIJroBOpwu12DlaJQ9g9D40MMr265kR0mhOMU0jpvKjVe6g6VitVpFIFMlav6CnQyAoAAqMMwU8Ho9IJMIP1MSodoMxel/u8vtys9m/y+9jxkbJSfao+GNUDZysWq1GbynGIeABBUCBCauARqPhfEUmFlLkZf8sb9nP8pbdlbfsrpxld+Uil3VXbtZdSYlRr9crFovDv203FjpCmqAAKJBoCpjNZrFYzH9WLerlzF68PnvxOsalrVu2OODSbluWdltSYhR9PydG3/+LuvqQICgACsROgYqKilBv0olupunXr0q/Pi/9+rzFpLsub/F1ecmKUfTNdPyKyejqBamBAqBAUiigUqmG+zD0iOu1eMGK9AXLGbcwe7BbnsQYRd/zIV/HOWKB4ERQABRIOgXQC8/iVuzFC7LTF2Qzf1mMDngWZic3Rh0Oh1gsjo9JH7fWgoxAAVBgSAUMBoNYLI7pQlFOGdJZjDJ/B1ujixdkC6amXDItam7OtBTGcbKP6a7FYhEKhUajMaa5QOKgACiQOAoYjUahUEi+2DcOZUtfsCzgshcvWIYcCkl6jKIP4wiFQrBJ43AlQRagwJgrYDAYhEJh0FflxrRsAYYyMCUxunhB1njAKPruo1gshnHSmF5GkDgoMOYK6PV6sVgcZzsU1ZqlZ9biBcgxJMVgHScYpWna4XBQFAVz92N+oUMBQIEYKaBSqSiKiud4KFmRJYwRijGahTE6fqxRXNva2tqKigpYmY8FAQ8oMA4UMJvNFRUVcVvbFFQxHkYZpI6fsVFOndEUnkajgefuOcrALiiQdAp4PB6NRpMIC3KWMNAkrdF+hqYvWCZAc+tD/508Z9rQ7pJpkxk35k3l9XrVarVIJNLpdPBWvTFvDigAKDACBXw+n06nE4lEarU6Ds96DllCPkZxH398YhQpYrValUqlSCTSarVBPz83pHAQARQABeKvgN1u12q1IpFIqVTG+r1NkdeOxejS9AVLFzNukFkaTYxOnTQHuchLFoeYDodDq9WKxWKJRKLX64GncdAcsgAFRqCA3W7X6/USiUQsFmu12rGaSgpV8vQFDEOR68fo/H6YRgejGKAJiFEsislkqq2tPcNuCoVCp9MZjUar1epyuaDjj1UCDygQBwV8Pp/L5bJarUajUafTKRQKdGPW1taaTKY4FGAEWSyZz8Moa5OmL8gaFUY59GR2J18yNQHGRsNr5HA4DAaDVquVy+UVFRVisVgoFJ6EDRQABeKlgFAoFIvFFRUVcrlcq9UaDIZEsz35DBkZRi8ZNO8UbH6JxCgzAcU8VDp3WspcfgkgBBQABUCBpFYATTEN6tQPskb5iEy5ZMh5ecxQFqADDAWMJvW1AoUHBUCBoAosWZDFkJTp2mctnr908fysxfP7F+SznXo+RiMImToJL4HqN0Knp16KXNBCQCAoAAqAAsmrAIHRpQxGGVO0/3nQyDHavyYUrQxFnfdpKXOnsw7tIoaCNZq8FwqUHBQABUIpQGI0nV2KP/BMPTMAOtj2xL31QR527mjqZPxWPWYMdFrqXIxOBqmsNQoYDdUMEA4KgALJqwCD0flLkUPWKIvRrPSF6CmmwRidNrl/+ecgvPa/k5SlJ0FMbJaSnuRVCkoOCoACoEBQBZA1imDKjo0yg6TpC7KWLFwmmMpj6CB64qPsFDwyOZERSnKT4w9aCAgEBUABUCB5FRiM0Ux2yp7FKLNulLU9sQVKTByhzj7Ti58eYChgNHkvAig5KAAKjEaBJQuW4n794vkIo4xBuoR5bTOzZn7A9Zuigc+KMDNIzABof1+esTpJP4FX0iAdTVnhXFAAFAAFElCBiDAaWGw/MImEAMrFaAh0AkYTsOGhSKAAKBAtBTJYwzMwxYStUcZEZTr1gU/aESZnBKwkuRnw9yM4WuWGdEABUAAUSBAFMEbT52cSnXqE0cATnExvPYyLCKyA0QRpcSgGKAAKRFkBvNopCEbZ0c9Lp6VyHA+pgNEoNwokBwqAAsmkwJL5mYikQTAa6I8P2aPHY6ZDe5JJGygrKAAKgAIRKMBiNJP5uyAzPYBUBqzsi/KGBCiKMDQ9A2OsY/8RkQg0gSigACgACgxDgQwGnTyMMquglgo4z8X3G6fsJ5X6H59H/sASKMzKMJ5hFA2iggKgACiQDApwMbqAMUtZF8BoGCYO59ActGoqGTSBMoICoAAoMAwFhsBoAJSBd5QMx/AMnIu6/IDRYbQKRAUFQIEkUiAwxRQYG+VYowEU9kMwsA6fszv02OiM1EtmpM6dkQpjo0l0bUBRQQFQICIF+jHKDIayU0yDMTo0H1nOcqgaZBe9e3Q6fEQkokaBSKAAKJBMCmQsWBowSJcyM/WBgdEl7BRTdDA6nX2DCSJpMmkDZQUFQAFQIAIFBjB6LWONBkjaP1M/WoyyAL0EMBpBQ0AUUAAUSFYFAKPJ2nJQblAAFEgQBQIYZZaOgjVKmx2tNR1fChve+Ltiz+tnS/Z/c+eL4nUvnL71hdNrwYECoEDsFbj1RfG6/d/c+frZkr8r9ggb3qjp+NLsaE0QXIYqRv/ae3YF/mgxSnThUUee/Nv/hbtQ5Rjb8Hrz2ePqF1795p5XvvnvP3790/5rRdyPzt8DQ0EBUCAuCgzca4G7749f//SVb/771W/uOa5+od58dmxBESr3uGG0H6mhyjEm4WZHq7Dhjf3f3Ln/mztfEK/9Q6DlYv+TC7YtKAAKDEMB5t4Ur0W3qrDhjUSzTweW3weeCs1YsBQ5QWDR6JATTf0rnMJao4mFUaOt8Wjt8y+duf0l8TqgJ/xsgALJosAfxGtfEq976cztR2ufN9oax8T84meaMT8zY/5S1vU/WZ+xIHMkGI2EodNTxn75vctrP1F34KUztyfLdQPlBAVAgaAKvHTm9hN1B1xeO59rcQ5hoBkEo5kZCzKHYY1GyNAxx2hNx5f7v7nzpTM/DtoqEAgKgALJpcBLZ368/5s7azq+jDM3OdmxticDTdJlLlyauZB5NcmQ3XkmAsvQOdNTwrux79QfV7+w/5s7/xCXkfLkuhahtKBA8irwh9PMmOlx9QsctMVzN2NBZibLUPQX7WYuyMxcGLE1Oj1lzoyhHDZX41k3nJfZ0foXavsrZ+4YmAcEmIICoMB4UeD3p9e+cuaOv1Dbx2rqiSEm4zICHrTbj9HwBmb/0Rkpl0TuMNri5mnpqUYT8cn7ewslBwVAgaEVYKfyW3qq48YWnBGXnowdmrF0YeZS1hpNeozquiuZ9fOnhrG0YujWGi+/4VBTUGC8KXBq7YvidbruSgy4+HhYOzQjc0HGUsZlMn8XZmQtzMi6junUJzdGW3qq2WeQgKGgACgwgRR4UbwuzjYpY3uyDM1akJG1IDNrYWbWdczfZcmOUbOjlenLgx0KtjMoMNEUOMVMOsVznHQpQ0/GLVuQsWxhZjbjMhiX7Bj9C7X9BXgqaaLdP1BfUAApIF77F2p7fHr0NE0HMLqEpWfm8oWZK67LWL4wY0VSY/S4+oVXztwx3sZ94A4BBUCBiBV45cwdcVsFlbWQtUMXMBYooufK6xiSMhgdailogs7UozX2sLYJfkVAgYmswO/Z9aTxWZnPYnRJ9sIlyxcuWc7QM2PFdUtWsn+TEqMurx3W2E/kmwfqDgpgBdDK/Dg8LYoxuoLpyC9hGbok5zrGJSVG2efl4VnPCTQti+8Z8IACfAVeOvPjE3UHYj1I2o/RBUsQRleyAM29LiP3uozkw6jR1gjvHOFfSRACCkxkBV46c3us3wWVtWDJsgVMp540RVmMJqE1erT2+Yl8uUDdQQFQIKgCR2ufj6lBOtCpvy5jBQtT1iANbY0Ge3w+IR4GNTtawRQNeg1BICgwwRV46cztMV1GunTBkqwFS7IXsNP0C/tJmnNdRs51GYLIn5SPPGbsfhOEDW+8xHw3CYYFQQFQABQYpMBL4nXChjdiB5//396bB7dx5Pme88cbydPttiXZlkQQxEUQAAEQxFlVKBSuwn0fxE0QN9BvXryIFxv7didm98VG7NuZ+eO529PjVrtblg9ZcttW+27fR/uSZLkl+Wr5kmxdliXf8inbkiViIyuBYhE8RZEySZUiA8pKZFVl/arw4Tfz98usVtxoP2oCUfeImfIyQWf9EsMocNCz8fbsXxHWAqwFJljgV9SqJQuHUTibHk5koiYvIQQgKWpdWmr04MndYOrnBPOxJawFWAuwFriWiiFduDfiYWA5EpCoCfWoSY4SchQEkCqwpaRGH9l/LTv1k/21XLgF/n1n9O1PnwePE/sneZlZYId/4SY1wYXy2l17BJcjJjlCAIwuqbHRDbt8wiF7AAAgAElEQVSybI+e/eVfuAV+szPWbDb3fHDvhR+KPcKissCvdvg37MouUL8eLpQHHU3GfgTvBySFgnTJqNGT3x3/za74orpnbGPO1wLfnfnqvB7x7858db6nmKr+qTNf7Hr/TvgtxOihk3uePbSJTs8cunGqfdnyJWSB3+yKL5C/HpMhmAyhMWrsN+BySFJk9hid+SUidJjUef1UZln5zY+f+Y8XE0vodrJNnWiB7Udue+n9uzrSZ6eOnj57qqMQbm4/ctvEg8yt5Ozoj7T8hBjtePBGR8/N7cjsXovKAv/xYmKBpthDjAKS9iOYTA8wSpHUJF86GH320KZFdbfYxsyXBQ6d3HPqzBfzdbSpjjMRozRVp9qFLV+iFligsCdMasBkIBllBmM/SACjFEmXjBq9a98/LdGbyjZ7eguwGJ3ePuy352uBu/b9U0dXY142WwCV6Y2UFDXKliBGb9xdZt305/s8LYn6h07u+e7MV3e+/n8sRGufePf65w/f8vzhW86Nnj10ci/Mv3B4c7PZpDdhIfx8ZP+vFqIZ7DEvngV2+G/cXZ4XbnYchJKiekw2luh+/ZJRo2zE6MV7EC9uEMyhk3uazebo6Ln9n+645eVfzu9lfvH98Y4fw/SbJ77eP78NYI928S1w/a7k9Hd5bt9iUgZA25oU9uuXDEbZ99Zd/Mfx4pwRqNEfv37j46fPjZ49c/b7V078ueNP5h92F974+OnzTbe8/J872v+7l3KwZNu+f242m385+IeOCuzm8rDAr3eE5gbK6fdiYhRvj5DSGD0PFzzti58+M31r5vbttdsD7Fr3y+Mp77gKemx0275//uib95rN5pfff/Tnt/+NrnbrK/9lDs/Mtn3/TB/h2u3+P+wufHP6s3c/e/Ha7f6JGN159I/Hvnrjxj1l5i5sfilagKJEYA4PzIy7UN15Hd2pb3uZ9Lhc/3fTA3Fu387YoDlUYDG6FJ/p2bSZxiisvOPI1jNnvx8dPbf3g/tns/ss6xw++fKP507f8fp/n4jRra/+tzPnfvjgqzdneSi22mK2wAJitN2pN7aHR6mxUT3ev3QwynbqF/OzeyFt68Dotdv9t7/2v33+3bF5jId//cPHms3m9iNbYDs71OiJr/f/8OO3t77yXy7kKth9F48FFrpTDzHaVqOGecboVZdzYJqD2Jxxl47xssVzz9iWXKAFJmL02u3++Xrn67/vjO7/dEez2dz30VN0O2mM/u6l7JEvXm02m88euon+ls0sdQsskIsJBSLUMNapHwt4Msxnp35BMcoGPC31h3uq9k+K0akqn2/5jXvKX37/EZOhdKf+pWPbPjv1/rnRs389dvf5Hpatv3gtsGABT1Nh1CRfOhhlw+8X74N7YQFSC4pR6FzqMN3G3cWDJ3efG/3x+x+/efgddp2ncYsfd9hqKW4uUPh9G6NwLpMeht+b+g0XhFFae07MzNhDn0MFdjLoUnygZ9PmhcYosw23vfJfXz7+529Of95sjp74+u2tr/435rdsfnlYYIEmg47DaL8ea80ENVyQp34iPemSOVByxl3YpUmWxyM+8SoWGqO3vvyPjx/4zd8+euKzU0dHm6NnR3987/OX7t73Pya2hC1ZBhZYuKVJUGpCPZxWj/UbliRG2YXylsEjPuklLChGj3/9NvwL/f2P3xz7ct+eD+6bGJY/aavYwiVqgYVbKI/GKFjhaYlitNlssss2L9Ene/pm7zx6+5sf/2X6OnP+9v63/r8dR7fe+bf/c85HYHdcQhZY0GWbaYwCQdpPL5S3pMZGm80m+xKRJfRAs01lLfATWGAhXyJCY9TIwOgSczE1m032lXY/wXN5YV54tsGsBS6mBa7flVy4V9pBjAIHPbXeKFxplADvEZlrwBPtTZo0M6O/aM4V2BcsX8yHkj0Xa4ElZIGFfsEyKjMAZz3dnQcLNhsIkOY0GXRSdDIL50zJGXd89tCm63aEltCtZZvKWoC1wMWxwHU7QgsU6gS51MLo2OtDaIyevxpl4nKq/Iw0nHOFk98dv25n5OLcFfYsrAVYCywhC1y3M7JAL7ObAqPUC5YVCKFYahhtNpsPvP2vS+jWsk1lLcBa4OJY4IG3/3XO+mw2O9IT6uGi99RL6hFCiVgHwHvqz2+90akUKLN8Nm2ac51Pvj3MCtKL81yyZ2EtsFQscN3OyCffHp4zVWazI41RuFSzSQ7UqFVl9CC2pYfRZrP55Lu/vW5ndKncYLadrAVYCyyoBa7bGX3y3d/OBoUXUofy1FPhonKEUCBmJUYoUdsgHjS5zxujtHplys+O/IW0dTb7nj57Crjs2Vgc1gKsBS55C/xqu//6XcnTZ0/NBh0XUqflo5cjtkHCg9hJDUEoEZsaDxFLE6PNZvPNj5+5fleSfa3Igv6RZw/OWmCRW+B/UQx98+NnLoSPs9wX6wevtMPliE1NeFGyhdHBOXXqF4MahZf9yP5r52tx30X+rLDNYy3AWmBSC/xmZ+yR/dfOkoMXWA3rNxj7DSYFalMTHgRg1KxELCrMNmice6d+Gp5eYHNnv/ste3/Jvrx+0seLLWQtsPwtsMN/y95fzh4XF1iz9dYQ4FbCSa3FOogTStSsRC0D2NLG6MnvjoOXi7yw3NadXf4/gEt+RI+9xRdqgRfAkOiCBop2YJd++ZJZiZkHQKIwii15jDabzQ++eoN9292FPpEs1FgLLDUL/HpH6IOv3ugg3YJuwoFRo8wAQp0UCKFELwSjXWsuH0sdPnq4uaAXM/HgR754FZCU1aRL7ZfA0p+1wFws8IL/1ztC8F2EE2mwcCVYP4L3I8Z+BKcwCklqVs5RjY4xdM3lXYsBo1CTgt79DrZ3z1qAtcCytsAO0Je/yDoUohliFJcDjOKKliBdVhhtNpsnvzt+y95f/mZnjI2CmstfeFbJshZY3Bb4X9Rrt2/Z+8uLOR7K1LZAh1JSFGKUAOH3QIrObWx0MapR+mof2X8tG5nPYpS1wDKzAIyxv2ixTTRPmJnxGEUJytFkGTBaVfgcPPWLGqN0ZD47W3SZ/ZDYy7lkLXDdzuj1u5IXJ8aeyc2OvFHOUKNKlKCc9ZYBo21ZYrTZbJ4+e4qad88uqbesh8kWdyf0kqXe/F74dTsjT77724sw17MDmhM3AUblKC5HTQrUpMTGMDoI1GgXHUg/u8xiV6P09X/y7eEH3v7X63ZGrtsR+hXrfWKhw1pgiVjgVzv81+0IXbcz8sDb/7rQ6zbRuJgxY4QMbWPUPGC0qIxWldGuNl0oRid11s/YoItZ4eR3x589tOn6XUnoymd5Or9igT0aa4H5sgD4bVKO+Ot3JZ89tOmnciVNRacxKaqgBkZVAKO2QdyuJuYBoxNJOlU7ftrygyd3P7L/2g27sr/ZFf+PFxOte99Wqax/f75+DOxxWAtMb4Gx31r71/cfLyZ+syu+YVf2kf3XLtw76S6QP+MwCqQoblHhtkETeUlhlDbiye+Ov/nxM88e2nTXvn+6cXf5+l1Jah5UYPp7z37LWoC1wDxZIPDrHaHrdyVv3F2+a98/PXto05sfP7PYtCeNCzrTxiiIcyIGjJZB3KY22TQEqTXPjxpdczmHGYdPn5jNsBZgLcBaYHlYAFdgJjlmUgCMmlVGK4VR+5wwOs6/NNWs0OVhNfYqWAuwFmAtQFuAiVE4KmobxMk2RjlMGk6dn/mVTbQgpU/MZlgLsBZgLbA8LECFOlFSFProgRrF7VoTqQUuJhajy+Mus1fBWoC1wAJagMYoNXPJaFMbbRqc1JmciIXF6ALanT00awHWAsvGArickqJKjOrRA4zaNbjTQATMThajy+YusxfCWoC1wAJaADiXFJhZiVmpcFGbGrepjS7UHHf6WYwuoN3ZQ7MWYC2wbCxALekEXhlCYdRo04DkxswJT4DF6LK5y+yFsBZgLbCAFiCURrC6qMoIdKjGaNeC5MKIpBdgdMoYpvFfsZ76BbxD7KFZC7AWWOQWaC0wqjK6EZvf5HAhFrsOdxvNLEYX+Y1jm8dagLXAYrEAWNVJidnUuBcnwzavF7eTepMbt7AYXSx3iG0HawHWAovcAqBTP4DZNLifcERJn9dEknqTB7ckfUG2U7/I7x3bPNYCrAUWhQUIpRGqUT9BRkm/z+QgDYQHt6R8IRaji+IOsY1gLcBaYJFbgFDiQI2qcb/JESX9fpPDYTB7cWvKz2J0kd86tnmsBVgLLA4LmCFGNQCjMdLnJxxOCqPp88HoLB36oNriuGq2FawFWAuwFpg3C1gGcLDcPXAxtTGKADWaYTE6bzZmD8RagLXAsrYAxKhNjftwMk76goTDjZh9Jhajy/qusxfHWoC1wDxaAGB0wGhX434KoyGz042Y/SYbq0bn0cjsoVgLsBZYzhag1ChwMfmMDqBGzU43ymJ0Od9x9tpYC7AWmGcLtDCqwX04wChQo6jZT9iy7NjoPFuaPRxrAdYCy9QCVvAOO8yuMflxx5DDT2HUEiBsuUB49nGjrKd+mT4d7GWxFmAtMAsLAIwOGimMOocc/rDF6cEsAcLOYnQWxrvkq5w9e/aD4x/ufvm1D45/OKkxXn39jXcPHp70q6kKDx89tu/Nd6b6dsbyb0+devfg4XPnztE1Pz/5xf53D9KbEzMff/LZ6dOnJ5Z/+PEnz+94aXR0dOJXbAlrAaYFrCrcOmi0a01+HGLU5cEsQTOZC0ZYNco01CWaP3fu3KlT3332+cljx0+8e/Dwvjff3v3ya89t3/XgI09uueOe391424aNm2+67c6nnt3OJBdtrG33PvTM8y/Smx8c/3D/uweZ6ZNPP6O/hZknnn7+wUeeZBZuf3H3ho2bJ0033noHs2az2dy1++Wbt9zFbMxrf3vzhk1bvvjyq46acPPcuXNb77x30+Y79rzy+lkGfJvN5qefff67G2/72xtvT7pjs9kcHR09dOR9Zvr221PNZvPjTz5lFh468v7Zs2enOghbvgwsQGEUJ7WE3+RMOANhi8uDWVmMLoM7Oz+X8PSzO2h+3bBpy81b7rrtj/ds2Lj5ocee3vPK6+8dPHLyiy+nOVMHRh969Cn6aDDz/I6XOna/fdt921/czSz87POTBw8dmTQdPvI+s+a5c+du2bpt50t7mYVnz527deuf/vLcDmYhM3/69JkXX9p7w6Ytt2+778yZM8yvHn/quVu3/okJZea3Z8+e7bgcKHsffeKZjvJvKLwy92Xzy8kCtkGTTQ0wGmAxupzu63xdyzffnvr4k0+/+uprutv7yaefb9i4+fiJj2ZziokYfejRp+gd77z7wQ6MnjlzBipcGkPb7n2Irj9j5t2Dhzds3PzFF19+8unnzLRz155XXtvHLPns85MdR/v0s89ffm1fR+HxDz968OEnpoIgxCgctRgdHd2wcTON0Ycf/ws81JGjxzZs3DzVETpOx24uUQvYVOBVoEyMelk1ukTv5cVp9mww+vubttIcpDPHT3z00KNPTY/RN98+cMOmLYcOv3/r7X966tntR44eO/Hhx81m8/iJD48dPzExdYjHBx564oGHnvj++x/ok06VmTgaAK33+FPPTbULLL//ocdpO7MYpU1xiWcojBodWlPQ5ExSnXovZg2xY6OX+GMxzeXPBqPvHDj4zv73/vbG2xs2br7vz4+9s/+9d/a/991338+I0bvvf+Shx55uNpu333Xfnldep5ux8ebbJ6Xbx598Stc5fuLDDRs3P7d9F10ym0zHeOjxEx/C1sLPbff+ecsd9zBL3j92nD4si1HaFJd4xgrUKMSoA46Nsmr0En8kxl3+/Q89Pim/JhZuvPn2cXs2mwfePbRh4+bNf7z7++9/gF9Nj9EzZ87csmXbUYpTEzH6zv73mMf/7POTGzZupjE6Ojp6x90PMDH69Tffnvziy0nT9z+02nPu3Llt9/758aee+/Krr5kHp/MPP/6Xu+9/mN7syMwLRjsEdccp2M0lYQHbIMAoqcWDJoDRiNUFMGphPfVL4u4tfCPfP3acqcXe2f/e7pdf27Bx866/vtxRPjGo6LGnnoW0hQKz2Wz+eaZOPQ24rXfeu/fVv9HXt/Hm26fH6HPbd/3+pq23bN1Gq9EHH3lyIuthyauvv0Ef+Y239t90251/uHnry6/tmxjbdBEwev9Djz/+9HMffTwmq+m2sZmlYgEKo5iDwmiSwqjPaAtaHNlglA14Wio38aK2czad+mazefbs2Y033/67G2974KEnfn/T1tf+9maz2bz/occfffJZurkdLqZvvj01KfjOnDkzPUa//OrrGzZteffg4fsfepzGKH2WGTPf//DDo088c9c9D84eoye/+HLSpk5fOGnQ1Y5de27YtGXDxs33PPDoe4eOTGzDjO1nK/zkFrCpcLva6NDhQYIEGLW5vUZr0OpkMfqT35pF2oBZYvTgoSO3bv3TnXc/+MzzL/51z6u/v2nryS++vOeBR5965gX6wjowevbs2SNHj8F0w6YtL/51L8yPjo5uvPn2F/+6l+lievPtA8xOPYy7YmJ0lmqUbgw98kCXNJvNqdTo6dOn33rnwCuvv7Fh4+Ydu/a89c6BN9/ev2Hj5mdfePGtdw7cftd99zzw6FvvHHjrnQPbd/51w8bNr7y27613Dpw+PS6aij7Rd99///Kr+27fdt+GjZu33HHPa397k+3p08ZZEhmbymhXY04GRn24jcXokrh3C95ICIKOz7/ueXXDxs0vvrS3oxxu0m2678+PvfjSXhjwdPbs2TvvfvDUd9/dvu0+plrswCi976lT323YuBn66GHhbFxMUO3Sx//q628++/zkpGlSYtJnv2XLtmlEJRNwH3/y2YaNm+EMAmbA0+3b7qNjV88r4On4iQ+feuaFP9y89cZb7/jq62/oJrGZRW4BmwoDGNXiIcKRdAWjNo8ft49hdPVsX1U/22n1i9wcbPOYFpiGJlN9BfukH370MYzfpONGYdjp72/ayhyXnAqj739wYsPGzU89u53ZmA4p987+9z797HNmhQ6Mdnw14+ahw+/DEP13Dx6mh30neuqZofjvHTqyYePmr7/5Fs5oouNGN97yx9f3vQXPOHuMjo6OHjl67JHH/3LDpts2bWYxOuMdW0QV7CojSanREOFIAYy6fbgtZHO1OvUsRhfRvVocTZlNp/5P9z38ZyrMnsZos9n8+ptvNmzcfOToMfo6psLoiy/t3bT5jt/deNt7h47AyseOn/jDzbf/0J75fubMmd/ftJUZEQWrMTv1N2wCE1UnTU/85Xm6DXTmrnsefOChJ+hNmJmqUw+/ffX1N/5w81b4l4NWo2fOnNmwcfOhw63pVbPB6Dffnvrrnldv++PdGzZu3nrnva/ve+vMjz92tITdXMwWgBh16Uwhwpl0BSMTMLp+9eXr18yfJl3MtmDbNhsLzIjRb0+d+sPNW2EoEhOjb7wFRg+/PQVmncN/NEZf2vMqs7N8x90PvPjS3ue277r5trtgB/zcuXM333YXPb394OGjGzZuntjt7cDoG2/tZ85cgvmHHnt6Ikbh9KfjJzoXWJkeo89t30VPsqIx+vnnX1A9/ZZSnhGjL+z8K5y4dd+Djx08fLRtG/b/pWQBuwon1Uan1hRuY9QL1WiI8tSvvnz96p+zGF1Kd3Sh2zojRpvN5ocffQKbwcTog488ec8DjzCbR2P01q1/otcoOfL+Bxs2bj75xZc/nD5985a7nm537Z95/kVaLT717PZ7HniUeSiY78DoseMnJtZ56pntHRgdHR3947b77/vzYxMrT4/RP267/9kXWguv0Bj92xtv//6mrbScnBGjDzz8xJN/eZ6+/IltYEsWvwXsgy2MhkzOlBuoUYjRXCgGAp5YjC7+W3iRWzgbjNJNojH6xZdf3bBpC3NgtNls0hi9ectdn3/+BRxhvPv+h2lE/u2Nt+klRQ68d+j3N209e/bsmR9/3HjL7W+9c4A+C52ZG0bhbKuJUnQaT32z2YQxT0fe/wCencbow489TeO+2WzOiFEauPRVsJklZwFajYZMjpQbuJh8JnvY7s6FWTW65G7mRWnw+8eOb9i4eZbh4jRG733wUbqHTjdz270PPfmXF344ffqGTVugo+aFnX/deMsf6fjK0dHRL7/6+t2Dh989ePjNtw/sfvm1A+8d3rlrz4aNm996511YznQ9dWD0zbcPTPTUPzy+U//99z/cdNudjz7xTLPZ/O7775mL+O1/9+C2ex/acue9HYVwiPapZ7bftPlOei4pHBLd88rrv7vxNhgkCy/znQPvbdi4+dSp7+irZjPLzwJ2lYlU406tKYiTwFNv9/gJMmx3AYwCKTppuoBu/vKz4KVwRd+eOnXDpi0wgfmdt/9plgtoQozCocwD73Wu3/z0s9uhC2jzH+9uNptnzpy59fY/dVQ7SHnDJ/UUwULmSn0dGJ1qL2an/sB7h39/01Y4GfT4iY+m2oVZ/tnnJ8/8+OONt97x8qtgRagj738A3Vl/uHnr9hd333TbnVBgPvGX539/09bf3XjbbX+851J4SC7la7SD8HvcoTUFTGTSFaAwag/ZXVkWo5fyYzHx2g8ePrrvzXfeeufAsQ9OMN1BE2syS15+bd+B9w41m82JU0VhF/6D4x8ePnqMngNKZ5gHmX3+ue27INrAxNNHnpwYEdVsNl/b91bH2AItfmd/omazeeLDj+HfktHR0aPvf3D8xIew8fQ0/5NffHngvUNHjx2nAwzO6/hs5SVkAfugya42tTHqb2PUmQ1FWDW6hO4j21TWAqwFfjIL2NQmUmNy6AiwNIkLYDRgJkN2FqM/2R1hT8xagLXAErMAE6OgU0+2MRpm1egSu5Vsc1kLsBb4aSwAMeqk1GjKHYyR3oCZDJNO1sX009wP9qysBVgLLDkLUBglnDpzkAp4ircwOr2nfqL7fta++yVnILbBrAVYC7AWmN4CdjVBahgYdfiCZkeEdA1P56mfFKOzI+n0rWG/ZS3AWoC1wJKzAKk2kVrCqW+p0SGHL2ShMBqZJm50MozOcs7okjMQ22DWAqwFWAtMb4E2RoGnPuUODjl9IYszQrryc8DobEg6fWvYb1kLsBZgLbDkLECCoFHCRatRgFFHhHTmo+evRlmMLrnbzzaYtQBrgQu3AAOjZFuNgk59PhqbOvx+ik49wOhMI6Tsq2Yu/J6xR2AtwFpg8VhgdHTUoSEcOqBGAyaA0YTLH7I4og5XPho/H4xOBlbmKqVwbv6ay7u+/RYsFc7+Yy3AWoC1wPKwwKlTpxzATU+49UQQJ1PuQMIFOvVRp3uhMHr4cGs98+VhQfYqWAuwFrjELXD0yNEWRg3mIFCjC4/Rp558+hI3Onv5rAVYCywnCzz/7PNjGAVq1J90+0JWMrJwavRf/ue/LScLstfCWoC1wCVugd/9+29nwujPp1hydOJgaEfJeF8TPTaqUxkvcaOzl89agLXAcrJAzp9wwrFRg5kaGwVqNGx1RB3tsdFVPwfvYpp88eYObnZsToHRNZd3vbTrpeVkRPZaWAuwFrhkLbB3915SbXJqCJeO8CCWoIlMewJJtz9sc47DKCBpByLPY7NrNXihE/VOJ7AXyNer/3jJGp29cNYCrAWWkwX+n//+f0+K0ajdGXO482Eq4GnVz9dfGEZb6GSAGJCUFaTL6Ulir4W1wKVpgb2799oHTaSacGrNLv2YGk25/VHSFXN65hGjkKRMSdvltPvZOPxL88ljr5q1wPKwwOjoaC1bnhyjHn+MdM87RpkMhfku1mW/PB4m9ipYC1yaFthw3W9tgwRYabRDjXqDKU/g4mAUSNTbbt1yad4A9qpZC7AWWNIWuPvOP1lVpgkYBeH36TZG46BTT82pn4+x0YlStFWyhiXpkn6U2MazFrgkLXD3nX+yDOAURk0tNaohqLFRc9BkzzAwOhyO/R1k6KSfDJcRFREF46Lm9Pkv/++/seOkl+TTyF40a4ElZoHR0dEN111vUeFWFW4bxKmBUZNDY3JSq+R5EEvY7Mh4AymvP+5wxZ1eoEYnBShdOEbSOdEThKO2k9PmY333S+yBYpvLWuASs8De3Xuq6ZJlAKekKG4bNLUwqoYYBZ768Rj1gJeI0MScNDOPGIU8bVT/kYXpJfZkspfLWmAJWGDv7j3/43//v8xK3KwEDO3AKIgbBWqUxmiwrUZngdGxeNK2qKTV5YVktCrjv/zPf3vqyacPHz7y7bffsv39JfCUsU1kLbCMLDA6Onrq1KmjR44+/8xzv/319QlPnJAbCYWRgVEj1alvqdELxiic4DSvGJ1hCf2fd62ZNl11eddkaf1Vl4N09S+61q7icq7m8zliiUA+KNdiepPX5c9lhofDmQwZS5GRpD2csMUStuiQNRq3ROKWcMwSiZjDYSIcIsJhPByxR/LJkZg75sfDATzsJyIh+1A8mMklivl0IRVPh4NRJ+kmMItOhaj6NYo+lUI8IO9VykQKCb9fwpeJOH28tcLuNbx1V3Svu4Kz9heTpSu61l7RtX5Vd/dVPN46YS+3TwySRLBOyL2K17Wqe/0VnGlS16puwTqRul/jtLkKhUKj0ainixkxnhFgWT5W8g01Go1GzlnT/31Vv4JOFUa+ql9Z0a8YK9GtqBouq+n+vu5RNBo1sPts/pWSdewKeBZwKAN1Lt2KRkgzm73H1ak36uV6Sm3PCo0ZgTGmI8e1YqSaFeFZIZYWGbMGR6NarxaqFaWlLMFgKknQkrSVp0qMZZmxLDGWJVhJjlVURKNUajQaNWe0ER8B563VK6izxNNWJGhZYqxI8WJrd7BLVW6u5XKgWr1RsEczIjTXi+VwHyhI5cp9aFmKVaQ4dXxQvyzBilJwnHbCqKPRm8aiFC1JsJLEWFRZ6pVKo9EooJ6MCM0KjTDlxKZGNN9oNEqJVE5lLsrMZdCe1iW0z9UqKUk7TgeO3zYFaE9RilYkdPNAa0sS47A3AqPur2EAACAASURBVA1ej2VzMktWgOTE2Igz1siWytFUTmpLiI2RPn1WYc7IzBkRmhEaMyKsiHhqJdBg0ObhfMTldhoMuFSm5/O13d3qrvXqri4Np0vL6dJ0rdd0rddy1mk567Wc9RoOR8vhaLu7tVwuM+m4XD1PaBBKEbHS0KdB+rRInx6RGBCJfmJCJXqQpHpUaoAJkxowGdKRjDJkktSP4HSSo7gcg8kkx2Ai5BiVjBMwyhgbHcQvFKMtQbqEMHoFZ/2aHgFHLO9T6dWozezweQLx6FA+P1IplovJfM49NBVGIwQgadAUzCfyqUjKbXT7jEEvFvCgIQ8adiIBB+J3ogEvHs4NFXPZXGIoGQqEPU4vaXHYzaTNZCcwC24gEA2mlmulArmwS9x9FX/9ld1TYXTdFRzOGi5/nbCPJ1WIB/RKnUKslPBkgvUizhruNAxdfwWna1W3qEus7td4nb5KGTzl1VguLQIYzfCxepRCQIasIW2G6lZUdSvq6D/QSK3qVjawf5gEo1F9vVap16qzSY2RWE3/M4jRGrISYBScaGUjic9md1inUaeoXW9UkoWMyAx+vQJj3hGFP134ORxKgHKhMS0y1vyZRq1RDw6VAMja6JRi5X68DJgIS4wVOfVtH1aQGapkEBCwXi/IHLk+aymTAZuZfIXw5sV6iNGK3ETt22JfSW2ppADXqtVqepBICw053NvCqBityIxVGdHGHCAXtTvNzY5N0JgSxcRxGBVSqBJQ1yXEctYQvNhSKl3sNzMag7XO1dfGqMxIXSx9OmNVARsPK2BVhWkMo31oRUr9neg3N5wxeIpyMJmT4NleNCMyU5+mBM+Yd0Yq+Uqj1ijGM5leNAMahmVEyIjJX61UoQFHstmw02nXaAFJeXxNN0fdtZ6JUU0XxGiXhsOhSNqt7e7Wcbk6Hg8mPY+n7+HreSJEKDWIBxFAUt0MGAUknRVGcRnSSv1oi6EAoDDNDqOgX0+pURXlYpoaozGnZzg009goPWB6IV34SfdlLpvfmZ9Wiq75+aRSdKzwmiu6udcIpSIlosX9bn/WG836hwrZkXK5UqlUq9VqrVYb9iYTtnDCOqZGo0CNRsIURkOmcMwWCxIRnzFIYTTowYJuNOhCgk4kSBr8pMFv1wdIgy/ojJaGS/nhQiaTT6dyqUQmlUgNxRJBf9hld6Nao1w8IOL0cShNOkbSKzhroT69grP+Si5vraiPJxvs12Ja3EfYjTqcQnA/f71o/ZWc9Vdy1l1BpXaGZitnNbe3u0+vMgS8wdYjHkiA516Apfl4LQP0aSOsqWn/U1UL0db+1K4AJcxC5qZ2RQ37RR1fA5JxLUj41WObzDz81ngFdaiVFD3bp9CtHNsdHGFN3XhN62j0AVu7U6cwdTUqhUatUXDGKYaiKbGxPFyGP3j4WXRFqV81nhGZG3nwk644o3nEQaeihixqyIKuVcLMZzFXI0NRID5MmQjPS/DKEPWXplDN68msDJIXBRQGqKIyYrRiIBvVaqNWSw/aMgK8gLUwWhJjJbqaBBvbpY+COPhsp7FqoKTUB9VoHSg7nScpxFNSU0ZtzgiJFN+YFWJ5b7xeBd/W/ZFiv7kkhlhsH63VvPGtZZ6O/qNCNwCUtHfvQ0tirEEONarg71YlmY/LLRkRkhEhCSmRR/31Ojg1/FeN5ZJ9eEqEZQRoRoDnDe56HtyReq2WT2fCTiep0xn7JJQmBbhUc9aD1NWlBjqUAms3R0slXTdXz+MZBAJEKESEQoNQqOcL9DwBIujV9SoNfWqA0T6oRnUdgrSlRsdj1ChFxtJ4HcpgKIoDkkKYong/BpOppUChDp1EjZqVRsuAETjrBykvk3oqNeqOOd0/JUan69dfGEbXreoRcPrUCr2T9OQjiZwrmnHG88FUpVgpFor54XypWCoO5ROuKKNTH6EwCqQo6Nebwn68lTow6kKCDhqjeq9d5yUNPofBDwoRvxULWrGQFQtZsIDbFvK7A0a9Sd6r5K8Tda3iMjG6DgC0m7OGx1sr7OPJtEq9GbN6Xb6U2+snPVbcplMZpIJ+/johZ01P12ougOlkGBVzJYgaiwSjtRr4VRTsfojRnIio5YE+rThlU2KUEqct9o1Hak13GUwNzWUNzWV17dhmXXNZTbuypgPlMJW1KyfFaE27kq7DrE8fkP62ob6sYpPU6/V6uZYZdGQEQG+ODIzv0TcaJU8cYjQtJKqZIvyp1xj/GpVGo9KoV+uwDOQrrTy0T6NeTzlDbRYjw0pbLQnEZqVQKGpIgMI+FCSIxT60PCNGO+pPugkw2j5yXydGM4i7PlxqVBuNWCGqsqb5xoTYWCZbXe9SONlSu/DIkx6fbm2rDjzd2BmZZy/3YaU+Y16K1pzhRr3eKDUqqZFMvykjQopEsFEEar3mT1S9cWjeii+R6cMhRuMiNK9zQ0sCLZJKh0gHqdPjEolBADSpZhxGqW4+jdEerkEgwMRiXCrFpVJM3IeIeg0CkZ4n1AskSK8SEVMkleiQcQn08ccwCvIGVGIAnXopgk1B0vFqlCYpzACSju/OT4pR3DyAt2OeTPZpMOpw50KRGTz1C6dGFwijV/+C07WGLxEoMD0xFE3kg8mcM5ZzxLKOWM49lI1mwsFoKBDJpLLFXDHhTsQtwYQnUc6W4mQc9ughRoMtjHaqUYBRBKhRUu+36/02nd+q9Vu0fovGR6i9hNqHq334oA9X+RClJ+xP+D0Bgxrr48mYXXvI0O6rePx1IglfplHq7WYyGo4NR9PDNmchPhSLxB1Wp54iqaBLxL2aDzr4q1qylFaj3Wt6pHwZbjANxRL1OvgBjBh9GYExK8LyA5ZGuVavVyrmbig8AfuoBDcnftYgDWmhOm3libufXwkk+Ni5VlQTbtB3juTAiITAmBKYSt5ESxS1/ytkMlA3ZQT4MO6t5Av1SmX2qVYqVxJ50HsFgt2YEeDgU2YuRkHvHnRT9O58H17qpaRlH1YWQ4z6GvXGmBo1tDv1vRRwqToUf1v14V6gBH41SQWsMGCGY6OlcLxGDZK2mJXOp1VkSgCgVrAG69RwZMUZz/ZbSn3GsQNOd3BKSk+s0NEYMVbqxYr+GLi0RqMSz+Wc4XqNksDeoZLEWJKYqr4WScuBVEpiz4pgBx/PY/5anhpiBpoUkNSu0eAymY7Xo+VSmrSrCwhSKsGevo7LMQj4mFhsVijsGg2p1VkGVLisH+0VgxHSHiEikCAiJdW1106PUUxiAAlgFJB0UkE6S4yO16TjxkaBo2mpYBR29jt79JfP4F+avlMPevRrRQqJmrQ4c6ls1hWnMZpyRBOBhNPuthKk1+VPJTPVUrUQTdfL5epIIeVKzQajzgkYBQwFGPUTah+h9pkgRgd9uNpvQ0PJRMphdQ72awVd4q7VXNiXX3cFp2s1t+cagZgrVcnUBGqJBKOF4XzJG87bnCW3u5QfiYVjFtymlmv7eFIepUnXrwKuKoDgduJezZMJ5QRiTifTEKN5rRtIOSE6orI2avVarVgwroN8nASjmnbXnsLZRcUoA6AV7WU19MpGCTjE8tYIJXyMoNtO9cHbCKX+r1azShsgqQBPiI1pKZFT2JLKWSeFNSXBKRzgFEMBRuFxKsOAC42RxjDuBRhlQKdimBqjjGrMXWbKj2EUXl0tnik5/I0S6E9U84VcL+hlZ3uxgi0M9HWxUfElwADCHE8H/hhMTACj/eaSuzUUC1tSCQ7lKMKOiLG8BK9DklYblTj884NnhKaMyDxCBOrlVu9+JJuNOJ2kVmuU9OkBSbtB776NUXVXl7abo+f1YOJey4DSiSBBmy1Ouj0YTmq0hKwfEYj0PQIDrxcTyhCxCulTIxImSTvVKBOjYwyVQueSwSgDaQyjMqTdqWdq0pYanQmjJvNsOvU/uRpdIIzyu8Qquc7nCeYjqZwj2krOWDaSCnhCJsyC6XAbQcYicdg9KefKUSIaJUIRczhCgBQyhadSowCjhoDDECD1flLvhcmi9hJaH6724movMQjUqHHQZ1R5MZXL7QLSEtPhMqGi5xoB9DWtuwK45gVdYnmvEtFgfrc/FYmOkO6S1Vm0OktWZ97tS0djQZfXghKKvgFRt7jnGkHXqm7Yr29h9EpOz9V8ea/SituGc8NgxKpcTUnNGQGe4iN5yhPSGE5WdVdVtSurmhWLNpXVK6sOKfgZF6tJmQUCLi21Fr2JbDDOTHl/dITwAbEGhOTcU5KHVwa8w0rb2KEklkosC1z3lUpV7y2KkFJvCz00RlMqEoyNttVoqRftAO5EVE0sKVFEo9RoawiyksqW5UAbVqz+epFSecVSTm5NiIFeLrZ791UyUuxHJh5wYkllMmhOrAZLSjKk7mv58arhoaIMYV5UqReteWMNSqVW/ImsyJLkgValhYaCOVgrgFGjer2ez2SCJGlTq7E+sUHA13K50LMEnEvcbj2fh/aKbGqV14RH3e5MIJD3Bob8/qDN5tDpTVIZJhIj/F5UKEF6BxDK3WQAJIUwbTnux/fr9ZjEYJQaxmEUkBRitO1foh1Nk8B0Yr9+EjVqVuGW6cZGAzGHO7ZIMDpJ734WY6N0RFRH5NPaK7nCbolWhQT94UJoDKOVTCmVTNstToMaQzSY3exIJdOVSmU4MZywJiImEPMEA56m79TTLiaAUYMvEcpkopmYZzjiSkVc6ZhnOEhmaYyiA14c947kSy67Wy3XCbvEnNU9dI9e2CVW9qncJlva6c3bvcNWksZo0eIaIX0Z0hu0ObQKrbhHwl8n7L6KBwUpjVH+WqGyT0VaHIUR4E0q54spSQujZZL6baRDVc0VVc1ix2gl5gBSNJIakhAtPgJnPZHk48yUFhApgWmMfXMkqSlrCTTyjUa5nhMDrxFIInNOaa+nAUnBiKGWBBil0gwYbVeDlWf8hHSmMVoJDeWUxmGxttSLlTjqihmMGDRqtWoyn1eAtqW5aM4FAgzAv0B84vHpdsKvOjYn1h9XIkZLMqTYjzQsgZoznO9HRyR6gNH2RYE/JyK01h4nLQXiw2JrRoDnerHkWm0e98N21Wu1kVwuSJJ2jRpoUj5P2w00KfDO83rQXhGhkLsxNOb15tPpfCSSc/sKw8OJUMhvsdgH1bhEigrFiKAXESnQXhUq1hgkGoqkY76mSTAKe/cSgxEgFfbux+tQJkY7STobjAI1alHhNjVOjY3iDq3JpTd7UEvI7ABLk3gDUYfr/DBKD5LOmBmb+DTp+vlTB07Rvfv2Wvpday5ff75p7SquqEeKaI3RcKwQTucc0awjWoxni4Wizx3A9CbtgMGEWsL+cD6eTLhCQ7ZQR9zotBgNOJGAE/WHbEOpaD4eSOZzI6lkOh5LxKNDiXgim8lVytWYP4uqXcZBH6by6pSkx5ZMxJOY3kQL0pZzaZ1IJpDrBxCHxZmIJ4vRoaLFVTQ7ixZnLTGcSqbdpAfRYCqZWiaUi7r7eBRJgbuJ6tRzVnULu3oHZWo36S6VQA+rkhjJCAGGUjy8EAR95FrKXlavqM4+aVZW1StKusvryNo6dnXdeNXMCV1T0fzD+FOsrKpX1rRrZt7XeBU4kbUX/BrrjbzWBdt/IUozq7AWdK6i3j0xlRBv2RJrxIByp/9lJDYQXyXAUwJTboCswHHSQqGit1FMQZkYTQlMw1grbhSqUYC/808FJRgbraYKFYmpJAKqFqZCL1rROUFgQKNRT5SGB50pAQhCGqZCtcAN9UTBwGW7/jxmoACf9IB5EVoNJVsW86aHJMBWGQGeFBhziLM1olqv51Kp1jipVIoIhDpuj66HZxDwcanUrtGESDKXSFQSuZLFVbA6KsFgIZ2Neb1uFDMrlFhvn4EvRHgiVCDBeuWga9+naQtSAFOIUUyCUIkaHmViVGLAx2AKkIqDhI7r3csQk4zu2k90NE1Qo+3h0bH5oFrCZTC7UUvI4kx5g0lvMEK6o053LhSerYtpRnrSFX5ajK5b3dPLkyE6PBYdKkZaGC2l8ulUxozbtCpEp0LsZkc6NJSwhRLW8JAtfD4YDXrxSCkH+jKFQjESijpsLgKzYHoTpseNepPNTIb84exQwWOLIwNuTOU1qLyYOjCcLrpIj1quE3VLOKt71l/ZvX4Vl3s1X9QlVogHjDrc6/TlMrlSJFG0uAqheC6b83uDFtymVyFquVYlUyslqj6eVMgR91zD51Ak5VBBo1qFzu8OVCg3RSmcaT3ffGMlDoRVJWgAXWaQZg3TwRX1pK1Rzc4y1XP+CRhdUVWvbBQiszxCowZ87tVSJSOxZvosGbF5DiklwNNQV0rNNeraaVDOkMlWswoyzQNOreQ1+pzCXkrlGrVaI5uvaKxlEVoxeKCLKUU5f4bRFkaLIqQ8Z5wpzOVYsqgkAEMZGC31YnkxVsE9jTIVzpUYzveTUI9XkGC9WmvU6lVfvCDBLgTik7KSasYY0Jl1Cr3osAithFIgRqrWqAYzmT5LmjJ4WmCqmMMwMr9GeZzCDocdjJNKDAKBns9HRSJC3h80ExmvN+3xjNjcRbOzYHWM2Mic053z+WN20qbWYGKJgS8wgEFSESLoo3r3aqRPS2vSNkbHAbQ1TkoJUlxiwBkep0kx2qJqKwRqMpIqjITCaFHiMEEvE8AoWG/U5KAxanUmfcGENximMJptYfRn62gIXnjmp8Xo+jU9Yn4/ZiCG4gmoRnNktJjMx6NDOGrWDhhQLR7whoZjORA3On4WU5SaxdRSo62Yp/GeejToRALZZK5Wqw3FEjYzqVMZFBKVVCSXCPqlQrlSqkY0mMfpy2XzLnsUU7mwAQ+q9PgdiVQiZULMLUG6igsE6eqenqsFvd2SAckgJGkiGC04fMlo3O/2W3ArqsUMagTRYgRitmBW7YBeLlb2ciW8qwFJu9f0UNFOaNgfhoO8RXcEYJSPpySWWq4M4odcEgqjs2aoekVVtaKaDc+AHsbXtZi5or5sAqYvq41Q04QYNWfIVuuVQmFuqTFUGsZaY6ZAVCrIamKc5Gydut6o1WqlUqlUBKkVAtVoVCqVvN6TEpjSfDzDBx386jBofK1Wq2JuEDdKeeohRnNIO25UaKiI0PIUqTRFOawPvhUbQQd8smpFEVIx+xsFqocxMpLpJzMic0pgKtgi9VqtXq9XQ0Og6z3ZvrMs7Ghe5+ZkDSuKkKo70qAi8CuZYRDlCh82galABGtUa8E4KfDdk3aNxiiRICIRxKgHQxMu10gkUnL7AUYtzrLTX4onE36/nyCsKhXWKzbwBfqeHj2Xh/AEiEhOuZvGuvatOKe2Au2QpUZKjU4gKTpRkDJIOobRtq8JMBRgVNHCKD2t3qamSKolnIjZhVmCbYxGHECNZkKhv1v1s3WdiXo104XwdDqSLnCnHmBU0I8j5kQ8WQiDsdEsGS0mhmORuAmzGDSY1WRPJdLFoVzSFunA6Lix0akx6rNGysVKPDpEYBa1UicTKcQ9UkFXL3+9iN/VKxXKdSrERXpy2RGXOW4c9KADHmTAlYhnPE6vdsDQy5Vw1vDWXwnc7l1XcrtX80RdYqVYhagxu8meoCZEYTpcpzJoB/SoFrOabH6bM+r22wg7okblYiWYKrqG13M1X8KTYlpjPBKHIdNFSyjNx9N8U1Juqxep0EmCWxk8H4aqV1QHV9YLcRB+OZtUL1UCSKVD7Q6urGl+1qjkZnWE2Zxl5jqNeqGcR3wZAZHmgzGN3ABZHQEYov8BrZTLD0XiQU8g4PYHPf5ENF4qtINP86W8xp0WEdSoApGR2SoQxMOlKowEqtYzlBplYrQsQihsIVQGfqIwX2p9BcRmGYwwgppt7IJNKgGMwgrtQ7Uqg0LcXafY1MiUsyqgSdNCU9kcbFCOnWpgaKTPWAAwneTs7ULm2Sc2b6zxE1tbYrS2fUVoSYpXXBHocSqGEgmpNU397UkLTCNIoF4EBq9Vq7lkMmCz2dRqo0SC9oqMEoltUOW3WJLhcCmXK3n9OdJVTuUy8XjITjr0epOsHxH16nl8XTcXROlzeShfggn70V6lQaw1iLXUBCc92qfH+phqFGmrUb1RogcjpACmCC5BjDBR4hTI0o5B0nHjpK1B0jGSyo1mBUgWan49TVIgSLWEAyFojCZ9oajLG3UtGEbB/NGpXjW64Bjl9QnkOGpJDKUKQQqj1NhoMpFy2tw2M+n3BAv5QiGcTtnPH6MImMjkMAQy8VwmnfU4vSbUrFHqFX2qPr6M39XLvUbAWyeSCuWIFgv6QiP5kh0NA4wqPW5bLJVIW012hVjFWydavwoEP637BYhe6l4DSCoXKbUKvRO36lQG2IunYvItfrc/7fXnHd6QL2wj7BqFVsyV9FzN568VyIRyE0KkEik48SSjdgI9JTClBskGmHdTq6Nrq6q/B1JxljAdXFEdvKzmkNRc8lklp6yOr+6QorXBlTX1ZQ1n76yOMOWJFDWXYlZHcPaXh8FAcL1UzSgdGT7o3QNNqvI0CtQEUwqlxUIxGgg7LSShx3ENimtQO24J+4L5YRB+D37/lUpG7QbjpHxqdwVZpsZJW7N6Ko2syg4Oy1CjEIVtJrZYydhsUbJd0rEJKYa2vwXOHIqq4DjQt1M1++BwTXkoP6QmUzwTCIAPDMEmVbzRETC0SkMZHIG5CRnNLJmsAr37JM1j1i+LUNCqPmPN3fLsl0KpIUnLXEAsE8EG9ZerVq1m4nEvQViUSkwsRntFJpnModcH7fZkODQSDuc9nkw0FnY6XQhKyOVU9KhA18PTdnO1HEBSQ48A4fehon5D76BBrDFQM+7RPkBSBkwRTKJvJ8rRBN1NrfFTRkgpzdNWXBQDrO0OPiMgn4lR4wSMQjXqSPmDKX8w5vLEXO5sKLggahQq2ck16cJjVCKUmzBLKpHO+5PDzljOGSuE0qVCKRqJR0KxXCaXDyVTtmjSxpzFNLY0ybQuJjAZ1GHw+6zRSqGWSWdDvrDb5jVjgH2KPpWQI+auFQi6xIo+ldloTSVSuXTRIAcYRQc8qWQm6A/rB9E+nox7NQh+WvcLQNKuVdyeqwXCLrGEJ5P3KqUCuVTQL+9V6gYMfrt72OErWpwFi2uY9IZJj1GHS3gy/lqBYL0IRjtlM9SMxlotq3RkeKYUjxjGvWBFj2Kipv8FgNp5purgZZXBlXSiNseVVAZXMuqsmPT4lcEVsBqj5rhj0uXVwctgos4I8vSpmZmOcmoT1KwOXtbQXd4YSTVKpfpIZXjAmeJgoIcOJVK2pUlLhWLIG7QghF6hVYkVg2KFrl9N6PGA21fIj0AwlbOlYYqkQNTzjMMSayMNxsEb5UbJPQSDBCZglMbQfGeE4IAFZwBocTDPqpTotySFppQAH7GFQWR+rV4KDJXFGMXc+T77ODozDi40lERINZYBw8e1Wj1ayPRZW+ETfHxE6WxUQHmlVEoEgy4EMclkBiGYAGqSyUit1kcQUZcTTNWzWBx6g1mhREUioEO5PdpuKnG4Og5Xz+3WA5JKDCKloVelF6sRsR6BGJUYKJJCZUpjVE9180EgFMhIYYg+wnDit6lKTRsd06ctjKJMjBJyzKzAKDWKWQZwG/0eEapT78YsIasj7Q9mguGE15fweHPhhenU0wMCk5B0aozCMFKmjKV994zMDL779Wt4EqECYjTnS1AYjefciUYNDIGB9Tvq9Yw3diEYBQuUGPy5VKler/tdMZPeG/YPeV0+E2qGJOWtE/XxZQY1GvCFSsWKSRtAlB5E6fPYovnMCGlxqGRqwfpezuoeOhqfs7qn+yo+b61QsF4EUldvH0+mlmusJlvIGyy4vDnSHfdFbYRdO6Dv40l7rgEYVUpUdjM5kqcG8kZKmV5LhmdK9pgqZKRRa9Ty4armZ5MybsZCoF7bqQZQtZLehBmqsFVn0qPR1Zg1GQcBcG9vtkBPbTLLx9pQHQSwbtcH5fRmbXBlQ72yga1vFEEPvRLNZvuBbMzw8QTPWNK0gnJq1WoiOmQzWvVyrVIg7++RyHlSjVRlRc0+p3dkON8iab6cltuBpIUBkgKiqA4UFO4kJVEnU6MMxEyFngsoL4qQgtkPwrNAXG1jWAouDUg/e6ReAVq75ooCd9AFnGIO+w6LtVV3HJC00Sj5knDoNsMHQQVVYxjglQom9VttZqXSIBBouVzgspdILAMDTr3eTxC2wUGoQ3U8IEI1HKBDYYJ5HYdn4AKSokI5KlIhYi1IfTqGJm2L0/aAaXv8FHrzqc/WZCc6IoqCKWMCPiM4vzVUChd8AhhVYoyZ9eA9IvY2RoNWRzoQzEcjw5HwcCRciEcnU6Pz63Hq6N0vPEalIgVhtGaSmWFvHGCUisAv56h15Cq1QjSdIiMTMRolonEzmA86c/g9WJ0kmIoDR5PTFLRqfaQhmE5lQoEwgVnk4oFerqSP369R6r0u38hwgdBBjHq0Cnc4lA76w4gaE/dIu68Ca+iBifbU/Pr1q7icNTzOmh7Omh4qOL9X3qs0qFEbQca94bjT57A6MR2ulKgEXb3Ay88Rq2Rqp91domK2G9FCWkikeOBRLoVSoJM7ZAf+IhVFH5ChEoSjiiJURwmzDp2/sAwkbOvUczjUIKPZ43cHGGWU1AdXNiyCRolajSmTHxJTEolHpPhEwRYBoaCNRrFQDHoCJq1xUKyU8yQyrljBl2llg2aDKegJ5NskbRRr6X5nkopRTfOJNA9PUxo/xQNOlbwhAGybypUESFmIgtRy9XSyrF1OV2j12eFwKhyOBJ9C6jjt/jjdr4d0KwtBV7ph9NYp3305n0/oPAmeMcUjStYoJGnFNZQVg3EAcGTQJJrsVBgAOAXMtBpAc5MqB5VbTQX7YozdgReLrjyugy8Ep2t4o3CctJTNxfstwD48EOrbCILuUaVUinm9do0GEYm0XLBQnl7AR3t7cZkM7+/HpVJULDYIhQCjQIp2YlTL6dFxeDqu0MDrAyQFglSLiHVgPT0qMXkKx0whRpmfGF8ZqwAACdJJREFU7cFTSqIClUoJVTpun6lMGb17QFIFEKRmJWZuLVDSxqjB7MEsIYsjEwiWhuLlZLySGqqmE1NgdH5JygwgPR+MThKZP1MkKVCjk2F0JJyppEayvniKjE6K0Zg5VsgU6KVJppvFhARJfSAZyxaLRSvisWp9Fo036IpnEyPRcMxstA7KtUrpoEGDeV2+oUhGK3VRahRgVKtw+7xB3EDIhAru1YIWRimSUhM9gd8JrOpErUDay+0DS+cNIlajlTTZUC2IIQVSdK2g+yqeiCPWKvVepxcOn9VDedCTpTBaHwL6tBo0gYFRBmsufv5CMTp14yfBqHpl3akEU9QrjZIvBWL1KYymhUQ+RE0PrzcyybTT4tDLtXK+VNotlnW3SEro8ZA3kM+1NGk1UyyovdCeKR6emhKjbQhSKGQQh2IT5CNELciDRHGzRTpIsRZGAelaezGPAzEKvOQmH4wnrRQKGTFklqlgjYAognq96A8DjLbOCI7TPhE4bAv3VEvog8PK7ZqwTuuT2mUs364zhtQyhdGSGKs6W0uoFO2RNN8MMVo0gx5AvV5PRaJOFMUkfRouR93N0faAhfIMQiEqFtMJLPXEE+i4FEw53W1N2qPlgKTh8PQ9QlTQh4oGkF41A6M6akUogFSsnZgAnUSZ0jGnNEapoVKG7761BJRJjhIKQFJCaWzNrB9sYxSx0BgtJ+LV1FAtk2hkk1NjdF5JOtbNP1+M/nw9o0c/c0A+wKhAjiPmVCIDO/WUIAWaNEvGMmQ0Q0bTdoqkZCRFRjLB+HAoMxzKFKhl5eKueNAUnGYyKL3CE4kFY/5MC6Nav1nttxuCUW8qHh2CwaRWkz0UCIfcOZwaGKVI6tbLXS5LgMAs/SIlhdGJazl3rf1FF4Dpqm7u1XwhRywV9Cv6BhR9A1JBv5gr4a0VcNZwOWt6erkSvQoJ+kI1uOKZPQa6ezwiLSBq1IBgzSmrDvw9UKNTw2iZfVUfXFH3GRs1MKUyH4wDec4HNkmIzJUhEAJVLpWD7gCuNQ6I5NJusaRLBEgqkOn61RbEFHD7AUmpuY/VajUfTma1npzCkZXbUhJwnHFqlE9hUYCUp01AtLZTRYAwN2E5s6SjQqW9Y1mAFAX6CuGH6q+aG8kO2JJgngWRt4XhqnrVQAysqyI0AD62d2QevDzZ2emaMzZmYgUKpmjFTfn36vVhnQf+vRmRkfVKvVFvZIaG3EajUSbVcLvVnC5AUjA3lI+KxbhMZlYqrYODZqUSl0gRgQi6mHRwhLSbpwEM7dGCcVIexhOgfBkqUiJgnBR4nAx9OhqpqFg/NnJKjZ9S4fpgIag2TMcyLX1Kk7TdwQcwbQtSuDIpGC2lSNpaLk8DO/UtjGaDwVIiXksn6tlEIzc9RheApGMDoNPwlFavVJ3zwui61SBuFGB0qOViGsOoo4XRlD2aJqPFaHY4mh3O5BNDYIXQVDJdKBSL8eL0GIUuptZ6o3qvTeeDKzwRWh+h8ZkH/alYPpfJRcOxcDCaSqST4ZJFE0SUbohRXO0PeMOoFpcK5NNglCZp95oeOAwqWC/irRNyr+Z3reauu5LDWdMj7pEY1GgkFIWDeiNEEGI022tp5MHgVMkiuuQwqlpRVV5ZDxFgJLFeL1gjEKMANwQVNl+vJ6JDFsSskahk3D5Jl0jC6e3vkQyI5Lp+tdmA+53eTDINF29tLfs0Uq5li5l+ILU6MXo+YIJEY3Kto6Rjs4N6JYEhK0IrRi+kfCUxnOmlNKnAVHbHaxUqntQ/VBIaSgIDDUfm6ToOSNdhZuj6UzWGWaEkQApCpAIX4qrX8wbfJBjFcbxfpuPzNN3dam63toeLgIB8OanTeXA8QpIeo5HUaol+OSIU6Xt4QJZ2Qx3awqiO02Pg8gxcMSIAJDX0qoHvHg6Vwj4+5X2iO/tIn94AFtKHa5oYqLj9MaS2wNoeMwVrRLVJaqRJ2l7gmcYomFkPMWowQxdTLhQqJ4AUnR1G55uk84fRrvF4bQnVdau5vTwZqsPBZFBqTj3EaNYRSzsAPTOOWD6QzqfyyUTK7w1aCdJoIDC9icCsPndgOJdPeVOB9tIkPjzYsd7oxBWe2gvltVZ4CnuTw8PDI/mRUrEEu9sjI0U7HtEpvSa9z0cmHVanWq4F0aPU/PqxRUhbbxkBahSkKyhNemV31youZzVIYBpoe5Gn7qt4EoEM0+FDMWo1uVqjrPEDKcoz5eSuRqXeqJVrGKc6QI2NDqwAmUsmVQYuqw65AElrjazaTfXNiazEVhspNeqNbCpD4jatTN3Pk0g4vdJusZwnHRDJ1ZIBRKkj9LjX7h6KxIuFIvz7BI5TreWUTjhCmte4gfuuUinJLWBujwBlYojO07ihSzoyM1boqA83SyKkTviB1gNry4bgpaUFRAEPwsHTii2Ql4Dh1El3pwvP9+wT6wPfVy9SQRzwLS/l4WHYGDB1FfWBqR+1Wjoe95oIs3IA6e3VU5OaDEIhDlz2Or/VOuTzDTu9ca/Xb7GSWi0uAQvp6ymMQilKqdFW717fLTD0iFGBHOkdRABJQTypQawzUNBkfgKMSlqJufxzW5y2ltBvLbXHeBMJ4Cl43Uj7RSMKSo0OGMHMenUbo4jFDcLvHQCjSQZGr/z5+lU/mzFNCNGng/aZsfqwkFlyPvkxt/40QrWzj8+EKXDir13F5XPEWpXB6/bnqfB7GqMZZywXHCqlC4lo0uPymXEbCPmUDIr5/WJ+v1Sk1Ksxp92dTefCljgcG52IUWoBfGqR5vZ6oxYtteRoe6E8VO1C1S5M4zQjzky82Bq4rNczsUIsnPA4fXo1KhHIuWsFMHT0mis4zDRGVbhCPlz3nvEJ8cq9mt8vUhCYOZMCa2U2ao1hhRPIpR5TURNs1Bu1Ur6kv5pC58pLB6DwSsuKlVX1FY08mAZeCIIJstQfGKKaBkPGuXSWNNmo4VGZjCdVCuWDEpVOrtHLtQalDlEZTDrcQZAhbzCXydUpZ3Sj0RjWeFI94DgRMV5IU68VyBRqCluJh5T5jCRo5UvMwsnyAEzM8o5N5ld8ionUJwg2wr0tjJJheGmAXwKiYKEmsxUbFU8MYLTjCOM3J2keHAcYX40+yMT6RRFSt4JlnoGzPpMdkrug4yvBM1Y8wPLVSiUZDntNhE2tMckVmESC9fUZJRKLasBjMsV8vlwoWjCTuVA45vV6cNysUBr4QqBGOcBxT6UeLWesd6/r7tFxedR7R2St3r0Y9O4BTMV6OoEl9PsMBipRbyUxtD8RRIIYpAaD1IBIEZhQGdJK/Sjaj2L9KCbHMDlmlGO4AjMqjfiAkaAwatXgNh3hQIAaDVrILMBoopZJ1LKJei7x/wMPzeSmPltfUQAAAABJRU5ErkJggg==;" vertex="1" parent="WIyWlLk6GJQsqaUBKTNV-1">
          <mxGeometry x="570" y="31.5" width="450" height="467" as="geometry" />
        </mxCell>
        <mxCell id="SyApvD5rYvNBRnNYpfSM-26" value="" style="shape=image;verticalLabelPosition=bottom;labelBackgroundColor=default;verticalAlign=top;aspect=fixed;imageAspect=0;image=data:image/png,iVBORw0KGgoAAAANSUhEUgAAAbIAAAKjCAIAAAD3cx3oAAAgAElEQVR4AeydB1wUR9/Hl16kWmM0iNFo9IkajSYxxhZLysNjfJI3eUyxa6omzxM9NBrsnV4PRLGAxgaCil1RUVFBQCN2BaVev+N63Td7A+tydxwHHHDH/TfzIbOzU7+z93P6Yp4+r5puPLx76xjTw1qOTy+fPoTx7YuMd8e+Xh37eXXs592xn3cn0vT37tTfq1N/7879fboM8O36j47dB3V6eXDnnsO6+A3v5v9Oz77vvzIowH/Y//V59+u+I2f1HTnrtZGz+r47o+/IRpjXRs5sinlv1mtNNf3em0UaMhLSBVlIdx1Lv/dmaw0RA3qk9T+z33v1mRdp6STRArfUPDSQ7mujiPybJQ/99eLRdzFLQo2KpP97s3QMGdxI9lAQ0qdBi360Oi5E/KNqzItHo2b1J817yD67/6i6Ri/PL4KTj4gglKgIu77LrNdH1TH9694ST2vy8CIqnSCY5ahVq+XENFkk9NFLa7w7v07I4ktvdOw+uHOPoV1eGdbVb/jLr77bY8CHvd6c+uqIaX3erZHF196d0ShlbLImoldW57eto2IGbw2+6yY7Ilkk/lKUhapHOnbzSI9p2aMm3UC6lMw34NNA0qNmaf8Z0NUdnd+wgYB6AmrMj76yNCa4TmaoUki1owzoeO5HalBTLcZl8fUaXauriUgiCbXSc6dmw4AIGpBFHR1ESqojfDryqvPUmmTRy+fVJhh9tTVdFpEyend+3afLQN9u/+j40uBOL7/Zueewrq+89ZL/2z37jfd/45M+wz7v8+6M17StRaLBOHKmiQ3GpmjiyJk6YofebB1HI7fGfooN//AorcUXDS6qHunYGy86DeehvjipSdfnp8a9WbKIWkPU36ohO1VcDDLXl6c63hoji6SukTGQLqRF/xFyIT2Y01JH2l60yKjyZFj+6jbravy896Lpp6Nlxm9JpSO9kS610qybN1JPQRb7ajvRr3l1fK1uJ7qmN61tMPb37jzAp+tA325vdOw+pHOPoYQy+o14uc8YvwGTe7/56atvf9OXUMaZtbJYvzLWaU62dg9ap3VJ/lSaYEHKWxuQKklUewPyVBvcLN4akW4ryGJ9KmNqkU2WRcMJ1REmbfur9t8b0j/KCXlrTkud1HWlB2kTKVUNWVDjUTeShkIR/kkRJD2TLi0ii8NGTNydfKC8okoilSqVKo1Gg8MFBIAAELAwAhqNRqVSS2XyKib34NGLk78MJJWR1ErS8vr7swij1VPM06e3KcbLp7eXT++lv69ls7kWVnbIDhAAAkDAJAJcvnBD5F6iLYlEsPbvCxfTZdHLp/eChUv4fIFJKYMnIAAEgIAFE6gWipdvSqqjjKRQNiiLqIXo5dM7PCIeesoWXMuQNSAABBpHQKPR7Nh38oUyorHI2sajsU40ksXDhzNBExuHHHwDASBg8QQ0Gs2Zi3k1ykjKoimtxaPHTll86SCDQAAIAIEmEjh6OodQRiSLtX+NtRZXrNoM7cQmwoZgQAAIWAMBjUYTmZiqK4vkAKKOZcrUb0ETraFaIY9AAAg0i4BGo5n3WwhVGTEdNSRvYd65WaQhMBAAAtZDgMsXNiyLC39Zaj0lgpwCASAABJpFQKPRBK7ZSiqj4dZiZRWjWYlAYCAABICAVRFgsnkD3p+FjAFZfH3ASBhVtKoKhcwCASDQXAIajWb8Z7/VK4vxCTubmwKEBwJAAAhYG4GtycdIWfT38kGG2PXs5dO7tLTc2ooD+QUCQAAINJfA4+LyAe/PHvD+LKxWE/3JOWiJVNrc6GvDHzqaHZ6Qln/7ca0D/B8IAAEgYKEExBIZKYs1jUTyhFeVSmWuXO9LvxBKTw2lp+bffqxWw/lj5uIK8QABIGB+AiqVWiuLs6lTLjVnX5t3vuXPwzXKmHfrkUKhNH9RIEYgAASAQF0CTRMxjUajHVs0JIt142/unUajSTt+JZSeGrk1PSfvnkQqb26MEB4IAAEbICBXKEvLWSyOQKVWm17capGk5HlVaQVLJleYHor0WW9rkfTRHItEKn9eznxUXP64uOLh0zLUlY7efuT6zfsqVSMK2Zw8QFggAASslwCTzQ+lp+5NyyqtYKlNU0ZBtfjMxfzIxPTElBPPy5lNKHuNLHr79NYxTYiLGkQklj4pqbiY89e2lBNIDal/d+4/Aw1GKi6wAwEgYJAAv1q8Ny0rlJ765+ELz8uZDU5O8KtFSBMjEg6nn7jK5jbl2OwWkUUGi3/uUkFico0g7th3OuNkzpmL+UgZIxPTT1+4qVCYbUrHIE1wBAJAoB0Q0Gg0pRUsNDmxL/3iszJjyki2E8O1mshg8ZpGwMyyqNFoGExe6rHLYfFp4QlpGSdzrtwoevi0nMsXXs29G0pPDU9IO34ul82tblp2IRQQAAK2RkCtVj8vZ+5LvxhKT92XflHbZjQwBCeWyFA7sZmaiOP4wNGzB44mplzI5dw1lqahZ3EEB49mh9JTt+85eeHqbTZHgNbjXM29G5FwOJSeeuJ8HpcnbFrkEAoIAAHbJKBWa56V1Sjjn4cvlFawdGaZpTL5ueyCyMR01HducjsR4a2RRZ2BRW+f3k2gLxRJ0jKJ6ebdB87+da9YLJGhSK7cKIralhFKTz2ZdZMnEDUhZggCBICAjRNQqzXPy5moN703LYvB4pHKqFSpT1+4SWji1sOHj19ppia+aC02XxY1GiLT4Qlp8bsybxQ8UChfDB0eyLgUFp92/nKhSGy2nTM2/opA8YGADRJQqzWVDC7qTe/af4bB5qPOaMbJnPCEw+HxaYePXzFLw8tsrUWhSLJ9z8lQeuqRU9ekdZcl8gUiJosPU882+B5DkYGAeQkQsxcsHpqb3r7nJIcnTD1G7C0Oi0/78/CFaqHYLMkNfH/2wPdnY81vLQqqxWhI8f7jMrPkDCIBAkAACOgT0Gg0LK4ANcLid2UiTUw+eM6MnVHzyKJKrb5V9DSUnpp+4mqDC4v0ywkuQAAIAAHTCWg0OIcnjN+Vidb87fjzlNysW4prZdH3Ve+6xvQs4jiuUCj3ZRDT5+knrjYqIHgGAkAACDSBAOo7I1mM3pYhMFP3GeWkRhZ9fF7VMY3KqFyujNl+pDmyePJ8Xig9lcnmNypd8AwEgICtEVCq1CfO5aK+844/T0VrV7nE78rkcKs1ZjqfyzyyKJMrIhPTmyyLSqUq88wNkEVbe7+hvECgsQSkMjmxFmdrelh8WvLBc3KFUiAUo9709j0nWVwBuWqnsTFT/ZtHFhUK5e4DZ5osiyy24EDGJZBFasWAHQgAAR0C1SKJVhMPhyekpR67TK6M5vJFuw+cDaWnphw6X1bBbtRZOzpJoFvzyKJKpb52814oPfXw8SvKxp9fe/te8dbkE2HxadCJNlhJ4AgEgAC53zli6+HUzMvUtTgaDc7iCtCqnUadtVMfVfPIIo7jHG51KD115/4zJc+r6kvMoLtGozl/uZAIu+80jw/7Ag1CAkcgYNMEqOfiHD5+hcXRPReHup7RxLN2jAA1mywKRdLte06GxaedvnDTxGPRULYqqjj7tT3o6/n34eBuI1UFj4CAbRIg24nGz4Bo1Fk7xkn+gzgqYhamMw3t4/Oq8WD6T5VK1c1bj0Lpqbv2n3lcXKHvwaBLtVByKutmWHxa0p+nSytYBv2AIxAAAjZLoFHn4ph41k6DMP8xevY/Rs82gyziOF4tFB/SHp+z59D5ktKGu9JSmSKv8GHC7uNh8WmXrxdJZfAlgwbrCzwAAdsiUFHFadS5ODpn7TTt2AhSFnv7+NQxTWCvVqsfPinbvvcUmjt/UlJhpDfNrxZfvHob7eDJPHPDLBu8m5BnCAIEgIDFEkAjhokpJ9JPXDVd4Mizdo6fvcFv0pFd5pRFtN3lzv2SpL2nQump21JOpB67/KSkQuezLQql8uatRymHzqHTxk6cy6VOKllsDUHGgAAQaH0CSqWqisnjVzfuQEK1WsPlCYUiSdMybGZZRMr4rIyReuxyKD01LD5ta/Lx3QfOUs2u/WfidhwNpadGJBw+lXXTjBu8m4YAQgEBIAAEqATML4s4jqvVaolUnv/X40RD37dC2xgPZFxisvkyWVM+V0gtANiBABAAAuYl0CKyiLKoVqvlCqVILL2SW7Rz3+nIxPTYpKOpmVfuPyqVyRUKhdIs23TMiwNiAwJAAAi0oCwCXCAABICANRIAWbTGWoM8AwEg0IIEQBZbEC5EDQSAgDUS+MfoWf/Q7nKps2jRp0lf/rPG8kOegQAQAAI6BEAWdYDALRAAArZOAGTR1t8AKD8QAAI6BEAWdYDALRAAArZOAKZcbP0NgPIDASCgQ+Afo2e/oT1BB6ZcdMjALRAAAjZK4I3Rs0AWbbTuodhAAAgYJKCVReIYWmgtGuQDjkAACNgcgRpZ9PXprWNsjgQUGAgAASCgJQCyCC8CEAACQKAOAZDFOjjgBggAASAAsgjvABAAAkCgDgGQxTo44AYIAAEgALII7wAQAAJAoA4BkMU6OOAGCAABIPDGmNlvjJ6F6azO8YWDxeDVAAJAwFYJDBoze9CY2SCLtlr/UG4gAAT0CIAs6iEBByAABGybAMiibdc/lB4IAAE9AiCLekjAAQgAAdsmUCOLHX166xjbxgKlBwJAwHYJgCzabt1DyYEAEDBIAGTRIBZwBAJAwHYJgCzabt1DyYEAEDBIAGTRIBZwBAJAwHYJgCzabt1DyYEAEDBIAGTRIBZwBAJAwHYJgCzabt1DyYEAEDBIoFYWvf071jUGfYMjEAACQKDdExg0Zs6gMXMwHU3s6O3f7ksOBQQCQAAIGCQAsmgQCzgCASBguwQGjZkzGFqLtlv/UHIgAAT0CAwGWdRjAg5AAAjYNAGQRZuufig8EAAC+gRIWezd0buO0fcKLkAACAABWyAAsmgLtQxlBAJAoBEEQBYbAQu8AgEgYAsEQBZtoZahjEAACDSCAMhiI2CBVyAABGyBAMiiLdQylBEIAIFGEKiRRV8vf18v/47evZHF1ws2/zUCIngFAkCgPREYPGb24DGzMZDF9lSpUBYgAASaQwBksTn0ICwQAALtkADIYjusVCgSEAACzSEwZOycIWPnQCe6OQwhLBAAAu2KwJCxs4eMhbHFdlWnUBggAASaRaCOLJLT0DAT3SyoEBgIAAFrJlCnEw2yaM1VCXkHAkDAPARAFs3DEWIBAkCg3RAYPGb2iykXaC22m3qFggABINBkAiCLTUYHAYEAEGifBEAW22e9QqmAABBoMoE6stjRy580TY4RAgIBIAAErJqAgSkXpIxWXSrIPBAAAkCgyQQMyCKaeGlyjBAQCAABIGDVBEAWrbr6IPNAAAiYnwDIovmZQoxAAAhYNQGQRauuPsg8EAAC5idQI4vkBDS5otv8SUGMQAAIAAFrIPDm2Nlvjp2NgSxaQ2VBHoEAEGgNAjWySHzIRWugtdga1CENIAAELJjAC1lEygiyaMGVBVkDAkCgNQjUkUVSE+G8xdZgD2kAASBgkQT0ZNGT+DIqyKJFVhZkCggAgdYg8Oa4OcSUi4+Xv45pjcQhDSAABICA5RF4E33L5YUmevZCdsvLKuQICAABINAaBEAWW4MypAEEgIAVEagZW6zTWtQ2GK2oDJBVIAAEgIAZCdQji569zJgGRAUEgAAQsCICIItWVFmQVSAABFqDgJ4s1k5Jt0bikAYQAAJAwPIIgCxaXp1AjoAAEGhTAiCLbYofEgcCQMDyCNTIoreXv46xvKxCjoAAEAACrUFATxY9/b21pjUShzSAABAAApZHAGTR8uoEcgQEgECbEqjdE+3p74OMh7+P1rRpriBxIAAEgECbESBkcdwcrEYTSXH09G+zHEHCQAAIAIE2JQCy2Kb4IXEgAAQsjwDIouXVCeQICACBNiUAstim+CFxIAAELI8AyKLl1QnkCAgAgTYlUCOLaK0i9W+b5goSBwJAAAi0GQGQxTZDDwkDASBgmQRqZNHL09+rdn8L7HKxzKqCXAEBINA6BEAWW4czpAIEgIDVEKgji6jNiP5aTQkgo0AACAABsxIAWTQrTogMCAAB6ycAsmj9dQglAAJAwKwE3hw3+81xszFq9xk60WYlDJEBASBgZQRAFq2swiC7QAAItDQB6ES3NGGIHwgAASsjALJoZRUG2QUCQKClCYAstjRhiB8IAAErI0DKYm8vT2SI7S5ecAytldUjZBcIAAGzEQBZNBtKiAgIAIH2QYCURX9oLbaPGoVSAAEg0EwCIIvNBAjBgQAQaG8EqLJIDCl6etSY9lZQKA8QAAJAwDQCQ8fPGTp+zotdLiCLpnEDX0AACLRbAjWySKohaWm3JYaCAQEgAASMEgBZNIoHHgIBIGB7BEAWba/OocRAAAgYJVAri57+nnWN0VDwEAgAASDQbgmALLbbqoWCAQEg0DQCIItN4wahgAAQaLcEQBbbbdVCwYAAEGgaAZDFpnGDUEAACLRbAiCL7bZqoWBAAAg0jQDIYtO4QSggAATaLQGQxXZbtVAwIAAEmkYAZLFp3CAUEAAC7ZZAjSx6ePbSMe22xFAwIAAEgIBRAiCLRvHAQyAABGyPAMii7dU5lBgIAAGjBEAWjeKBh0AACNgeAZBF26tzKDEQAAJGCYAsGsUDD4EAELA9AiCLtlfnUGIgAASMEgBZNIoHHgIBIGB7BEAWba/OocRAAAgYJTD0gzlDP5iD6azl9vDsZTQUPAQCQAAItFsChCyOB1lst/ULBQMCQKDRBKC12GhkEAAIAIH2TaBGFt09eiHTwaNXBw9if3T7LjaUDggAASBQH4FaWfTs5a41hCx6Eqa+AOAOBIAAEGjfBGpkEUkh9W/7LjaUDggAASBQHwHDsujuAa3F+oiBOxAAAu2cwItONGoq1owwQie6ndc7FA8IAIF6Cei2Ft1hbLFeVvAACAABmyBQ21r08Heva2yi9FBIIAAEgIAeAZBFPSTgAASAgG0TAFm07fqH0gMBIKBHAGRRDwk4AAEgYNsEQBZtu/6h9EAACOgRAFnUQwIOQAAI2DYBUhZr9kSTm6NtGwuUHggAAdslMOyDOcM+mIORakhabBcJlBwIAAHbJgCyaNv1D6UHAkBAjwDIoh4ScAACQMC2CYAs2nb9Q+mBABDQIwCyqIcEHIAAELBtAiCLtl3/UHogAAT0CIAs6iEBByAABGybAMiibdc/lB4IAAE9AiCLekjAAQgAAdsmALJo2/UPpQcCQECPAMiiHhJwAAJAwLYJgCzadv1D6YEAENAjMGzCnGETYE+0HhdwAAJAwGYJQGvR5qr+jz/+OHjwoJFir1q1as+ePUY86DzSaDTV1dU6jma83bNnT2RkpEgkqi9OuVxe3yNwBwJNIACy2ARoVhxEoVC4urquWrWqvjLs27cPw7AvvvhCo9HU50fHfffu3WPGjCkvL9dxN36bmZm5Qe/KysrSCcVisbp16zZixIj68lNeXj5y5MgdO3boBGzUbUREhF5eCAc+n5+Tk3PI0PWn9jIi1o3KAHi2KAIgixZVHS2emWfPnmEYtn//foMpnTlzxt3dffjw4RiGBQYGKhQKg950HNevX49h2MCBA+/fv6/zyMjt6tWre1KuHj16YBiWlJSkE2TJkiWY9rp48aLOI3QrkUjmzJmDYdiKFSvUajVyDAgI8DThysnJQf4HDBiAUtH5W15e/uuvv+o4Um+5XK7BXIGjVRMAWbTq6mtE5pcuXdqlSxdfX18Mw7y9vbtor8mTJ5NRHD161NXV9auvvhIKhQcOHMAw7Ouvvzaxd7xz504nJ6f+/ftXVVWRETbKwufzMQxLT0+nhsrIyMAwbPny5VOmTPH393/8+DH1KWlXKpWLFi3CMIxGo6FGZVhY2KK61/vvv49h2MyZM6nODx48QJFItdejR48wDIuLi0O3UqlUo9FUVVU9NnR99dVXrq6upBCTmQFLOyAAstgOKtGkIhw4cGD58uVjxozx9vZeXntFRETgOC6TydasWYNh2C+//CKTyVB0aWlp3t7ew4cPz8zMNOXHv2PHDgzDpk6davpI37Fjx3bv3o2SQ83YCxcukIUpKirq1KnTF198oVAoOBzOO++888Ybbzx//pz0QLUolcrvv/++R48ez549o7qT9g0bNmAYdvfuXdJF35Keno5h2K1bt3QelZSUFBQUKJVKqvunn346ZMgQqgvY2w0BkMV2U5UmFeTrr7+ePn061WtOTs748eMxDFu5cqVCoVBTrlu3br311lsYhk2ePDk7O5sayqCdRqNhGBYaGmrwqb7j/Pnz/+///g+537p1iypJt2/f9vf3Hzp0KIfDQR6Ki4t79+49aNAgsomnE6FUKjXSizdFFmk0Wvfu3XXkD8fxFStWYBhG/oOB0h0yZMiUKVN08gC37YMAyGL7qEeTSqFQKDp16rRjxw6xWMzj8XAcz87OxjCsW7duo0ePpg6ZUe1LlixxcnKKi4trMI1z586hHrqJ0y9Tp0796aefULRZWVkYhqG23uXLl7t37+7n56fTuCsoKOjevXuPHj0uXbrUYGZ0PDQoixqNZuDAgfPnz9cJiOP4Dz/80LdvX6q7Wq12dXVduHAh1RHs7YbAWxPmvjVhLnzLpd1UqLGCFBYWYhh27969NWvW9OnTB3nNzMxksVi3bt3aX8+F43hJSUl9E8HU9JYtW4b0dNGiRVT3+uwjR45csWIFenro0CEMw9hs9ubNmzEMGzVq1LFjxxL1rpiYmD59+mAYhrr/hYWFpykXg8Eg01IoFGhwELk0KIvFxcUYhpGdejIeHMc//fTTDz/8kOrCZDIxDAsODqY6gr3dEHhrwpy3YDl3u6lO4wWJjIx86623NBoNVRaNB8FxnM/nmzLfqlKp+vbti2HYRx999PcSn6KiogZj7tmzZ0xMDPIWGxvr6+srEAjefffd6dOnCwQCJJTUdiuGYRs2bHj27Nn48eMTEhJwHNeZJqYOTSIdLC4uRvE3KIvbt2/HMGzXrl05tRfZ5h06dOi8efOoxblz5w6GYX/++SfVEezthgDIYrupygYKotFohg8fvmXLFhzHqbKoVqsn6F1lZWUnTpw4duwYjuOLFi2aMWNGA7HjeEFBAZpyefDgAYZh06ZNMx5EKpX+vaznwIEDyNsff/wxcuRIHMcrKyvR6J5Go6GMc9ZYUaNVJBJJJBIcx/Py8o5qr5UrV2IY1qAs5ufnk7PMUqmUzKFKpUKjqFQVRmshlUrl3zPOQUFBpGccx9FwQX1rhqg+wW6NBEAWrbHWmpJntNhl8uTJc+fOHTp0qKen59y5czdt2qRWqzEMW7hw4V7ttWrVqr8XshQXFy9atOjnn382XRaDg4MxDEP7Z/773/9iGGZ8BLC8vBzDMHL99owZM7755htqwchue25ubn5+PvlIIBCQj0jH48ePmyKLVNXz9PQkg584cQI9yszMvHnz5sWLFzEMQ7JYWVn598jDf/7zH2qH/ocffvjb/6pVq5CjicuYyOTAYuEEQBYtvILMlr1Tp075+voOHz585MiRPXv2dHV1HTly5IIFC5Askgu8c3JymiCLfD6/Z8+e3t7efD4fx/Hi4mJXV9cPP/xQX7/I8uTn52MY1qVLF7Sm29XV1d3dvWfPnqh3/N13323evBl5/vXXX7/++msy4LRp08aMGaOzZshEWVy4cOGa2mvdunUoTpFINGTIECSLaAGQQCAgZTE3N5cqpgbtaP6KzCFYrJ0AyKK116Cp+VcoFOQSE51ONFqC87P2+uyzz5ogi+Hh4RiG/e9//yNzg6ZfTp06RbroWIqLi6ntr8TExIiICAzDdu7cieP4hg0bhgwZglR1586d3bp1U6lUOI5XVFQYnOswURZ1prZRlvLy8lD3H8MwfVk02Jcne/cLFy50dXU1ov46pYZbqyAAsmgV1WTmTOrL4tSpU9ES7xkzZjRWFlksVpcuXTw9PalLqcvLyz09PYcPH44GAU0pQFlZGYZhaWlpOI6jNhpaWX3jxg0Mw9AWl23btpHreKhxNkcWcRz/448/0CCDvixSU9G3f/nll4MGDdJ3BxerJgCyaNXV18TMr1mzpmfPnqdPn96/f3/zO9FoODIkJEQnN2vXrsUwjOwL6zzVueXz+Xfv3sUw7Pz58ziOK5XKLl26bN26FU3CkKOQ48aNmzlzpk5YHMebKYsajebo0aMGW4v6aVFdRowYAYu6qUDahx1ksX3UY8OlUCgUd+/e3b9//+LFi9FKGgzDPvvsMySLv/322yHtRa5rMXHK5fDhw38vVenfv79QKNTJBIvF6tGjh6urK3XChOqHy+WeP39+/fr148aNe+ONN65evYph2M2bN5GfL7/8cs6cOX835VQqlbu7+86dO9G6S4Pzv1RZrKioQN1w1OxFsTW4QMegLP49A/Oveq7IyEiVSuXp6blgwQJqocDeDgjUyGIHj17IeHj2QqYdlA2KQCUQGBiIpgv8/PwGDhzYvXv3hw8fooGzv4+u8fPzG6K90GJpE2eir1275u7u7uTkhJp41OSQ/eTJkxiG9enTp6SkhPq0qKhowoQJKD/vv//+pk2brl69irqxpM/o6OjFixejUDk5OQwG43//+9/7779vcCAPyWJWVta2bdu6d+/O5XJJfUcxNE0Wjx8//u96rujo6OfPn2MYpt9MppYU7NZIAGTRGmutKXm+cuVKcnLyvXv31Gq1/tii/kz08uXL0WaV+tYtPnr0yM/PD8OwlJQUIxlCKwrfeecd6uE6FRUVP/3008GDB8vKysiwdDodwzD9VifyUF5e7u7ujkYeySCkJS0tDcMwdCTaN998w+PxmiaLCxYsQAUnZ6LJJPQtaOtkamqq/iNwsWoCIItWXX1NzLwpskhGrS+Lf28fPnDgQLdu3UwZOpTJZB9++CGGYf369SPPNyQjp1oWLVrUr18/qgvVvnr16hEjRuif44D8oJWS6P2i30IAACAASURBVKAKNGfdNFns3r07WjDUs2fP5ORkagb07dHR0Sbu59EPCy6WTGD4hLnDJ8zFoBNtyZVk9rw1RxarqqpmzpyJ+r+hoaEGu7Q6GeZwOB9//DGGYU5OTocOHdJ5im41Gg25x27y5MmkNpEWJycnT09P8ragoICMJz8/39fXt1u3bqdPn8ZxfNeuXT///PM777zz9/z1t99++7P2QrdfffUVukV/9+3bR0ZCHVskHY1YVCrVuHHj/P39kQob8QmPrI4AyKLVVZkZMmxQFpVKZUpKChqCrKioKC8v37p1a0JCwqBBg3755RcyVdRE6t+//5UrV0jHBi1CofC3337DMExn+uX48eO7du1KT09HR3yjXcZbt27d3NBFPXjx+vXrI0aMIA8cW758Oamexi3r168nc37jxo3vv/+exWKRLgYtKSkpmzdvjoqKmjZtGoZh5Jpwg57B0UoJgCxaacU1K9s6stinT5/Dhw/jOP7JJ5/4+/svW7ZMrVaLxeKhQ4cOHz58xowZd+7coaaXkZHRoHxQ/ZN2/U40OuzWycnJz89v8eLF5IJzMoiJliYHNDF+0tu+ffu8vb1dXV179+79yy+/wLY/kkx7sujKItmbbk+FhLIAASAABEwnALJoOivwCQSAgE0QGD5x7vCJlCkXaC3aRLVDIYEAEKifwIiJc0ZMnPNiJhpksX5W8AQIAAGbIACyaBPVDIUEAkDAdAIgi6azAp9AAAjYBAGtLBJji346xiZKD4UEAkAACOgRGDFx7gjtlAvIoh4bcAACQMAmCYAs2mS1Q6GBABConwDIYv1s4AkQAAI2SQBk0SarHQoNBIBA/QRAFutnA0+AABCwSQIjJs59e+JczMPDT8fYJA0oNBAAAkAAfxtkEd4CIAAEgACVwNsT50BrkQoE7EAACNg6gZpdLjo9aA8PP1sHA+UHAkDAVgloW4tzYGzRVusfyg0EgIAeAZBFPSTgAASAgG0TIGRxEsxE2/ZLAKUHAkCASuDtSXNBFqlAwA4EgICtEwBZtPU3AMoPBICADgGQRR0gcAsEgICtEwBZtPU3AMoPBICADgGQRR0gcAsEgICtE3hn8rx3Js/DPDxe0TG2DgbKDwSAgK0SAFm01ZqHcgMBIFAPgXcmzXtnErQW66EDzkAACNggAZBFG6x0KDIQAALGCIAsGqMDz4AAELBBAiCLNljpUGQgAASMEXhn0rx3YWzRGCF4BgSAgI0RAFm0sQqH4gIBINAQAZDFhgjBcyAABGyMwLuToRNtY1UOxQUCQMA4AUIWYZeLcUbwFAgAAZsiALJoU9UNhQUCQKBhAu9OnvvuZOJ0btgT3TAs8AEEgIAtEABZtIVahjICASDQCAIgi42ABV6BABCwBQJaWYSjImyhqqGMQAAImEbAVqZcFAqlSCwRVAt5fAGbw2Ow2JVVzLKKqtLySjBAAAiYTqCsoqqyislgsdkcHo8vEFQLRWKxQqk0TXCsw1c7l0WZTM7jCyqrmJUMJpfH5wuqiUqUSGQyuUKpVKvV1lFLkEsgYDEE1Gq1QqmUyeRiiaRaKOILqjlcPvETq2Ly+AKZTG4xOW16RtqnLIolUjaXV1ZRxWCxq4WidvZPWdNrG0ICgRYjoFAqq4UiBotdVlHF4fLEEmmLJdXiEbc3WZRIpZUMFo8vEIsl0Bhs8dcHEgACegTUarVILOHxBVUMllQq03tuBQ4jJ88b2T52ucjkcgaLzWJzFQqFFYCHLAKB9k5ArlAw2RwGiy2TW1nP+r3Jc9+z9uXcCoWCxeEymOz2Ma7R3n8sUD7bIiCTyRlMNotjTe0Vq5dFoUjMYnMl1jyQYVu/EiitTRKQSKRMNlckEltF6a1bFrk8AZfHtwrQkEkgAAQ4PD6PL7B8DlYsiwwWWygSWT5iyCEQAAIkgWqhiMnikLeWaSFk8UNr2+WiVKnKKqpgJNEyXynIFRAwTkAqk5VXVqlUKuPe2vDpex/OszJZVKvV5ZUMWHzThi8NJA0EmklApVKXVVRZ7K/YymRRqVKVV1Q1s0ogOBAAApZAoLySYZltRiuTRUv+F8YS3jPIAxCwIgIqlbq80hJbOdYki8S60Hax49KKXlzIKhBoUQJSmcwCZ2CsRha5PAHMO7foCwqRA4E2IVAtFFnaqh3rkEWhSAzrE9vklYVEgUArEOBw+SKxBa30fu/Due99aNnfctHurOS2Qt1AEkAACLQVAYs6zeC9D+eOsnBZZHFgb19bvauQLhBoJQLEYYAcS2n9jLJwWSTOxWGyW6lmIBkgAATajkAVkyWXW8TxV5YuizD73HZvKaQMBFqVgOXMStcniz1blUc9iUmkUhbbUtrV9eQRnIEAEDAbASabYwkn177/0bz3PzKwJ9oiZLGSwYIzZc32xkFEQMDiCcgViioGq82zabmyKJZILW01U5vXFmQACLR7Ajy+oM2PT7VcWWRzeWKxpN2/BFBAIAAEqAREYgmHy6O6tL7dcmURtj+3/tsAKQKBNiegVhOH67RtNkZ/NG+0BY4tEt9/YLXgupyzZ8+eO3euPvRZWVnHjh3TaDT1eaC683hm/pdNo9FERkZmZWVRU6HaNdqL6gJ2INCeCBDfZWrTr2KN+Wi+Jcoijy+oFrbgydsRERF79+41+CY9ffo0MDAwNDRUqVQa9EB15HK5QUFBZ8+epToasYtEoj/0rsLCQmqQwsJCGo1mRLX37duXkpJCTkZpNBpFQxd5fFNWVtZpvYvBYDx79qxA78rPz79+/TqZEDWTYAcCLUegWijk8atbLv4GYx7z0bwxFtharKxitsQ37+Vy+WPt9ccff+zfvx/ZmUwmiam0tDQoKCgpKSkoKCgxMbFBRRCLxXFxcTQaLTU1lYzEiEWhUFyhXFlZWTQa7cGDB2QQqVS6YcOGFStW/P7775WVlaQ71VJYWLhkyZLY2FiplPhC+fPnz2kNXRkZGSiGDRs2/PHHH0uXLqXRaMuWLUMSXVRUdODAgfriQKlQMwB2INCiBBQKZSXjxa+yRdMyGLklymLLQamsrNT/8R8+fBihefToUVBQ0P79+9VqdXFx8bJly2JjY8UN7WBXKpXJyck0Gu3SpUsGERtx5HK5NBqttLSU9LNnz57169dXV1fT6fT169fz+YY/4PXgwYOlS5fGxsbK5fLq6ursuld0dDSNRrt48SLp/PjxYzIJHMcvXLiwdOlSqujLZDKh3pWRkbF06VJqQLADgdYhUFHFNKW71kKZGfPxvDEfW9i6RZFY3EJTUUqlksFgnD9/fsmSJWVlZQztJRAI1Gr12bNnAwMDDx06RA4plpSUrFmzZuXKldeuXTN+urpSqYyOjg4MDHz69GmD9fT8+fO1a9cKBMT3z1BDj8utWbKelZVFRiIWizdt2hQcHIx86kd7586duLg4mUym/yg1NZVGoxnJ87Zt2xISEnQC5uTk6PTc9+/fv2HDBh1vcAsEWoEAh8tvw4UoliiLgmohX9CCIwuHDx+m0+lk1T558iQkJIRGo23atOnGjRu5lOvcuXOovxkZGWn83y4mk0mj0UJCQoyIEUrx7t27f3dgUUvt/v37NBoNSduVK1doNBp1mJLBYKxYsWLjxo0sluEFrqSCk2VBFuOyqFKpli1bdv78eZ1Q+lqZmJgYGxur4w1ugUArEGjp2QXjRRj78byxltZabGkiISEh58+fv3v37pkzZ3Acf/z4MZ1Oz83NXWPoOnLkSHZ2dk5OjnGOaJ6ERqNdv37duM/c3Nxly5YhP3l5eX8P8KlUqoyMDBqNlpKS8uTJk6eU6/r16+vWrQsKCrpz5w4KoqZcTZPF4uJiGo327NkznXyGh4frTEMFBwfruOgEgVsg0EIE2vZsWlIWe3p41DEtVFpTomVzeGJJSy3kRsN5DAbj9OnTmzdvRvkRi8VldS+ybcjhcKKiokQNfZB6z549NBoN6arc6NqCS5cukT3TrKysTZs2PX78mEajZWVlXb16VWfoEw0vhoSEpKWl4TjOYrGoHgoKCsj8JyYm3rp1C90aby2ePHly+fLlcrlcqb3ISeo1a9ZkZmZSK2j58uUnTpyguoAdCLQOAbFEwuaYeemb6Tkf98n8cdrWYh1N9PBoyz3RLXpqzvnz50NCQnAcp8pibm4uVW5oNBqHw7l9+/b169cZDAaNRqtvgA+BVqlUQUFBGzZsePjwIY1GQ43Q+uogMzOT7JlmZGTExcXhOI5mXWQyGa/uhaZcJBKJUCjEcVwqlaIu/rlz52g0GimLAoEAzbGgRJEsMhgMVu1Fzq6oVKo1a9ZQC5uYmIjjuFqtDgwMzM7OJrMtkUhoNNq1a9dIF7AAgVYj0NIrl40XhJDFT+ZjOk3FtpXFFlqdg+O4QqFYsWLF8uXLN27cGBQUtGTJko0bN2ZlZeXm5q5YseK+9srJyUGyePTo0ZSUFFNk8cGDB6QaxsfHL1u2zIiM7t27Nzk5GdXKrl27UlJSdGpIrVbfunUL6SDKs/54JcqVcVmkat/9+/dRKugfgLVr1xZor+joaCSLqBG9f//+q7XX6dOnaTRaWlra1atXc3NzdTIJt0CgRQkolMrKqjZbozP+k+/Gf/KdZclii27727t376FDhzIyMqKiooKCgjIyMoqKinJzc1evXq3QXqWlpY2VRTqdTqPR2GxiW05JSQmNRtu3b199Lw2dTl+yZAlaMBgYGIjsxcXFGRkZqKeM4/iKFSvy8vJQDJmZmWvXriW7usjRFFm8ffv2ndqrupqYwpJIJKtWraLRaMHBwSielJQUJItPnz7VW2Ze4xAYGLhx48b6igPuQKAlCLTtFsDxn8wfb2mtxRaVRbIKG+xEm9haRE1FJC4o8qSkJBqN9vz5czItquXBgwe3KBfqDldUVPw9V7Ny5UrUMNy2bRtaTalWq9esWUOurCTjMUUW9duYlZWVgYGBdDpdXxbJmPUtW7dujYmJ0XcHFyDQcgTaVhY/+Of8DyxNFluuE02tRSSLGo1GJpP93UlcuXKldhUjo6ioqFGtxcjIyMDAQOqOlPLychqNFh0dXd9MMTUb9+7do9FofD5fJBIFBgaiddcnTpyIjo7GcRyt4Kmq0t053zRZxHH89u3bx48fb5QshoaG7ty5k5pnsAOBlibQtp1oQhb/aWFjiy065YLjuFwuf/LkybZt25YuXbpixYrjx4+jTrRYe6H1KxwOx5TWIlpsSHZ+yXclJSWFRqPdvHmTdNGxCIXCW7dunTlzJi8vj0ajoYnvsLAwNF1z48aNoKAgHMeTk5Pj4+N1wuI43mRZxHFcXxYFAkFtb7vO/5FGBwUFpaen6+cBXIBAyxFo2ymXCQHzJgQQu1wsaCa65RbocLnc8PDwwMBANB0RFBR05coVNpttcCa6QVm8e/duYGDgqlWr9Jfv/H2szt894qCgIGorEsfxBw8eHD58GK0eX7ly5YEDB86fP79q1Sr0eh06dGjbtm04jpeVlR08eJDFYgUGBlJ3TJNvISmLDx8+vHTpksGZaP1ONAquL4t37tyhzs+Q9oiICDQfbeQ4HzJLYAECZiTQtgt0JgbMnxBgYa3FllvOrVQqd+7cmZ2dXVZWdvLkSXLdYm5u7qpVqwTaC60ibLC1WFZWtnz58mXLlumvi0YvB9rNsnbtWuq+5iNHjmzdujUrK6usrAx1sQ8ePBgVFYWCCIVCcr0kjuNHjx6NjIw0+KpVVVXRaLTt27cvWbIkKSmpsbK4atWqi9orNDQ0MTFRpVJJDV1yuRxtT7x9+7bBbIAjEGghAm27nHtiwHcTAyxsJrqlN/+hitSZcvl7+zNyRw0xDoejUqnQHmr9dYuFhYUrVqwIDAwsKioy8locO3aMRqOtXbvWyF7p0NBQg9PWQqFw2bJld+/eNRg/6nrTaLQDBw4olcrGyiKNRiPnnXfs2GEwCeR4/fp1Go3GYDCM+IFHQMDsBFqubWRKVidN+W7SFAuTReLUcp7hk2NMKZKJfgzKYnFxcXZ2No1G4/F4YrG4sLAQLd8jz9ERi8XovJxly5aRywbrS1GtVqMDuwIDA8kFNziO83i8+/fvP378+NKlSzQaLTc39969e6ROIcvvv//+95jj8uXL0S21K61QKNA8Dzqz58SJE4cPH6bRaHQ6/bj2CgsLo9FomZmZ6Pb48ePUXjC1E11fzkn3Xbt2rVq1ypS5IzIIWIBA8wlw2vSbJZOnfDfZ0mSxdSahDMrisWPHli1btnPnTrVarVAo1q5du2HDBvKwQhzHb9y4ERgYGBYWRj2l0chLoNFo0Cle1AYjl8tFJ1D8/vvvycnJKpWKy+XWLqM2/H/ylB0cxwUCwebNm8ld0kFBQTqSqn+LNvagfGZlZVGXE+lnns/nX7p0KTc39+TJk2hFt74fcAECLUqgbQ8Ws0RZxHG8FdboUGWxoKCAKhzG6/vp06fUEUDjntHT+o7AMSWsQT+NzYDBSOpz/DvylStXBgYGLl++PDExkdxvU59/cAcC5iXQcieumphPQhY/tbBONNHNbOGPFphIB7wBASDQ+gRaZ3bBSLkmf2qRsti2q5aM8IJHQAAItDSBNv/E1eQp8yZPsbB1iwh662wBbOkKhviBABBoFIG23faHsmq5ssjh8kTiljp1sVH1BJ6BABBoNQLEQhRuiy9EMV4cy5VFsUTK4xMfPIELCAAB2yHA4wnE2k9atmGRLVcWcRyvYrDkCkUb0oGkgQAQaE0Ccrmiimn4y0WtmQ2LlkWpVMZkc1oTB6QFBIBAGxJgsjlSqYGPWbZylixaFomjYlhsmUzeylAgOSAABFqfgFQmY7IsohmklUULOyqCWh8yuZzBJE69hgsIAIH2TaCKyZLLLWLQbPKUeR9OsWBZJD53x+FKJNL2/UJA6YCAjRMQS6RsDtdCIHw4Zb6ly6JCoWDBCKOFvC+QDSDQMgSYLA75fcqWSaERsVqBLOI4LhKJW+FMnUZgA69AAAiYj4ClLVK2gk40gg+7pM33EkJMQMCCCLTtibMGQVj6TDQ100wWRypr+8l7apbADgSAQHMIWOYivMlT5k+28CkXKvTyyiqVSk11ATsQAAJWSkClUpVXWuLB71YmixbL0UrfS8g2EGhDAmUVlZbZypkUMG+SpX35z3g9oQM2LJOm8ZzDUyAABBABon1TUVXfxynbnNJEQhYte92iPiNtm7EKxhn1yYALELB8AlKprLySYcktm4n/nDfxn9Ymi6jimSxOtVBk+S8B5BAIAAGSQLVQZPkHHUz8ZN7Ef1rkMbQkRyMWHl/Q5kezGckePAICQIBKgMPlWcVpgRM+mTfhE6uVRWKlt1jMZHPEsDuQ+vaBHQhYGAGxRMpkc6zlYGmrl0UcxxUKBZvDrWKyYLTRwn4LkB0ggEtlsiomi83hKhRKa8HRHmQRsZbLFUwWh8nmwMm11vLyQT7bNwHiJ8nmMFkcCzkXx3TaNbLo6dFTx5gehUX5lEplVQwWly8QiSUWO/1vUcQgM0DAvATUarVILOHxBEQHzgLOlG1C6dqbLCIEYqmUw+WVVVQxmOxqodCKWu9NqEIIAgQsgYBCoRRUCxlMdllFFYfLt+rDANunLJJviUwu5/GrKxnMiiommgWrForEEolMJlcoldCcJEGBBQiYSECtViuUSplMLpZI0CkPHC6voopZyWDyBdUyeXs4S7+dyyJZ00qlUiSuqUU2h8dgsSurmGUVVaXllWCAABAwnUBZRVVlFZPBYrM5xGobop0hliiVVjOdQmqCEYutyKIRBPAICAABIEAlMPGT+cS6RZ35Fk+PnlRPYAcCQAAI2A6BiZ/Mn/jJfJBF26lxKCkQAAINEABZbAAQPAYCQMDWCBB7oqETbWu1DuUFAkDACAGQRSNw4BEQAAK2SABk0RZrHcoMBICAEQIgi0bgwCMgAARskQDIoi3WOpQZCAABIwQmfTJ30sdzYYGOEUTwCAgAAdsiQMjiJyCLtlXpUFogAASMEQBZNEYHngEBIGCDBCZ/PHfSx3OgE22DVQ9FBgJAwDCBSR/NmfQRyKJhOOAKBICALRIAWbTFWocyAwEgYITApI/nQCfaCB94BASAgM0RAFm0uSqHAgMBIGCcAMiicT7wFAgAAZsjMBmmXGyuzqHAQAAIGCUw6aPZkz6aDQt0jEKCh0AACNgSAZBFW6ptKCsQAAImEJj80azJH82C1qIJqMALEAACtkFg0oezJk6eCbJoG7UNpQQCQMAEAlpZtIHWokQqFYpEfEE1h8tnsjlVDFZ5JYPJ5pj+eVzwCQSAQGl5JZPFKa9kVDFYTDaHw+VrvxQtkkqlJqiN1XiZOLn9thZVarVILGZxuKXllVwen8sToG99S6UyuUKhUqmsppYgo0DAkgioVCq5QiGVykRisaBayOUJuDx+aXkli8MViSVqtdqSMtuUvEycNHPipPbVidZoNNXVQgaTXV5RxeHyJRKpRqNpChsIAwSAgMkENBqNRCLlcPllFVUMJrtaKLLe392EiTM/mDgT8/LoqWNMpmFZHgXVwtLySr6gWiaXW1bOIDdAwGYIyORyvqC6tLxSUC20xkJPmDjjg4kz2oMsCkWisooqvqDaGqsB8gwE2iUBvqC6rKJKKBJbV+k+mDDjgwlWLotisaSiksHlCdrBoIZ1vT2QWyDQIAG1Ws3l8SuqGGKxpEHPFuLhgw9mjP/AmmWRzeFxuDyl0fkTLAEjTLzWILtpf+0TMPsEzM6gZzK2rRi2VRs/1dsLR7ua1HWeGokZ+dSPk4zB8KO6CRn2o5dPMk4jlvg6oey0ObePx+zj7exqH1nI2wzZsFgCSqWKzeGxuTyLzSE1Y+M/mD5u/HSr7ERrNJpKBlMsafifoDqySMpZAmYXj9nT7Rzi7O3p9vYJWlmhPMXQ778+vdD6tKNj9nF2TnEOLjEurtEurtGuWoPs6NbNNdqt1tHNNdrFJdrVRevTLdrV/UUQFFAnOBkPGTnp4qpNjnIb5eYS5eoa7eYSpU0ixs0l2s01ypVwjHJ1iXZ1jnF2jHO0p9uTWmZArw0Wtlb7sHiCmGOcvXOso2u0s1uUq1tUTdGorxTYgUB9BMRiSSWDVd9Ty3EfP37GeGuURblCUVpeqVAoTUFpR23xUYTPnm7nHOPkRqiJiwPdvqY5SaoACkXx/6LJqfVjF2/nGOvgFunqFebVeUvnbpu7dtv0ktZ07bYJGXSL/nbTPiL/duu28aWXNhG3L23q9hIRsJvWvFQbloyEtCA/XbX+u9X1RsRGGCIeMhtaF617l81dfUN8O0R4ukS72NPtTRVEHZXUaqJ7lIt3uGen4I7dNnV7qTZFU2oB/AABHMcVNb9chSXTGD9u+rhx31pZa1EkllQ15t8c3b5wTUOP0MSh+98ce2iMd6iXU4xjvb1spIxILil2u3gihp7xPaafmz7/9PwfT/244OSCX07+8usL8+uvJ/+rNb/+ehLZkeXX/5789b8n/vfbyd8WnVy06OSi/538H8UbNQaqHYX95ZeTv/xycuHCkwsXnPz5p5M//XTyR+3fn7R/f669/fkn4mmN+f7U97POzB6x9233yA4OcY5Nk0W7eMwp1tEzosOnx/4198ycH07+UJvuj5b8ikPeLJBAJYNlyUON48bNGDfOqjrRUpmMxeE2qqZ1xwe1fWekievvr9takjDxzwluUW51WosGG4l1W0928XZOsY7+O3utebJm05ONYY/CjvCOFOAFt/G/jJu/8L/u4ncf4A+f4E+f4c9K8GenS8/svLMrqWhHXZOUVIRMHfftRUmJd7fR78dHP4gJfxQe+jgk5HFIMGGCQx6HhhB/Q7SWUPQ3+HHo5idb1j1ZP+nEhy7RrvZ0h6bJIka0Fh3co1wXFPy88cmGLY+3aBMKCXkc3KjqAM9AAMdxJpsrlVnoKrpxRGvRemRRJJaw2I3TRBzHdVVA+/PuEOn+++2lWdLz1+XXE54keIZ71CeLRB+cqpKkvWZo0sE5xtk12tkr1HNh9oITvBNneWfP8s7VNWdrHQnLed75bG52YXVBBV7BxTksnLX+yIaJGyeN2zzeFDNmy9j3QkcNixzWfVN33xBfj3AP98gOWuPeIdLDPdLdPdLdLdLdLarGuEa5u0a7Oce4OMY62sVpe9BNm5CJx+y0Q7FOMU4u0S5obFGbiiv8zoFAEwiwOFzLbDOOGzt93FgrkUW5QtGovjNZT/XJYpctnRdnLwovCO+9xt8jogMhi3Xbg+iWmHulYw5xdo5xDtr5GTuDPp1jHTuG+ryyvserq3u/urpPXfNqrWPvV1e/2nflawOWD/x661dP8adVeGUZXnYfv5+H5+bgV3PwnLp/dW4JD1fwq9l49jHpMb+oV7zDvD0iPDpEvjBuUa6E/MUbnZhumiwagoMQkajBAgQaRaCSwVIoLG6cceyYb8eNsYaxRY1GU1pe2SjipGddsdO28pxiHd2j3Hpt9euX+Jp3mJdTrHZssZ5fvj3dziXGuQPREHNzjHMwKIv2dDu3aBevcA+fMC/vMJ+6xtu7xtHLO8zbJ9SnU3CnXuG9phycclmePTN1xqikUcOShw7aM3jQ3sGD9g4avGfI4D2DBu8ZrDUvbgftGTSIcB/yZvKb7+0ZGV8Wv4uxK5mZnMxMIU0SM+nttBEOcdqeMtmwNaiDBh0NEkDxaP/Z0B2R0PonUYMFCDSWQJN/141NyHT/Y8d8O9YqZLGSwTRx3lm/8DWySGqE1qJdnWPvEOfgGOvoEOdgR3+xqrF24Y6Dc4yTU6yjfZy9U5xjh0j3ITsGB90L8qH7OMY62NH12oxatXWMs9c2Kh0ciKalYeMY5+gY5+gc4+wb5zMh/YOeUT08Ijo4xTgR/ulaUxvQMZbw5hbl1iGyQ4fIDu4R7u4R7h7hnj6hPi9veXnKn1P+s2faN8nTp++eMWP3jOla8+XeL1+Lfa1DhLsLsRjIxSXaua6pcXSOoMVtYQAAIABJREFUcXWOcXGJQbdo2RCxjqfWuBAFp2ubz6Qm1sqivZ506jMHFyBgIgGFQmFpq3bI1mIPL486xsQitY43NodnyvrE+jKjK4t6v2pqc9IuHnOIs3eJc/FN6Nh3V59eSb28E7zcY1yHpAxemL3glwsL5+XM67XTT6uMhGrUWf1DXQlkNBUiRW1CxPLDKBciNp1urza4Pd2+z55X512b9+O1n3689tMP13744doPP+X8tPDKwv9l/7bkwpLl5/9YcXblyjOrV51ZvfLsqpVnVy07v/y37N9GJ7/fdXPXrpu7dd3cpa4hHbtpPXSt/dtN67nmb+ctXbzDvJxRC5r856S2RC/Wt2tXMtrFY/WRB3cgYAoBsVhiUSu9x46ZPnYMMbZYRxO9PHqYUpjW8SMSS9icZi2Op6he3RG32t854aF2XwpazNg9sfvYY+O+v/H9tKxpA/cO8I31Hrnv3eXXl806OnN54fIBO193jnYiGow6S76RTNDtiPXhxMJpskVphxHLxZGpHcHUerYnPNthSBO1cxr2cdo2bJyDY5yja7TrsORhG/I3huaFheaFheSFhOSFhuaFheWFhedFROZFReVFR9+MjsqPiiiIDC+MCC+MDC0MCy4I+e38bzPTZ2rNjJnphJmVPmt2+uy56XPnp8+flz5vdvqcWYSHWVpDWtDtrOkZMz5O/cgt2tWgWL/gqd3r4pBg3zpvAqTSjgmwuc1q+piXjBXIYkUlw/jevgaJvPgZU3WwHrtjnH2HSPe39r61tnRdpiJzB3PHxyc+6RpPtJ5G7nqXXkbvEdnDM9zDOaZGFl+0FrUy50C3d41z9aZ7e8Z5OcVp/VAWPNpRlZHsnNbmxJ5u7xzj5Brp6hnu6UWMRXp3DO7UY33PfkGvD/p9sEHzxtJBA5YPfG3Fa/5r/F9Z17PnOr9X1r3yyjq/H8/9kMzcTZo9jJQ/GX+eEZ4pxAuL8Dt38DtprMN7GHtqxyXR6ORu7QBlcjIzeRdz96qHq1yiXQyOopI87RIwhwR7521ODVYBeAACxgkolcqKKqZxP6321NJlUSgScXmCZuIgf8amWJxinXzDfP+VGnAWP1eOlz/UPJp+ekZneidCsKJc3KLcnKKdasYWa+UMRYt63+50N78kv1EHRw3bM9w3ztcpzrFmcU9tf/NFHkhZ1Frs6fau0S4+4T69Inr1D+n/jy3/eGPzoMGbBg9dP3T42rffWf0uMu+ufnek1qDbt9e8++b6Ya9uftU3xKdDJLFAB41Cau3u5F+vMK8uW7r8nPXzNXnOPfW9XEnuoLhBXmGeaDWPe6Sbdn2PW+2tu1ukm3O0E7EfRq8H/SL/CZhDooPbDleQxWa+nxAcEeDy+BZy1o6ly2JZRVXzz8Wh/pIbtDvHuPSO6/3jmR9v4jc5OLdIc/eLI194xXiS6lafUhCz1bHOr+x85fOLn8cwo8PKw97c+6ZHXAd7uvZIBUOyaEe3s4+1c4pxco129Yjw6BjSccT2EWekZy5KL12RXr0qzcmRXsuRXLsuuX5DkpsnuXlTa/IkebmS3OuS6zmSa1cl1y5KshflLPYN6agVRA+tFHYgBRFZkCy+uunVOalzTlaeGL5ueKfQTk6xTjVliccwutZoRdAunujXI1NnwabOPwNb7Zy3O4Esop90cHYAqFszCajV6rKKqmZGYpbgFi2LgmqhWc5PbFAKqR5co12HJA1ZfX31XfwuC2efZZ/96MDHHjEdCIGoqws6B+c4xDm4R7oN2zds05MNBcqCfPnNr0995bfdzyXWmRg91AmrnXJxjCWCLL6zOLI0kl5KT3yeuLfizzw8rwAvvIXfvoXfvo3/dQe/cxe/+xB/+BQvLsFLSvCSjAdH5iTM/Srhqy8Svvxi638+T/y/9yPG9Frj33P9K1rTo+f6nlrTo+f6GtNr7Su9V/fus7LvsM1vTU6c7Le+p0dEBwe0tFubkxf6SMyn2zvEOSLzYoRUp/jxmMNWe5ftzu5Jbs6JzmZ5F606kpaQxdyyw0k3fxQrdAfWD/4VdOJhRIvi0uBqtUZJNSg5qVKY83z/c/5fLZQ6X1BtCSfXjhszfZxlTrk0Z6GiTp0ZkCRDIoWkwS3SbezesVvvJT4h1lpXJd1PGpU8yj3GvUFZdIxz8IjsMHL/yNiS2Of48wq8cnnuH8P2DvOM8ySWOuqliLYYe0R0mJQ2adrRaTMypmtnRebMSZ8zL33evPR58w/P/z7t+wWHFixNXbotZ9vuy7uzn2XfEd+5xMjekbcjKi+6Zh7mZmhwfsjmguDNBVsIU7hpc8FmwhRu2lxI/N1SQJjg/C1b8rdsyt/066Vfu27u7Bnu4RpFrNGhGGfHWCenWCe3WLfO27u8erBPjz97utBdDXaliaN0tjq4bHdxT3J3SXTRAW6Dty0hixeeJgVnB1TL6xw5U1CRGZwdcPlZSotCvlS8Kzg7gGqQFHIlZcHZAZeKd1FT1+DqA3/9ceYxnerYZHtpeWWbf+1g7Ohvx44mlnNb3Ex0tdA8TUUDm//0FIrQrNqRvg4RHT5N+/RoxdFSvKwcL1t7Ze3gbYNdY1wJDwYD1jo6xNl3iHJ/a8+wTUWbnqgeMzXMiPuRH6RN6ETv5GjwdAa0QCfKxTPcs2Nwx67EATw15+u8tKn7Sxu7v7yhh/8a/+Hrhs9MmJGSl3Lw2sHc0rwHkodXOFeTiravzFtJyw9cnE9bXKA1+TTCTpjFNMJl8eL8xYvzabSCxbT8RbT8RYH5NMLcpP33+n9nnJsxPWvG9Aszpl+sMd9enP7NxW/+c2nagN0Dem/v/fbhd0Yee29Q+qCXkru7bHXRn48GWdT52beOLCrVMvr1GcHZAWGXp4Zf+RyZsMtTU4tW6+SnmbfF3JsXniYhc+jOquDsACOyeKGYkO/CyhPNTBQF5wuqq4Uis0TV5EgsVxYZTLa5vsdSr5yR2zxqxtQw+zgH3/COc07MvSm+ycSZz/Fn89Pm94551TnW1UAkxHoa1OV0sKfbox7xwKQBgVcDb4tvszSsXSW7Pz/yfz3jXnGJdiGWiGvNi3hqF+igNdvkymrtSkbXDpEePmE+r0X1nbb/Pztv7azAK9gqNl8tYOHs9Kfp/9r9r26h3dyi3IjV1zFaQ1mJ7ao90lG7ltvVLdrFPcrVI9LdN9q7c3THzuGdByYM3PJwS/j9iKh70dH3YkgTcS8q5F7ox/s/+WdGwPfXv590aNLbB0YMOjzIa5sPcboEdVmltqPtTHf2SOjgs9XHM86zye9fuwnYOrJ47H5wcHbAuScJOc/3I3Pgr+XB2QHZJbtbjmRBxTEjsniHcS44+1+Z90PMlQGZTM5gsc0VW9PiGTf623EW2FpUqdXl5ht8faFEtS07XRftnINjrIN3jPcb9EGrr6wp1pRUqRglePHnOz57ObyHc5yLbpAEQhOdY4ndLx4RHm5Rbu5Rbh0jfYcmDf09+/db/Fs8Ne9k2YnFZxYPSxjmFe7pGOvgQNceOVFfHmpbrPZEK9LBi+7VO77350c+TypJeqh5wNPwpBqpCBc9UzxLup80fs94nxifmu6t0Qgd4+w9Yty7xXfut7tv/539Xol7pVNI565buvTY0MNvrV+vtf41Zo2//5re/de/PjZ+/MrclQlP42elzZq8f/Jb+4e/tK27W5ybA93BvlYZ7el2rnGuXRO6DUgaMCJpxIitI5r28rWnUOaVxeyS5AtPk/bcogVnB5x5TL/wNEmhlmY93RacHXD8QTjJjSV+Fnn1iz2FizV4C36D1IgsFlYcD7v87+15PyjVMjJXzbeYZaK1OdmwUFkUicUcLr85BaOG1Vc0Ay7xmHuk23vJI3cW73iCPymRl+Rxb5bgxQtPLegT/6pzrJN+EEe6g1eEx8sbu/ut8+u6uWuXLV3e3P7mz1d/Pis5I8CrFbhcgosZOGPNxdUvb+zeIdK9vs3UL2LWqrNDnJ1zjMs76e9uLNmcp7lZhpc91zwrVT8XacTVePWB+wc+Sfnk5YiXveM9CZ0y2rW3p9t3iHZ/fevrMy7O+KNo+Q+Xfhi16/3OoV28o7w8ojzJAyY8Ij08wz07be4U8GfAjpIdD/FHVTjjluTW2ttr39729nvpo3on93aOcSZUWCvBTjFOftv8ZlyekcpPLcFLGLilLDejVnor280rixFXv6CO66H2YHB2QMSV/7tZfqSw8gQyO27+FJz9ryvP9hZWnnjGv2XeIl95tudS8a5LxbtSi1brtxbVGuWpR9HB2QGJud/xZWaePuZweaI2/fBLjSx6e/TQMeZF3NjYWByuRCJtbKj6/L/QnfoaVlo98gr3nJY+LbP8eCleeod/5/C91Ef4w38nf9otoitxkAQlrB0dc4p18IzwmLhvQnpVRmbl8bSqtE93fjoyeuTCc7+c4Z8V4iI1MZenFmqEhcLCNTdWd93SxSvSwznG2Um7Bbtm1Q4lTiJ+bV++RhYPv7vh6YZrqms3hTf/vP/noTsHyqXlPJyXVpL2acbU7nHdfbd5O6ClPzqRUG7t6fZesV7/Of/lrqqd2dJLqVWptJzFbyUPH3BogFu8u0Mc0fe3jyc25DjHOnWK6PjZvs8ySjLYOFuEi8qV5Uc4R74+/PWsnFkjDo1wR7KujdwlxvmVmJ4/XvoxW3KZjwsUuElnpNdXO+3D3byyKJRzquWsM4/pwdkBlcKH1XLWtdIDoZenakcV/60dUvwsODsg9PKnaHgxODvgyL3NZiSpwdXB2f+iSrPO2OL5J1uDswNSCn8TyjlmTBdFJZZI2Y08U9W8eRg3+tvxo7/FdDTRu603/5l3NoqqaIbt2lMefEN8ArMDc3k3yvHybMalTZc2nsXPjt7+vk+4V81Ucu20jFOso3eY55dHv0grTyvDS1k4qwKvPFt6bvFR2oLMBcfZJ4W4SIMT/8k0MgbO2Hf/z6GbhwzfPuylyJd8In3co9ydtI0vA6sCteOPjnGO3Xe8PPHoxO8ufD8/c/5nyZ+tzFpZyCtgqBmZlce+Pv21X4Jfl6TOjnQH7cbBeueCCFmM8Qw4+s897D338Xv3FHdTK1NnnZ/dK86/Q4w72fojtjDS7X3CveefmH++8jwfF8hwGV8juKe8v+Hqhi3Pt/w7699d6F3Qvw12CZhrtItfxCv/u/zffGW+ELeyb12a9/dDxmZeWUTR6sxE5zzfF5wdwBI/w3G8Ws4Kzg44/yQR+Qy9PNW8sojiv/Jsr1QpRAb108mZaJVGebM8o4U672ZchUJWUKMs4y1QFiVSKZdnth40MRON9jvX7nrWV0ZiXpXu8FJot9j7MU/kjyvwimPPjn23b34cN27wtsEeke7El15qW3NYPOYS49xlS+ffL/3+BH8qwPkKXCbBJRycE3IhdF7a/PSqdCEuJFqLuFqOy/g47zrj2rqstXH3Yj/d/+mE/RNG7X9/4M6B3WJf8gzX7jOJcu8Q2cEjwsMzwtMjwsOdmEhxcY9165LQ5fXd/YftHTZ81/DvTn53mZtdoa44zT4998LcPgl9XtrRzZHu+EIWyekjbYPOLt7OgW7vEkNsmxkWN3R9/vpbwkIWzronv7/1ceKgqCEdozq60F20mxEJVSVkMdR76dWl17jXBHi1HJdLcQkbZ6c+SVtyecnUE1P7pfQj9jtq94C7R7n2p/f7/drvhfJCEcii9gfXCrJ4vfSQibKoUElIOWuURaGu6aJVCh8GZwfcYZwl1SSvPD2lcNGu/F+CswPib8xOKVykb9LvriP9N9PC4fIlUrP1FxubGUuURbNs+KOC0NdBHRf7eDuXWJd+sf3SylIZOKNSVXGu/Oyqc6sX31ncZ2sftyhXnfXYzjHOnYM7L7209CleLCIUUCXDZRycs+Hcxm/2f7u/fL8AF6hwpQJXSnCJEBdWyitu8wtL8JLdRbsSirbGFMWsvbHu17P/nZs5d8aJGdNPTJ91fNa8zHnzM+fPy5z7Vea0HpEvd4jo4Bbt2jHRt1dKr4EpA746/lUW70K5puI8L+unyz+9Ft9XVxYpfWckc0TwUN+XN7zcf03/2Xtnn3p8iqVgsXH2VV7OjNSZ/eL7dd7e2WWbCzHFHI850B27RHRZnbsmn59fjVfLcJkcl4lw0XVe7k/pP087NW1U5ijXGBdiMj0B6xDl+taOYesL1v0l/0usEavUKipt27S3nCwKZMyn3Dypspoqi2zxM2L9YEnN+kGd1mJK4SJq/9d0e8a9jaj6HrKvBmcHlPAKyNq88mxP/PVZcdrlQZFXv4y/Pivy6pfB2QH06zPjr89CZk/hYtJ/My1tuxHQEmXR7CvddURQ/9YxzsEn1nv8n+MvMC7wNfznotJ8bv5lydXPTn32Unx35xhndFgOGdAx1tEr3Oub49+cZpxi42wxLubg3KtVV39M/XHqnqm7nu/i4jwFrijjlDPEVdXqajEuFmj4VQoGW8Pm4lwuzmNrOEw1swKvKMafni05WyQoYuEs9AGDe/J709Om+0X7uUe6O8c4u8S4dI7tNCVjynleVoWm6nL1lV+v/ton9tUu27oY7kRre/qOsY5+CX6TkidNSZry+bbPftr7U9rttOfiZwJc8Fz2fP+j/VMO/mtg8gCfRB8HYte2vTPdpVd877U31hXwCgUaQbVaIFIJhWrhU2VxSG7ozzkLxp8c7xXvRewIjMc6RLqPSn4v+m7UE81jkUYoV5lzFrKZP6e2Cm52WZQqq4/c2xycHRCdMy04O+AJ5wZVFp9y84KzA/IrjqHy6sjiuScJB/4KaoLJeb4PRXiz/EhwdsDN8oz7rGxk0KpyshON43gRMys4O+ApN68lmJtrh1vT8maJssjh8kVic45YkXJm0GJHNBVdX6a/PPvc7Bu8G1w193blXycenTglPDV091CvOC9HQjjq7N6zj7N3i3LtvKXT5/s+L5QW3pPeK5QWTt89ve/q1ybsnpjwdCsX5ypwRfr59GsPrzHlTL6GVyotvV5+o1ReylXzRBqRUCXiKXhsJeux9OF3IfOP38hU4MTR7SpcxcU5RXjRxL0TPcM9nWKdnOIcfeN8Jh6YmMXLqsKZ10W5i6/SeoX28qH7OhATJtqBRTToSWkwOsY6fHTyw0xZ5lnZ2fOys5ellwplBcWKpyw1qxqvZuHsjTkbxm0f2z28e4coD8dYJ9c4t/7bX99SsOW24C+Oil0prSgTljKkTIaGkVqW+p9D/+kT3bfnzp6OcU72dDuPSI/RO0dvL9pWgZcLNHylxuIOnW/aj6E5ocwoi2IFb3fBf0Oyp6BWXsa9jfdYl8oEReeeJARnB9xjXiwX3L3ybG9wdsCN0tRywd1ywd3Qy58e/CuoXHBXrTHP9BdaDERtZj5k5+A4TpVFpVoWceVz6oKh5gDUCSsSiTlmHUnTid/4rSXKIpPNkUrN2QAxqIakoz3d3iPGY2DiwPVF6+6I71QoKs88OhN3M263YHfH8I7OxCHVeutgiE+72LtEu/hG+fSK9usd2dsv2q9rWNdOwZ1HprwX9TC6Eq9S4PJKfiVLymJr2LcEtyKuRkwJ/TT+dvyxZ0fvCou4Gk6JsGT39d0fbpl8rORImbJUhhNFVuEqPi54hD8OSA7oGNJR+817B89Yz1G7RmVzLrNx7i3x7T8u/9FrfS/PSA9CE+uRRTu6nRvdrXNC5670Li/Ru/SM7TF8+1sLzv18pCxDgPOluJSpZD6QPVh8brF/eK8OER3cY9z9Y/y3Pdn+WPaEp+E9rX6S9fBCQeWtSlVVvjo/MIv2wd7xY06N8UzwcCCWJXkF7P/nwccHWDizWi3kyc05EGz8fbXYp2aURRzHd+X/evxBeFrRGnLzX9TV/1BFqj67zk7BJuPiSsqf8/9C5px20rlUcEdHFnEcTytaE50zTa4yZyMG5VkilTbhY3ZNLq9OwPGjvxk/+hvLmomuYrDkZv3qDTGPEenmVHtCIimIyOIQ5+Ab7Ttqx3spzJTHysdPxE9S8vcEng5c+3yNR0QH+zhDh2tp9Uj7GTzimwdOsU7oIwQeER5vpby1+e6WZ/gzOS4TqyTV6uoCbmHU9ai5++btebZn6o5/z9g1Y/e93U80T5/Jnh16eGB89LipO6amP05Hy2KEuJCBM+7i9z5O+dg31MdZ+yUDzzjPkbtG5nByuDivSHwnpSJlYf5CjwjK6RWkPpINRmILTc1puA7aYxw7xvq+vXvEuqtr+ThPjauVuFKAC3J4OYsvLeoa0sUj0rNXtH/Ks5RiRQkH///2zgOsqXP/4yDI3rgKam3vbQtYW6uiiIgLcQHiwF2rdXba29ve2v5va4e3VsPOYAgI4sA9wF1n2Fs2CDIDgRAIeybv/zk5EGPYkIST5NfnPPXknHf83s/7ni/vfmsSK5K873lfSbtW0FbwEr2kpdDWhK6ZETjj7bNvq9M09N0NPr798d2KuxW8iop2Zl5VnkipUsCf4pVFHKDwSHQJJ72oNhW/clmR+GQd/4S9RbUpgudFtamdYqotCudgZFEoie5QzR8BF64tIoSKOakkusPTwlPC7sVy39bWzqx6bTG4WIIdZCBLrDctsd5ELFlkVFR2doqzF98tw83Kd56hq4HI9ENcFsdSVSd6T1x7zoneFFnKK3vOSXN74u5yZvPe5H2a3loizWcRScV+4pLkq8RvWWvOOD3jSOqR3I7cZl5zM2ouaysPy7j429+/+eT4+NT4WJ20mnn8wx/pP8a3JJR0ltyrvLvm9KqZ1A83nN0Qmh36Er0sQsVp7elfPvrqbZ+3NL01+KfBjMFk8fT8WHZsLarNaMy4yrl6lHG066hCYUHstqSnkWN8ldRoqpPIE/bd3FPLq0E8hHioBTWXo/KgrMD3vacbexp/EPTBmcKzL1sLGaj8Xsm9b8O+/fXub/RGehGv8E7RnS9ufrnolO2ye0t1qHrjPScc/Puzp6ynJW0lmbVZSeXJgyxtcuxM0rIojO5unjeJ7oi3qVMrbgu/ksT9g3waie7Q2omtUxaRRYTQ+ec/eEW71LYwxBt1Z2cno6JSvGEOPrQFsx0WzHYglixWscQ8QTQP5Xkne9mcsdEgq/MXL2P1O/6lpkZR0yPrmtHe+zLiy+z2nDJU9rT8KTWZ+tWTQ6vvOGqSe8giX3r4019U8BDGUtTwS52MbfowI3DGTzE/pjemN/Ia6lBdXGX8kdu/fnbtMxrTx/nJ2nd8/znlrym77+2+V3u/lFcSVUffen2L1bm5//B+2/6s/X/o//np6U+HnhyaTJmsTlYbQxuDn8usS9NdeNYmriauFtU+b0gj55DX316n66XTdSyXYKGLQBaFtbK7/qjsq6Tjpb3pqguTV9HGa+vgdbagZhaqul50bdWZlSYeb9hesL1QcuFl68sCbsGl4kt7zu9xCXY5VRKU256bykklJ1D23tn3Rc4X43wmvOX79nfPvotlxxU1F8cx46PKogdf4OTVpdRkMY15j0R3DOdP3r6Y/n9e0ZsqGiRbW7+W+YdXtAueccKy2MFtq2jIY9Rnu0c6Byd9Kd71fwghsevA4MveHIulcyyWEksWxV5bzEKZ50rPrry+UtNbQ52srueuZ+RqaORqZORqbEwynuo2dbH/Yrco9+KOEkwR8i6dyg9yL/SwClnQS22RrzgqNJXpFyyWRSxbHm6PX5M83zA+MW7SsUmzKbMP/304hZ1Sx61jdDIuZl38OORju0C7j+M/NvU1NfDUH3di3IZbG69WXi1FJUnNiZ/9fcAuYtm0gDcN3PSNScYTj08wdjXUIKvjY9/YhEraGH2a3rKLS6Jro9mInVSfdPjZD2+feMuAajCGxu/0FMgiroACcewWREHlUZ2sbntu4c3iG9WI1YiaGlFjaUfxhfwwx7MOU9ym2F1cdot5q7SjNK8z71zxua1hW+Z4zf5P7H+SG5IL24siSiKOJPx2IOngW0FvTw94//eEP9Ia0oubiiNLIiMyJF5hGXyBHi2X0pHF1Io77pHrQpIP4RpU38byjd9Ni9tZ2VgguYQHJh4MSvoMD5/Z8IJEd7iW+Ud4zgnv6M3n0w4jhGJLL5LoDhfSfmruGOlG+oJUjG5t0dLcxtJ8IbFkUex9i2cqz1iHzNf30NUgq0+kTZwfMH+x36LFvkuW+i6187FbF+D87dVv7+TdZXZWJbemeMZ5/hX7FynddUXwCh1PXezAZV8lZT9lbOZzt+KoU9QOxB44wzwTVhGGX46nnZb4LrOjLd8cvIX02DWNlV7L5WS3ZXvEeDgGOc45OXvmhQ/5u2drGroarr6+5nzJeQZiZLVk/Tf2/9bcWTMt8E3+djjqGhQ1depYle5BHlwWDXz0ll9e9qjmYSWPGVMX/e/If71LfmdCwOvTuUVEsNtUZV9lbA9w7BqjRlYb5268LGDpw8q/S1pL2dya9MY0t3hXKy8rM28z+zPLI2siq1BVPrcgtCh0xSn7aW7TVoat/Jv5oJzHSGtJ884kv+8648OzM2f6f0TOpBZ1Fpc2lUUVRl+IviQozQp7I2lZbO9sxtcgn0n9trG9RsC5sjGfErvNM9rlecVdwcOR31Q05MWVXkpkXMeb6vhwMw9x8TlDJLqDV7TL7Vz38vpcPC7B+mhxdW6Obt+ipbnNHHMbYsmi2EeiDd0M9Tx01clqapSxSyKWPEGPY1B0DIqJQ/EpKCUHZZeiEg6q46C6x9WPD989/E3Ev84Wnb3DuWPkaqxB1sQPklbxGaPio4xfGmT1caRxU49Oefu3t97+7e23f3/rZm14DIqNQ/HJKPUFKmAjdh2qZyKmJ93zy4df7or85E3vqQbuBgbuBhOOT1hxbsXpFyFMVFHcVkTOIs/2njPh+ARdT+zYrK6jmbs1DpdFPZre0ktL71TfLuOWRtY9+zb6m+l+5lNCJo+l8bdvEKkt8v3iR12rUlXVydj5M1rYMS/aeh5640jGbx2bttB14c28iOKWUgY3ZMimAAAgAElEQVQqv1Z47ZMrn2y6uWnz+U1JNYk1qCazOcsrxWuuq6U51cz8uPmZnNCitiImqrxf/mC5/4qprtPmnZwf9OJUOWLUIk4FqipF5SP/DmU9BPHKYg6LfifP82TCPhLdsYPbllweQY3dQaI73s716Kk7Nc2MoKTPSHSH0ynfiKtBzW4udY9cR6I74pVTQdfhqaQvAhMPJpRda+9sFsmy+NIryeXhIg+H/XN0R6IxWTSzUTLQMRW5hp2ekXsU+7xFdaz7T1WFhu2JoOOnMy34zbeD3no76B9m/uaW3pbbA7f7R50saS6r5XGuFFz59Nynv/796+msUCfa2sucKzNOzdDmb2StTlZXo2B9kWoUNQ2yupaXlq6njp6Hni526bwZMO0fQf94J+Ady2DL7x5+V4mYDaiejapftOQlNydFtkTeqbt9k3PzBufmLc4tesOz7LZsJpdZ1VF1o+SGg5fD9F+nv3l0qpGroTp/gZ2g2YsdrUcbo+OjYxO24Er55cKOwsg6+g9x388Omv3O2Xc0fNRVaGN62TYcW8ynrEYZ+1HYR2fqzlyqu3S17sq1umvX667f5Ny8x7n7jPOM9tAnjhHP5DJTqlNJD103kjf8eu9IRk16LbcmoTz+j9t/LPqf7TzXuTP/b+bRm0ejS6PLO8ufc9J+efSrFc16642tF4svFnYWRjIjj9L//IGOtaQU/D/xymI+O8490pkau+NpYTBC6G6eV3DyV8Wc1L4gd3Db6EWhp1O+wQdG+nI28udi3yynL5NGd96ipdkCS7MFxJJFsa9yUfbBGpJ4E5jfosQOYuYfvaK1/ub6s/nnYqpiqzur63n1jyoe/fnkz59v/+wT4xOYErTn/F5bP9u5p+bNOWv5YehMiyCLGaEfzLs6758h/zT0NVSnqqtiZ55gQanQsJk6apSx42njnS87P2U+qeHWlHSWXk2/8tfDY9/d+W7ruW2bwzZvCtu89fyWr65/eTnrMpvH5nA5uc05N/JvnMoOpuRQdj7cqeeho05WG0sdyxdxZXxpszZNa3bIrNDC0y/aXsQ2xvyafMQ21ObDCx9o0TRVaSp9yaI6Wc3Ux3TV1VXrLq7beGGDy4WNLhdcNl1w2RK2eefZnbcKbuU257F4LGYbM431/P6Le/GVcVVtlQ28+sLmwkcVj0NzzgTlBQVmBj5kPMxpyq3kVRW1FF/Ku/zJxd1f3zl0t+xuYefLm6U399/dv+rKyr4Kt+I8F68s9uQmoU0ZekZEkCeju8rF0mzBHDNrYsmi1NZEq1HGWl20+m/iz1fLrtWgmibUVNxSklCZ+LjgcUxpTF5LXkBMICWe6pns6ZHu4Z1J9sv29c31JReT90cdmB46XZOm+dpMb/5UQV2a7pJzSy4VXGJ2Vr7kFnrSPbee3WobZPvGsTcmHJ+An0www33GLw+P5DXn1aKaIlQUnB5yJPbXz599foB+4Luk775N/teXqV++dXraWP5M8jE+YzRpmub+5rQsanZzVnJLklumq8PFNTY3FuhQdMZSRVfg4DVNZR9lVaqKpjd25LSRq9G4E8bjT4zDrwknxpv8abL3zj7vNO+42jgWYlV1VGXWZsaXxNW01bC51c9Yz9xS3Q48PPjp40/3PNrz72ffUdKpsew4VifrRcOLiIJbHk89YhmxJZ3FZwpC11xa/X7IdIJ8S6NohqRlcRSTNipRj+6aaCLWFptbWsS77kfQJhW5wTbBpujNCp39Q+zh3PZcbC0wauBf9Rweh8WrZiP2y5bCzMbMjKaMgvaCClRRikqfo+cBZYH211cY4cdA+7za10vZV0mLqmkVMv9s/jlGJ6MYFbtHu606vco8wEwX28FbXQPr6dOY5DVpd8Tux1WPWIhVgF7+eP+nBYE2b3iZLDi/4OjzP44+P/pz2s/mwWaa3hpjqarqVDV9isH7PjNc413T69Mz2zMD8wN33tzpcM/RyMtIw1tdBaswvhoO6kojdqCC8hjaGPxEBEHzX52ipkFR1/bSMvYwXnJ+aWBe4MuOl5gsVmdFF0TVtNYwucyTWSftzi+fRJ6EjRF5aptQTJaHLQ/MDuRPOG9goeq7GXdyWbml3FK/HN85gXPeCp42Kl8OoSIFWRRvdrBrOeJd6jYk84hYW0QISWe/RWUfZTWa2uTAyavDV/u+pD1jPUviJGc2ZuW1vCjqKGIgBhMxy7iM4s4SbNSVW8rgMV7yXsa1xJ0sC9j2ZNs7If/Upmpis2S6R0iU/LA9x2afmh2af6aks4SByj0jPW2oCyaQxvPnZmPihc0f9NZefXHVmfwz5ai8HFV4J5MXhtgaeBjouetNPD5h0rFJRiQjXQ9dHS9tQ6rB2wFv25xbuO3Sdven7mns9EJuYQQj4pfHP+97uG+G34xJ5Il6ND11X/6EHnz0WcgYYcNe3WObSyqNpapN8ZnybeS/I2sj2YjN4dVVt1c385qY3ApSImlm4MyJwRPxfWo1qOpv+kw9TD9c0F7QgOrrUF0Rp4jVWl3QXuD63NXMz2zK2clDKnNy6RhkUYzZOur7LRKxtogQks7u3PzhWmxTwnFU4zkhs9ZeXbv/8YGfkv7rmut2qjz4eu2NB5wHN9nhl6uuXK66fJ194yYn/EzNmV8yf9l0d/Oe5E/t7i018NZXpaoIHxitRlGbEzwrtPBMUWdRJWKdig3eFLRphvf7eh66alRsro+Sn5KGt8a84Hn/i/szB+VVoMprZdc33Ng4gTpBg6Kh6a3JP6cUG9UxIBt8cPqDg5GfnWOcf8J6ejnpci47pwpVpTdkXMu7+lf0sX9FfrMkbPH0UIuJpyZhE4l6CuLrmzAKHGDbJvqM0fHUWX1xdUB2QDG3qAk18vdYbMlry/sj4Y8PAj/Upmpj9VD+zB4dT50NNzbcrrxVyWXiq3caUWMiO/EH+g/vBrxrEGggxk9CRoMCWRRjxo367tzdsqhtYvD6JcZEDiOoxqZmaZzlwq+7qfqqGJwymHN3tgnF5B3fd2aenDXP32o+eb6V67ylHkvXB27Yfm7H1jPbnPzXLvZcYkNZaOk3913Pd/c83+MU6cQ/u0pVIIvK/NrirKCPArMDXnYW1CB2eUdFZmsWNYNq+peJJlldma9c6mS192jv7b9zIBJFvUSF91v+3vN0zz+C/qHrr9t1apWv0ljq2El+k1weu1yovVDELarmsnLrcivaKmpRbSWvKr+zIL497kb79f88/35b3LbZEbNVXz9WoUsB+5BF7K2vkqa35iy/jw4//CGRk9iCmttRWwNqiOPEHY48bH3G+t3z72BrJfmItLw1bUIWkOJImQ1ZTbymFtRSh+oeMx/vf7DflGqqRh07jCyWMy8gi2LM0FE/y2WOmTV/yOV1TTTQNhFjIocRFJfLLZPwyX/KfkrY1aWMqoZBBlNCp1iFW22gbziYfOCnnB9PFB0PZgZfZF08xz4XVHXKv+LkSebJ4MpgMov679zvtyVt++DqDE3+akJcg/CpguODxq+5tton3qeyg9mEmppQEwdx8lte+GX7Grjr40e4aPlozb9mfSTvyNWOa+7FHhtvbvpX+r+3xW6fEjhlLHUsrkTaflpzwy2PvDzyqPNRakdKcnVqWRujmsdmIzYTVb5ELx93PD4c+4Mv0/ff2d/OuTYL89iztvjaE35jv3uSo7Kvkh5Nb8VVe1o2taizsAU1t6DmhNqEI/d++fbpt4dSD7178l0sdfwW9/iAcU4RToF5AeWdjCZeUw235uHLh1eKr/yZ96d5mLkaVW0YWSxnXkAWxZiho37yH0FlESEk6XOi8f33seobfnyKj6p+gP7U09NmXZ6zLHyZ8521m+9t2nF7x957e7549sWh2EOHYg99Tv9s973dOx7scLjjOPPSzHEBxmOpWDOza+oP//RkfR/9NZfWRFVFcbi1bai1A7W3odZaVHu/8r4xyXiMDzbNUJ2m/u7pd9feX/tp9O5l4Xb/oP1ze9x2lyiXySenjKWoKfli83I0aBrTgt9cftXum6eHTuafjG2Oi+REPqx8GFEaEVYQ5pvt+1Pyj8tClx2MPuB41/GtU28NQhaVlPxedYMq+yppU7Tnhlr+mnAkvSOtHtXVIU58S+yhW18fjjp8Iv/E+5TpBu56GtiZXCoGPvpzQ+f+GHU4A6VXoapiXgklgfLVw682/L3hjSATVagtIgSyKC5ZJMI50cSVxfqGBk5dvVhY91WN6qow+nUdbK9CU1GnaurTDCb4TDChmZiSTSa5TzT1NPmnzz8sAs0tAs3/6ftPU09TU2/TSdRJejQ9Nf6erIIVgVgtz0dZ01vT/rx9ISrkoLo21NaJOtpQG18W7xmTxuFtZGwEnKZn6m/6dtC0N4OnTQ2eahluOePyDAMfA1Ua1m5VwpZCq2CnDngavuPzzoorK76K/mrXg11bI7asv75+1aXVtmGLZ4bONKWYmoW8NzVgih5VV4XWdVppX4kVfe6rpEZVN6WabIhYf4V1hYHKSlHpo85HB+4d+D76e7dctznuc6b8b7Kxq5GWt6YmWWMiZeKisEWkQtL58nOUHIrLdZf3g96fHGiqQdNQ8VERSzbJdCAgi+LKPk5dfX0DtlvPKP43x8zaEpu3KNSI1tcy0dca5UY0QkiMo1GiiiDUtBTUGfHW9BifMSo0bH8dNQr/IqupC10a/Hv+oaZjsVHa17fsxmLhn3619MLS9La0+xkPWM2sZtRcj+qy6jP/ij1m4Mo/8B5ruSur0LANeDRp6uODx08JmzIhZIK2n44qbSy+QwT/MBZskwg1ipqWt5ael56eu56Oh46Op46Ol462l44WWVuDoqlO0cAW8GBzv3tM6u61V/H1hyo+KtreWjNOz/gh+Ye/a/9+XP+EXE5Zf3397ru7j6Ue++raV5+c/8TlksubtKmYMnprTvSduODmAudHa+dfmD/Fb4o2RXss/w+Dsq/SKJZggkQNsiiujChlVIgrqGGHQ1xZRAiJa6Z7P7KohPcwCgnlK8c95rvgAyavHPTmS5WqOufsnNP5p3d6fJLMTMHOoW94Too9MfXoFC1PTUGLG9dQfN8wfJHMGN8xgnP4MKt8lVVpKupktXG+48xCzXQ8tcdSVLt2Eust3v6t6vUt/7RrVUMfw1nnZu97tu+b+G9X31r9gd8Ha0+vPZl8sgSVlKCSbJSz6/auabRpWl5a6hQNTR8tI38jbSomiMI7UQ67/MmNR5BFsWSl2Fe4Dc8qUVnEq4pEqC3i6RFL52sPUVB+rZfN/1WPWw+Xr6ZqD/KVCk1Fx1PnA9rMxy1PM1FmJsr84dnhCccnanvqqFHHdh0z0D3ugY+ujPFVHoP1J74W1xifMRpkDQM3/TVX11zlXDE9ZvJqq/CRyqKysn/X+a7KNGVVqqomRVPPU1/PQ1/bW3ucq/Ev9J8rELMRNTaixipUmY1yPrv/uRHJSIOMb4uLrXTs0vduS4ZX+OTJF8jiyHNTvAOtI7FHtG9RX6trps5IAhWj34bGppGfGT2wonVvw9Wnyx41x75cYlPEKWoGXoZmvhazKbNnUWdNJU/RIGso84+jwrRPEBR+brXgSS+yqOl83/lo2lH7gOVXOVfMQs3wXc5EoxYE2C1Sog5En3f/VeiOmr/52BhlbDhIWc9D97+R/61EVW2ovRN11KP6l6jw0L1D406MUyerC3ekYvfdIYsxx2U0KJDFkWfc6C74E7ZfMG/R1EDb1EBnMn4Z6hBo3UI5s7KjY0RnGAi+3j5vugViAAfdKtCnM373ogrWJzhW00uLv7+OLl7J6vIyeAnD+h9VTYMmb3ywkZRDWnx+sZGPETZi09OGgcLER5Ze99hnBVnbS/uHqMNliNGEmvHzXvJQ3md/f2bgZjCW0uccIOEiBfdAYBgEOjo6yplVw/AoCS/dsti1sRhfFnUnG+pOkURkwwuzqbmZXVM7PL+4r9cV4VUdp4/nfUqGsPtXWoNX+gRqxZ8I2bUemaaqSlPpmqEtcDCYG3xsxFdZhao6LeQt5/vO+q766mTR46qF7em+764JCsWCDyt1Oxgg+RpkjSWhS3yTfCtQRQ2qYSDGiYQTVsFW2p5arxbS9BDikeQO+AUCCKFqdk1Ts+gejqNFxtLM2tIc21gME0RD3SmGulPw+9EyqNd4q2tqm5qGj2yQiiBVZz2UpdfYsYEX6lj+ikB1Vf4+4b066/8hPmtduM2LuRdqAgt7V6WONXQ1XBBgfTTx6PGE40cT/5jpP1PPXZe/RW73H4wexveaa/AQCAySAH9V24iqPoOMaJDOLM2s55ovUMLUkF9JFLSjB+lfas4qKlntwz0lFVuc9/rcFGEh6L7vpZ7V/apnDatbIIQqZX077uldqIdREILAQlx0cNniz4XEhqp9urfJEbgf0g2/Djume1XPmL5lkd83OlYb6wHQ1XfT1/XQ1fTWUOVvcSYyKCScXqkVA4hI/gi0tbczK0ft7NNeeWKyaGYtA7KIb6vTaxoGfCj8ASvsfdfcdbyNPyRJHYTjAbMAHACBXgmIcXpyr+EP72GXLBrodg22ELa2iBBqb2+vGNZflWFI4WCmKA4j2CF56RKyQaiSSLD9eezR/u3y23eFur/Qum0bXuEDX0CgorKqvb2DaBy6ZbF7DJrIsogQampqZlW/OvZskDRFVGMwPwcli4Jmb7c69BZyH81tIXnqOo6Kf+yBKrZkRRWfFShYgdOjE6CPMLvNwIUMM6bbQnwLNRWa6hisMd5bo15EFrs94tPdsdZ3d+BCwb4yY5AZAc6AgDABVjWBhlmEDbM0m481ogVqKLgRdkSo+9bWVhZ7aMrYm1r1Jg3CX76k74VkcYyPsjpZzTbC1vFvRx1sE2/NrpXR4rNBhTYGP5YLmy3k09vOjCOLi1AlBIyRCQKs6prW1jZimip7sojXGYfUmhaVRZGa0fAV4VV1STSKwYTZPbSiQhuj6a0x/6LV/qh9mx9sNnDTV6OoCy+tG07g3QZga719lDXIanbhy2wvLDRw1xfaa4dvv5BADyciPkxiFm6wipgEeDxeRWUVcabj9KQkk7KI9zOWMioGOTY9nK+9W1Yk6LdbFrHaIkVNz0N3w50NIcyQiX9N1PLS6n3m9tCtUvEZg1VFr9ucLPMn53rbXVim4a3xWqJGKIt8k3oWLHgCBHol0Nbezv9yCdefKGytQBYJdE60sH3931dUsgYzn/E1FRi6skjaO963qOGtvv7e+rMV56YcnaLjqSMWWVT2VVKlquh66Pz8/L/Pmp/S6+m/xP+i7akt9hT1n03wFgjgBBqbmok2F6fXrJn7XlffokzKIjY5vqa2ml3T0dHfHx+xq4AkAhxLHbvu/rqwirBpv7+p66E3Rhw9gMq+ymqUsQZuBlP/N8UnlfbX/WNmP7+n66Erdvt7LVvwEAgICHR0dFTX1I5wuZogNEnfzMWGXOYT65zooaa5qam5nFlVU8vhcrlD9QvugQAQkCgBLpdbU8spZ1Y1NbdINCIxBj7XzErmZRHH0dDYVFbOFNeG3mJEDEEBAYUlwKmrLytnNjQ2yRYB+ZFFnHtdfUMpo4JTV0/YsX/ZKh9gLRAYBoHW1jZOXX0po6KuvmEY3kfdi7zJIn7aQX1DYyWruqycya6pbWpu4fF4ow4aDAAC8k2Ax+M1Nbewa2rLypmVrOpRP49lJLQFsmhioPPaNZJACeKXy+U2NjVXs2tKGRU1tZyaWk5dfUNjY1NzS0tbW3tn54j2cCRIGsEMICB9Ap2dnW1t7c0tLY2NTXX1DTW1HHYtp5RRUc2uaWxqloMufsGQy2uaaKAz+kdciTezW1paGxqbOHX17FoOq7qGWcViVFRWsdiljAq4gAAQGDyBqmo2o6KSWcViVdewazn8ukZTc0ureD/Y0Q1NUWRxdClD7EAACMgQAZBFGcosMBUIAAFpEABZlAZliAMIAAEZItAli4Y6piKXDKUBTAUCQAAIiJEAyKIYYUJQQAAIyAOBeWbz55nNVxKpKhrqmMpD4iANQAAIAIGhEwBZHDoz8AEEgIBcE5hnZjXPzApqi3KdyZA4IAAEhkLAyny+lTnWiDYRuYYSCLgFAkAACMgPASszKytzKyUjHRORS36SCCkBAkAACAyFgEAWTY10XruGEgi4BQJAAAjID4H55lbz+bXF1zTRCEai5SeLISVAAAgMjYC1+TxrC6wRDbI4NHDgGggAAXklYG1utQBkUV5zF9IFBIDAMAjYmM+zAVkcBjjwAgSAgLwSWGg+zxZkUV5zF9IFBIDAMAjYWoAsDgMbeAECQEB+CSzCZHEuDLnIbw5DyoAAEBgigcUWcxeDLA4RGjgHAkBAngkssZi3xGIe1BblOY8hbUAACAyJAF8WoRE9JGbgGAgAAbkmsBhqi3Kdv5A4IAAEhkxgscW8xdCIHjI28AAEgID8ErC1mLsIZFF+8xdSBgSAwJAJ2FrMUwhZLGAnJjPCnxWG3Mn1vJxxJCT5a2rsjrC0n0h0B7jC0n6kxu4ISf76csaRO7mezwpPJzPCX7KThlya5MVDz9JCidkWknIIigqJ7hCS/DVGQ65Ly0KLebbT5XSriOb2unTmg2uZf5Dojvdf0B7k+8SUXEhj3i9gJzAb8hvbauTlKxZDOhrbapgN+QXshDTm/ZiSsAf5PvdfUF3pTtcyj6YzHzS314shDmIHIVxazqZ+F5T0eUDiAZ+4XV5Rm0ANeyXgFbXJJ25XQOKBoKTPz6Z+70p3lJvSYoPJonxN0OnktieUXj2b+h05ZuvtXI+86hgej0vsT5Kg1nF5nXnV0bdzPcgxW86mfp9QepXL6ySorcM1Cy8tp1O+8Yza6B+/xysaRHD47SfvmC3+CXs9ozaGpvxLpkuLjcW8hfLUtxhdfN4t0jmy6GxZXdZwvxTw1wuBsrrMyKIzrnSnmJKwXl7L5qPo4vOudCdKzPZea0PwcCQEKDHbXemOMlparC3m2vBXucj8oQXJjAiPqA30olDZ/EJlxupnhac9o11Sym/JjMW9GZrMCHePXEeO2TKSLx/8DkiAHLPFPWp9SnlEb5lA3GfWFnMXyLosZlU+8Y3b9SCf1t7ZQlzScmRZW0fT/RdUv/jd2VXPZC5ZWZVPKLHbKTHbBvykwYG4CFBitlFjt8tQabE2t7SWaVm8mf3X7Vz3utYqmfs+Zd1gTkvlrRy38JwTMpSQG9nHTibsE9fXDuEMicDJhP3h2cdlorTIsCxyeZ2BiQdl6E+QTBSIoRqZVfnkVNIXQ/UlffdcXmdAwv6gxM+H9CWDY/ESCEr8PDDxM+nn/lBjlFVZrGwocKU7VTeVDDXB4F7sBKoaC0l0h6rGQrGHLK4A+aXFkRb7sXg/cghtGARosTsJXloQQpgsmlvK2DnRGcyHwclfieubgXDEQuBU0hdZlU/EEpR4A8lgPvSP3+MRtX4Y3zB4kQQBr2gXv/jdxCwteNmTPVks5qRdz/pTvF8OhCYWAlczfy/hZIglKHEFUsx5Hpj4mSS+bQhzhAQCEg6WcNLFldHiDcfafI61xRyZqS1mMB9ez/qfeBFAaGIkcC3zKHFqARnMhycT9o/w6wXvkiNwMmE/cUqL8FeAyaK5jMhiZUMBtJ2FM4+Y90FJn7Mai0bdtsqGAr/4TyX3SUPIYiHgG7eLCKVFpLjyG9GyIItcXqcr3UnEevhJTAIkusPoGsYvLY7QnygW5ZJoIHgejW5p6Rk7fyRaFoZcAhMPwrhzz/wj5pOqxsLRnbVzMmEfNXaHRL9nCFxcBKgxOwITDxKqJFubWy6wILws3sz+C+YnEqrcDGhMZuXjiBzSgM4k4eB61p++8bvF9dFCOFIgEJC4/yaRZnovEJFFYx0T/JJEeR1emFlVT27luA/PL/gaRQIROaScKrqUDciqehKc9JUUvmSIQrwETiV9If3S0lfhtLawfG0kmoCy6Bu3C9b29ZV/RH7Oaanwi98jZQt94nZ6Rm0Q7xcLoUmBgGfUBt+43VIuLX1FR3RZTGZEPMin9WU9PCc4gXsvKKnlt6VmZDIjIigJlvcNf8NEKchfP1EEJh6UZmnpp1gSXRY9ojbAvjj95B/BX7V2NHpFb5KakfxhTcd+Pjx4RWwCjp5RG6VWWvqJyNri9SEXQjWio4vPw/6J/WSeTLx6WhgcW3JRCqZGF5/3j99D7M9eVutxUqMakLBPOqWl/wJJ3CGXTm67W6Rz/9bDW5kgQKI7SvrcCH5pWSu1rxcikiQBiZeWAb8aG2x37u4JOoKqorGOyYA+Je0gvvRqZNEZSccC4UuBAL0wNLHsukQjii+9Sov9RJLfKlT0pETAJ+4TSZeWAYuijYWlDb4mWlgTiSCLZ1O/g/NYBsw/mXBQwkk///wHiZoamvKtKx1qi1JSLon++XGlrz2b+p1ES8uAgfNl0VJJRBNHXRab2+vIMVsHtF5uHDS0sW/lurGbSwUp6uC21rYwBD8jckjCXQrs5tKqJuLubygwW3DjFb2ptaNR8FO8N83tdZ5RGyX6rUot8OTy8FJOunfM5qHGeDrlUHVTcXJ5xFA9EtC9R9R6yZWWwZQ9m+lzbaYTTxbTmQ9u53oMJgFEcBORQ/KN29XrdTJh/2AszKp64hnt4h657mlhMA9hx7eGJB86mbCvg9uKexeRxauZv7tFrq1pLhtM4ERwcyvHLaPyoYQsSWc+8JOdwZbk8ghGfbbI9SCfRqI7+Mbvbu9sZja88I/fg18BiUPYAai2hdHW2SwHK3z84j+VXGkZTCG0eX/uohnzCFdbvJb5R151zGASQAQ3sSUXw9J+JNEdzj3/z83s4zezj1/K+IVEdwhJPnQr1/1ZUcizQtHrSWFQEuOmsPGcFubF9P8j0R0uZ/yKEMquekqiOzzI98HdCMtiRUMeie4oK8di4PbnsCJvSGyXzKuZv8vQrhDpzAdVTYV4U6C+taqqqbCqqfBRwUkS3SG5PFy4SPHQBZcAABzhSURBVOD3edUxIhW6u3neyeXhPS9GfTZCqJjzvOerJMYNkUCI/NMjav3o7h+46IP5K+YuJpwsSmHssmf5G8mTvOpoEt0hq6pre2q+cjnElFxACLnSnXotgv4Je3vG+KjgZBrzHv78QtpPHlEbGtvYCCFhWTyb+p1X9CbZWvkj0XkFJLrszVV8/DIAIXQx/WdB2aDEbmvpaGDUZ997QcavYs5zhNDDAj+BG/wmlxXZs+T0/6ST1yESCMF/ukau7T9FEn27+ENrhwX2r7ahFXQySjTW/gN/yU68/0LGVrb0I4stHQ20uJ03so+1dDQIrpMJ+y6l/9w/hxfVMa50p3TmA2FZLK3L8IhaL1LT7D8cgry9l0cprEkWuzEv2YlBMrj/dl51VEtHg7A25bDo7Z3NwcldC7rD0n7s5LUXc1KF3eD3uaxILq/DJ27nIK+i2mSZk8WgxC8kUVoGWfwWz7R2tCGYLCYzwgWNx0EmY9Sd4bIYnnMiqvhcVPE5vKsIry0ihC5l/CK80VZLRz2J7vh3vq/AbEEfouAJfiPoPRSuLTZ31Ik4k4mf919QU8pvid3UZEa4LO4hVtdaVVSbLJC8RwUnEeJVNOTFlV7GL3ZzKQ9xU8pv4T//zvcROM5lRQ5J5l7WJAzJvSCiUbyhxe2URGkZZPFb/CG/EW2kY4JfRKgtPisMEQjKIJMx6s5wWXSlO7lFOvMvbLKIIBX0otNukc4d3DbczhzWMxLdAa8GIoRyWZHkmC3RJWFcXocgIbElFz2iNgguvCUu+OkRteFJYZDAsUzcSGjN0rPCEHLMtlH8gIcRNf43Mqr4HO43PPs4P+t5CPE6uK0d3NZOfkno5LXjPxHildfnCiISyGJU8blExo3+r5vZf8miLJJjto7iCjfbD6wWfzj/VSNaoI+j+KXdyfVMY94fRQOGEXU/jWiEUAE7nkR3KKpNxUPm9xY5NrXX4j9rmsvwEZvgpC8FW+3i38yN7GN38jxFrlu5biS6A79+MQxLR83L84p7d/O8xB79nVxP90gZO9UvqvgcQuhZUUh4zonwnBO3ct0K2PGM+mx2cymufXfyPLFGRnfPY3VTsbAsnkr6Ai8wDfx+5/6RppbfDk7+CncvEFbi37hHrpdEaemfleDtwvfn2c6wIpYsXs44UsBOEJgoEzf9y2J7Z7Mr3SmyKBRPy+mUb3puR5zIuO4e6RyQeAB3g8siq6m4Z/LxPimZk8UCdjw+yN4zRSN5IjxqQfyvHbdQeIIqQqiqCTtou4STNkhZFCSTFvuxcPfiC3YsQuhU0hfCD72iNwncy9bNpfRfRlIwRuJ34ftWhJPFkOSvmQ35I0mV9P32L4sIoeDkr4KTvsS+gcaXJLrDwwK/nkYW1abks+Pw57gsVjTktXNbRK76NpYs1haZDfkhyV/3TPUInwQlydh5p4IJuWdS/+0Tt/MFO1YgizzEbe1sbO1sbOfPV23vbMZ/8hBXuLYoUDf/+D3CqoePUPvEYefTy8EVlPT5CMvGsL0LZPENI51X1+iucqHG7mhsqxl2kkbFY/99iwih6JIwEt2hqvHl/RcUEt2hsnEA3Rd0PPVVvmWuttjQxqbFfiz23CHHbO0LEQGfe0a7cFqZ+Iz9gMQDJLpDLitSIIuNbewnhUFPCoPwfuckxg38Z0Mbu1dZLK3LaOtsEiRTzmRxFNe5EVEWw9J+FPvHI+kAcVm8neuOjxs+KvAXHnJBCDW0sd0i1/6d70OO2YpXG3s1iVGfjX8zuCzSi0KTGDdErrjSy7JYW0QISSJnZWvfWbfItZxWZg7rGUJIRBbL6jKrm0pwjeu/b1Ggg41tbLzxgT/BZfHxy4AH+TTh62TCPoEXGbqB2uJrEiG7tcVep3ML0nYx/f/cIp1JdAfBhG3BK/yGh7j+CXtv5bohhOSvbxFqi7gkXc749d4Lck9ZrGjIq2wswN0MRhYDEvcjxHshtAamr2ne4TknZEgNBaaOYm3RdkZX3+KrFrSRzhuj24iWm77F6OLzlY35LR31uOqlMe+R6A7+CXvx+qCIJiKE0pkPBCvA5K+2CH2Lgg++V1msaWbwEHcwE3TwcPDh7Kb2WkH3Ii6LN7OPX8n8TfiS0d7GUawt2s6Yv+gDayXhjsVRl0XZHYmOK72UUfnwaeGpi+n/FXwDBTVdo+r3XpBJdAesLtzee89pcPJX1Njt+PRG+etbhJFoQZHoVRbbua2M+my8EwYXuIzKv/GfTe21PfsWKxryuLxOhFBK9645uC8ZFUEBnO4bx8sZR3pWHaTzxHbG/MVEk0WZm7d4N89bZNsScswWEt0hLO3H5xV38UUp/Cncjv4J2K76vc5TyWfHkegO+FJZuWxEw7zF7g/eAZfFNOb95PLw6qbiqqbCSxnYZJQ7eZ64mwEb0fyNQniZlY8yKx/yEDeyKBQfvUEIyYcsekW7jOK8RUwWPyRYbfFZ4emYkjDp/FkQSyzhOScCEvdfzfydXnQ6lxXZ2MYW3ioCIcRpqSDHbPWJ29nYxr6ZfZxEd4grvSQS9emUbzyiNggm6Mpf36LEVrmcpsZ+LFAcmbjBZbGD24Y3mSsa8tKY9zp57YJR9f5l0TPapaa5rIPbGpB4wCNqA7PhBUKohJNWXp8jN7JIjd0xiqtcFn0wf8nMBaKNaCOdN0Q+Wmn+lMU10SJ8hGWxvD7XJ26ne+S6Ek46Qqits8k/Ya/I1MWsqickusP9fKognH5lsV4WR6Lvv6CkSOBw1GRGuG/cLplQQ4GRwo1oEt0hKOmz1s5GvGcZd4PL4rXMP6KKz0UXn2/taCyty8BfeUa7lHDSEEIJZdfwJ94xm5PLwwVLS9nNpYz67Jc1ibmsyGzWs2zWsxwWPZcVGV92VWAA8W984z6RRGkRfF/93yz+0HrJTBtiySJ/B51XAtF/Aoj5ViCLhTVJntEuHlEbclh0gak1zQx8coZgUveppC88haqKvTaieYjL38zxL3xNWFzpZUGAMnFzL49cWJsidlNfshODk7p2nSH+145beCXzt6LaVEHHSzrzQX1rlaCqSKI7hGcfb2hjh6X92NDG5vI6G9qq8c1HsFc5Jzp57fiyeuH0Bid/FVV8rrAmqa61srmjrufmI4kyteVicNJXkigtgyx+iz9csJRosojvUYh3Jw8yGURzJpDFutaqU0lf4H/ehY1s6ai/kX2M08LEHzLqs+PLrgg76LW2eDXzd9+4XYGJB29mHxcMcAv7Iux9B7fdXWLnOLrK4H6LwoqGz08QedLPz4vpP7tFyvnBNW6ju9/iRzZLZy0kVm0RIXQt82hedTRhP3IwbKgEclj0G1nHhuprkO6vZR6Vod25+9E7eIUT8I7eLLnSMphCtYSYsihbZ7kMBrSCu4nIcc2sfCQhCPyzXD4FTZEbAv7xeyRXWgZTCJd2y2LXfotE2FgMIdTcXk+O2TKYBIAbmSDgFe3S2tEkIVOb2+vl5uQ/uZG2kSSEf/KfpErLYArhklkLls7ChlyIJYsIobOp35fVZQ4mDeCG4ARKOGnnnx+WqJFn4Jxoudg1h0R34J8T/b1ES8uAgS+dvcBuri0RZTGh7Fpk0ZkBEwAOiE+AXnha0ofPJJRd84/Hpj3BJesE/OP3SLq0DPjJ2FnarFloR0RZ5PI6XelOAyYAHBCfAInuIGkj8dIi64oA9uMEJF1aBgx/+byF6+1WE1EWEUIxJWHPCk8PmAZwQGQCT16e6rmkRxIGx5SE+cdjayvhkl0CfvGfSqe09F8C7a0WblyxhqCyiBDyjHZpk1hXff9o4O3ICbR0NHhHbx55OIMMwSNqg+wqAlhOojt4RbsMMq8l6my5lY3LSgLLYkr5rfsvZHvFi0Tzj+CB383zfl5xV2pGppTf8pfNLVdBE7E57fF7pVla+imW9vMXEloWEUJ+8bs5LZX9pAFeEZNAbXO5f8JeKdvG3z/GEVRGBgk4+sbvlnJp6Ss6e2tbostidtWzW7nufSUAnhOWQHjOidyqKCmbl131LCBhvwyKgqJ3iZ6M3yf90tJX4VxhbeuyyoG4fYu43eE5J7Iqn/SVBnhOQAIZzIf46QvSt+1G1jFa7A5QRhkiQI3dHp59QvpFpa8YV1jbblrlSHRZxE+/rWos7CsZ8JxQBCR0PsHg0xiQsN87erMM6YIim+odvSkw8bPBZ64UXK60XrRptSzIIkJICtPfpEBc7qMgyIRTEt1B7reZkQMxdaU7udIdifZRrLRetJkvi68dcTW629D2xaiqsfBU0hd9vYXnBCEQmHiwuqlk1I2paiyUj+375UD7+kkCLfZjIpQWkeK60nrRFlmRRYRQVuWTq5l/iKQBfhKHwOWM33KqsEOQifBfVuUTmODdjySN+quTCXuJU1qES+yqBTIliwihUk4GKKNwFhLn/krGbwxONnHswUtLYMLBUf/+wYCeBAIS9jM4WYQqLQJjVi9YLEu1RdzurMono3iGrIAd3AgIcHmdgYkHifmXP6vyiW/8btintqcwjdYT98h1PnG7iFla8CItk7KIEGI1FpHoDjA2LRCmUbxhNuS70p0I2EMkYIKXFlrsztESAohXQIAWu8OV7kjk0oIQWm2zeKsM9S0KCjp+cyrpi8zKxyIP4ac0CWQwH4Ykfy3NGIcdV2DiZydhaeCobqXhn7BXJkZN19gs3rbGiXBnuQy+6EfkkCJySJyWisF7AZdiIVDbXB6RQxqtOdvDS0J49omQ5K89YUcJqYujZ9SGkOSvI3Jch5dxUva1xmaJbMsiQiiHRfeL33PvBaW1o1HK+BQzupaOhrt53v4Je3NZ0l7bN3LgOSy6b/zuwEQYh5HecsPAxIN+8Z/KUGlxWLh0m8NaGa4tCr6T1PLbXtGbnhYGC57AjSQIPHl5yjt6M0F2Ohl2AlPLb3tGbaTFfizo84IbSRCgxX7sFe0ic6VFfmQR/0JiSy6S6I7PCk+XcNKH/c2Ax54ESjhp9KLTJLoDEXYJ7Wne8J7wS4sDOXqrJBRBwcMkx2BUZbS0yJssIoR4PG5C2fXzz3/wit50K8cthxXZyW0f3mej4L46uO05LHpEjqtXtMv554cTy27KHxC8tISm/Ms9ch0ldpuCa9nIk0+J2eYeuS405V8yXVrkUBYFn25rR2NG5cMbWX+6RTrfy6Pcf0GNLj7/vOJeATue2ZDf0MYWuISbhjY2syG/gB3/vOJedPH5+y8od/PI7pHON7KOZVY+ktxZpsQhj5eWq5m/u9Kd/OI/pcRs9Yre5B7pPHKlkOMQ3COdvaI3kWO2+sV96hq59mrm7/JRWhzlpm+x/w+ssCYlpfwWvSj0bp7X5YxfQ5K/psV+HJb2oxwX2cEnLSztJ1rsxyHJX1/O+PVunhe9KDSl/HZhTUr/SOX4rUhpOZX0BSVmW0jy14NHKscuQ5IPUWK2nUr6Qo5LizzXFuX4u4WkAQEgIDkCDrbyMhItOUYQMhAAAgpFwMF22VYHZ3mYoKNQ2QaJBQJAQHIEHBbZgSxKDi+EDASAgOwRAFmUvTwDi4EAEJAoAZBFieKFwIEAEJA9Ao6Ll0MjWvayDSwGAkBAcgRAFiXHFkIGAkBAJglgsugII9EymXdgNBAAAhIh4Lh4+TbHdTBBRyJwIVAgAARkkYDTEvttTlBblMWsA5uBABCQDAGnJctBFiWDFkIFAkBANgk4Llm+FWqLspl3YDUQAAISIeC4xG6ro1zszi0RPBAoEAACikcAZFHx8hxSDASAQL8EMFl0gtpiv4zgJRAAAgpFwGmpHQy5KFSOQ2KBABAYgIDTUhiJHgARvAYCQECxCKxdunw7jEQrVp5DaoEAEOiXACaLa2E6d7+M4CUQAAIKRWDt0uU71jorGWpPMtJ5Q/hSKAqQWCAABICAgMDapXY7nEEWBTzgBggAAYUngNUWndfxa4uvVxgVngwAAAJAQEEJOC9bvsN5vZKhzqRXF18fFZQHJBsIAAGFJ+BsZw+yqPClAAAAASAgRABkUQgG3AIBIAAEEFoLtUUoBkAACAABYQIgi8I04B4IAAEggJyXQd8iFAMgAASAgBCB3mSRPyot5AZugQAQAAIKRGDdMvsdTiITdEAWFagAQFKBABAQJbDObgXIoigU+A0EgIAiEwBZVOTch7QDASDQCwGQxV6gwCMgAAQUmcB6rBG97vXFf9C3qMglAtIOBBSewHq7FdsxWdSeJHIpPBkAAASAgIISWG+3kl9bBFlU0AIAyQYCQECUAL+2yN9vEWqLomzgNxAAAgpJAGRRIbMdEg0EgEDfBEAW+2YDb4AAEFBIAiCLCpntkGggAAT6JrDObsV2R+hb7BsQvAECQEDRCKyzswdZVLRMh/QCASDQH4F1y+y3Oa6FeYv9MYJ3QAAIKBQBkEWFym5ILBAAAgMTAFkcmBG4AAJAQKEIgCwqVHZDYoEAEBiYQJcsGmhPErkG9gougAAQAALySMDZzn6bo5OSiCYaaE+Sx8RCmoAAEAACAxNwtrPfCrI4MCdwAQSAgMIQcLaz3+LoCLVFhclwSCgQAAIDEXBeDrI4ECN4DwSAgEIRWLfcfqujA9QWFSrTIbFAAAj0R2DjipXbnKAR3R8ieAcEgIBiEdi+1mnnemeoLSpWrkNqgQAQ6IfAp5s27Nm8EWSxH0TwCggAAcUisHfLxv1bXUAWFSvXIbVAAAj0Q2Df1o37t4Es9kMIXgEBIKBgBEAWFSzDIblAAAgMRKBbFrUmGghfsPhvIHDwHggAAXklsHfrxn3bNiq9pol8fZTXBEO6gAAQAAL9E9i3DWSxf0LwFggAAQUjsG8bPuQi3IKG2qKCFQJILhAAAsIEQBaFacA9EAACQABhsrjdBfoWoSgAASAABLoIYH2LIItQHIAAEAACAgIgiwIUcAMEgAAQwAjshdoiFAQgAASAgDCBvds27oVGtDARuAcCQEDBCewBWVTwEgDJBwJAQITA3m0ue7dvgpFoESzwEwgAAcUl8OmWjXu2YrI4SeRSXCSQciAABBSbwI716z5xwdZEgywqdkGA1AMBINBNYMPKVZscHEAWu3nAv0AACCg8gbV29htWrgJZVPiCAACAABDoJuC8fMX6lStBFrt5wL9AAAgoPAFn+xUuq9eALCp8QQAAQAAIdBNwtl+xxdERJuh084B/gQAQUHgCzvb2IIsKXwoAABAAAkIEnO3tN/NHol8/y0VropAbuAUCQAAIKBABvixifYsgiwqU65BUIAAE+iEAstgPHHgFBICAIhJwtl++2QFqi4qY9ZBmIAAEeifgbG+32XGNkr7WJJGrd+fwFAgAASAg7wQwWXRYDbIo7/kM6QMCQGDQBEAWB40KHAIBIKAYBNatsNvsCLVFxchsSCUQAAKDIeBsb7cJGtGDIQVugAAQUBACmCxCbVFBMhuSCQSAwGAIdMmintZEPa2JwoPRg/EMboAAEAAC8kfA2X45VlvEZbH7/9hkHflLKqQICAABIDAYAs4rlm9yWiMii1jNcTCewQ0QAAJAQP4IOK9YvhlkUf7yFVIEBIDAsAmsW2m/xckBaovDBggegQAQkDcCIIvylqOQHiAABEZIAJPFtY5KeloTRK4RhgvegQAQAAIySmDdCvstTiCLMpp7YDYQAAISIIAdWgCyKAGwECQQAAKySgDbbxFkUVZzD+wGAkBAAgSc7OygtigBrhAkEAACMktgla3txtXYKhcYcpHZPATDgQAQECsBm49mrlm8WElPa3z3hevjeLHGAoEBASAABGSGwNzp79vMmiUsi136KDMpAEOBABAAAmIlMMfMYq7F9J6yOEGssUBgQAAIAAGZIWBpZmFpbiEsi1gjWl8LZFFmshAMBQJAQLwERGRxgr72BH3tiQbasIOOeDlDaEAACMgMgTlm5nPMzLtGovW1JhjoTDTQmWSgA/stykwWgqFAAAiIl8AcMzNMFvV1Junz1RDTRN03DHTfEG80EBoQAAJAQFYIzHmPL4t4DdFABxNEA903DPVMZCUBYCcQAAJAQLwEhGWxSxMNdE1AFsVLGUIDAkBAhggIZLGrkmioh2miEdQWZSgPwVQgAATESmD2u12NaJBFsXKFwIAAEJBZApgsvmeuJOhShNqizGYlGA4EgIB4CMx6970uWcQFsUsW9U3FEzyEAgSAABCQNQLzLKZbmvFriyCLspZ3YC8QAAISIbBo1uz5789QErSdjbDxFlMjqC1KhDYECgSAgAwQWG1razfPCutbNOTPy8GHoUEWZSDrwEQgAAQkQ2D9Cvt1y+34stg9NQerMEJtUTK4IVQgAASIT2DjqpVbHNaALBI/p8BCIAAEpERgw8oVW50c8Qk62ERuaERLCTxEAwSAAFEJYLK4tksWsaXQIItEzSmwCwgAASkR2NhTFjFlhL5FKfGHaIAAECAcgY2rVm5d6/Sqb9FQ38RQH2SRcPkEBgEBICA1AkKNaH4LGtdEI4PJUrMAIgICQAAIEIqAs92yLY5rlAz0TAz0uuqJRvqmIIuEyiQwBggAAWkScFi8aNOa1d2rXPSx9S1GBpNBFqWZBxAXEAAChCJgb229bvlyvizyuxRxTQRZJFQmgTFAAAhIk4DtrFlrFtkqCboUjQwmGxtOHmc4RZpGQFxAAAgAAeIQsJr+/nIrKyVDg8lGhlOMDKeMM5wyzgj7P3FMBEuAABAAAtIkMNfcwmbmTKVxRlOxy3jqeKOuS5pGQFxAAAgAAeIQmGtubjV9utJ44zfHG0+dMG7qBOOuizgmgiVAAAgAAWkSmGtuPs/CQglXw4njpk40nor9f9yb0jQC4gICQAAIEIfAXDOLueYWSuMNTScYTZ44bsqkcVMnjXtzEsgicbIILAECQEC6BDBZNDNXMtZ/Y5yhCaaMxnxZHD9NumZAbEAACAABohCwfM8ck0UjPZNxBqYTDKdMMMIqjG9MAFkkSg6BHUAACEiZwJz3zLAjroz0TIz1TccbTh5vOHmC8dRJUFuUcj5AdEAACBCGQJcs4tssGuubjDOYPMEIa0cTxkIwBAgAASAgVQKYLL5nrmSoZ9q9Aa3JeMPJk8ZNlaoVEBkQAAJAgDAEumTRQOjYP2N903EGpoSxEAwBAkAACEiVAF8Wzbo3FhMcWqBnwuPxpGoIRAYEgAAQIAABHo8nJIu6JthR0fzLSM+0ra2dABaCCUAACAABqRJob2+3NHvP0kxQW8Sa0qZGeqZGuiYcTp1UbYHIgAAQAAIEIFBfX29pZjb3lSxiAy9dsvg8NZ0AFoIJQAAIAAGpEsjNypprbjbX3Eypq/nMl0X8/n9/HJeqLRAZEAACQIAABE5SyPOnW8yzeE0WsaOiDfVMppi8C6MuBMgjMAEIAAHpEeDxeCus5y+YMV1IFrun6eDKWF3Nlp45EBMQAAJAYLQJVLNYdnPnLProQ6tXtUW+LBrpmRjxK4wfb98z2kZC/EAACAABKRHg8Xj/9+2/1tjaOC62XTp3jqBvEWs+C2TRUM+ktLRMShZBNEAACACBUSVQWlxsM3OG4xLbLY6r19sv6zoQFW87C8vi/HlLOjo6RtVUiBwIAAEgIHECnZ2dmx3XzH/fYs0im12b1u/atKGnLL6BS6ShnsmBvV/C2IvE8wQiAAJAYPQI8Hi8/37/3bzpZvNnWKxaaL1j49r9u7a/kkW8qoj3LXZXHk0vXbw2egZDzEAACAAByRK4Ex5uaWE21+K9BTNnOCyx+Xjzun27tgnL4huva6IJtuhFD1NGqDNKNmcgdCAABKROgMfjhV+7OsfsPUsLM6sZ5svmz9m4evmuHS77dm19JYuCtrNg7AWXRSM90yM//wHKKPVcgwiBABCQFAEul+v+17E57703x8xs7nSLxZYfbVy9/NOtG/ft3rZ315b/B2Wnt30ulME2AAAAAElFTkSuQmCC;" vertex="1" parent="WIyWlLk6GJQsqaUBKTNV-1">
          <mxGeometry x="578" y="520" width="434" height="675" as="geometry" />
        </mxCell>
      </root>
    </mxGraphModel>
  </diagram>
</mxfile>
